SplineFontDB: 3.0
FontName: FancyVR
FullName: FancyVR
FamilyName: FancyVR
Weight: Book
Copyright: Copyright 2002, 2003, 2005, 2008, 2009, 2010, 2012 GNU Freefont contributors.
Version: 0412.2263
ItalicAngle: 0
UnderlinePosition: -100
UnderlineWidth: 50
Ascent: 800
Descent: 200
sfntRevision: 0x019c39db
woffMajor: 412
woffMinor: 2263
LayerCount: 2
Layer: 0 1 "Back"  1
Layer: 1 1 "Fore"  0
XUID: [1021 905 1579682281 9231245]
FSType: 0
OS2Version: 3
OS2_WeightWidthSlopeOnly: 0
OS2_UseTypoMetrics: 1
CreationTime: 1203285272
ModificationTime: 1442501598
PfmFamily: 17
TTFWeight: 400
TTFWidth: 5
LineGap: 100
VLineGap: 0
Panose: 2 2 6 3 5 4 5 2 3 4
OS2TypoAscent: 800
OS2TypoAOffset: 0
OS2TypoDescent: -200
OS2TypoDOffset: 0
OS2TypoLinegap: 100
OS2WinAscent: 900
OS2WinAOffset: 0
OS2WinDescent: 300
OS2WinDOffset: 0
HheadAscent: 900
HheadAOffset: 0
HheadDescent: -200
HheadDOffset: 0
OS2SubXSize: 650
OS2SubYSize: 600
OS2SubXOff: 0
OS2SubYOff: 200
OS2SupXSize: 650
OS2SupYSize: 600
OS2SupXOff: 0
OS2SupYOff: 390
OS2StrikeYSize: 49
OS2StrikeYPos: 258
OS2FamilyClass: 261
OS2Vendor: 'GNU '
OS2CodePages: 600101ff.ffff0000
OS2UnicodeRanges: e59fafff.c200fdff.43501b29.04000043
Lookup: 1 0 0 "'rtla' Right to Left Alternates lookup 0"  {"'rtla' Right to Left Alternates lookup 0 subtable"  } ['rtla' ('DFLT' <'dflt' > ) ]
Lookup: 4 0 1 "<1,2> Common Ligatures in Latin lookup 1"  {"<1,2> Common Ligatures in Latin lookup 1 subtable"  } [<1,2> ('latn' <'dflt' > ) 'liga' ('latn' <'dflt' > ) ]
Lookup: 4 0 1 "<1,2> Common Ligatures in Latin lookup 2"  {"<1,2> Common Ligatures in Latin lookup 2 subtable"  } [<1,2> ('latn' <'dflt' > ) 'liga' ('latn' <'dflt' > ) ]
Lookup: 4 0 0 "<11,2> Diagonal Fractions lookup 3"  {"<11,2> Diagonal Fractions lookup 3 subtable"  } [<11,2> ('DFLT' <'dflt' > ) 'frac' ('DFLT' <'dflt' > ) ]

StartChar: .notdef
Encoding: 65536 -1 0
Width: 364
Flags: W
LayerCount: 2
Fore
SplineSet
33 0 m 1,0,-1
 33 666 l 1,1,-1
 298 666 l 1,2,-1
 298 0 l 1,3,-1
 33 0 l 1,0,-1
66 33 m 1,4,-1
 265 33 l 1,5,-1
 265 633 l 1,6,-1
 66 633 l 1,7,-1
 66 33 l 1,4,-1
EndSplineSet
Validated: 1
EndChar

StartChar: exclam
Encoding: 33 33 5
Width: 333
Flags: W
LayerCount: 2
Fore
SplineSet
189 176 m 1,0,-1
 176 176 l 1,1,2
 166 298 166 298 154 391 c 128,-1,3
 142 484 142 484 136 527 c 128,-1,4
 130 570 130 570 130 599 c 0,5,6
 130 634 130 634 144 655 c 128,-1,7
 158 676 158 676 183 676 c 0,8,9
 236 676 236 676 236 596 c 0,10,11
 236 568 236 568 230 526 c 128,-1,12
 224 484 224 484 212 390.5 c 128,-1,13
 200 297 200 297 189 176 c 1,0,-1
183 98 m 128,-1,15
 205 98 205 98 221 82 c 128,-1,16
 237 66 237 66 237 43 c 128,-1,17
 237 20 237 20 221.5 5.5 c 128,-1,18
 206 -9 206 -9 182 -9 c 0,19,20
 160 -9 160 -9 145 5.5 c 128,-1,21
 130 20 130 20 130 43 c 128,-1,22
 130 66 130 66 145.5 82 c 128,-1,14
 161 98 161 98 183 98 c 128,-1,15
EndSplineSet
Validated: 1
EndChar

StartChar: numbersign
Encoding: 35 35 7
Width: 500
Flags: W
LayerCount: 2
Fore
SplineSet
471 271 m 1,0,-1
 471 216 l 1,1,-1
 362 216 l 1,2,-1
 331 0 l 1,3,-1
 273 0 l 1,4,-1
 304 216 l 1,5,-1
 170 216 l 1,6,-1
 137 0 l 1,7,-1
 79 0 l 1,8,-1
 112 216 l 1,9,-1
 5 216 l 1,10,-1
 5 271 l 1,11,-1
 121 271 l 1,12,-1
 142 405 l 1,13,-1
 32 405 l 1,14,-1
 32 460 l 1,15,-1
 150 460 l 1,16,-1
 181 662 l 1,17,-1
 239 662 l 1,18,-1
 208 460 l 1,19,-1
 341 460 l 1,20,-1
 371 662 l 1,21,-1
 429 662 l 1,22,-1
 399 460 l 1,23,-1
 496 460 l 1,24,-1
 496 405 l 1,25,-1
 391 405 l 1,26,-1
 371 271 l 1,27,-1
 471 271 l 1,0,-1
333 405 m 1,28,-1
 200 405 l 1,29,-1
 179 271 l 1,30,-1
 313 271 l 1,31,-1
 333 405 l 1,28,-1
EndSplineSet
Validated: 1
EndChar

StartChar: dollar
Encoding: 36 36 8
Width: 500
Flags: W
LayerCount: 2
Fore
SplineSet
52 512 m 0,0,1
 52 576 52 576 97 615 c 128,-1,2
 142 654 142 654 230 664 c 1,3,-1
 230 727 l 1,4,-1
 264 727 l 1,5,-1
 264 664 l 1,6,7
 377 651 377 651 425 611 c 1,8,-1
 425 500 l 1,9,-1
 410 500 l 1,10,11
 397 564 397 564 362 596.5 c 128,-1,12
 327 629 327 629 264 637 c 1,13,-1
 264 391 l 1,14,15
 274 385 274 385 302.5 369 c 128,-1,16
 331 353 331 353 340.5 347 c 128,-1,17
 350 341 350 341 372 326.5 c 128,-1,18
 394 312 394 312 402 303 c 128,-1,19
 410 294 410 294 424 278 c 128,-1,20
 438 262 438 262 443 247.5 c 128,-1,21
 448 233 448 233 452.5 213 c 128,-1,22
 457 193 457 193 457 170 c 0,23,24
 457 95 457 95 408.5 55.5 c 128,-1,25
 360 16 360 16 264 0 c 1,26,-1
 264 -87 l 1,27,-1
 230 -87 l 1,28,-1
 230 0 l 1,29,30
 167 2 167 2 128 12.5 c 128,-1,31
 89 23 89 23 44 51 c 1,32,-1
 44 181 l 1,33,-1
 59 181 l 1,34,35
 77 102 77 102 118 65.5 c 128,-1,36
 159 29 159 29 230 28 c 1,37,-1
 230 310 l 1,38,39
 131 365 131 365 91.5 408.5 c 128,-1,40
 52 452 52 452 52 512 c 0,0,1
229 407 m 1,41,-1
 229 637 l 1,42,43
 126 616 126 616 126 534 c 0,44,45
 126 499 126 499 146.5 474 c 128,-1,46
 167 449 167 449 229 407 c 1,41,-1
264 293 m 1,47,-1
 264 28 l 1,48,49
 378 50 378 50 378 146 c 0,50,51
 378 192 378 192 356 220.5 c 128,-1,52
 334 249 334 249 264 293 c 1,47,-1
EndSplineSet
Validated: 1
EndChar

StartChar: percent
Encoding: 37 37 9
Width: 833
Flags: W
LayerCount: 2
Fore
SplineSet
669 371 m 0,0,1
 718 371 718 371 745 343 c 128,-1,2
 772 315 772 315 772 264 c 0,3,4
 772 206 772 206 749 149 c 128,-1,5
 726 92 726 92 686 51 c 0,6,7
 635 0 635 0 569 0 c 0,8,9
 515 0 515 0 482 35.5 c 128,-1,10
 449 71 449 71 449 129 c 0,11,12
 449 223 449 223 516.5 297 c 128,-1,13
 584 371 584 371 669 371 c 0,0,1
586 30 m 0,14,15
 629 30 629 30 667 68 c 128,-1,16
 705 106 705 106 725.5 158.5 c 128,-1,17
 746 211 746 211 746 259 c 0,18,19
 746 292 746 292 725.5 315.5 c 128,-1,20
 705 339 705 339 676 339 c 0,21,22
 630 339 630 339 593 287 c 128,-1,23
 556 235 556 235 540.5 180.5 c 128,-1,24
 525 126 525 126 525 94 c 0,25,26
 525 66 525 66 542 48 c 128,-1,27
 559 30 559 30 586 30 c 0,14,15
282 662 m 0,28,29
 313 662 313 662 332 648.5 c 128,-1,30
 351 635 351 635 374.5 621.5 c 128,-1,31
 398 608 398 608 439 608 c 0,32,33
 486 608 486 608 520.5 623 c 128,-1,34
 555 638 555 638 595 676 c 1,35,-1
 634 676 l 1,36,-1
 249 -13 l 1,37,-1
 201 -13 l 1,38,-1
 552 613 l 1,39,40
 500 583 500 583 442 583 c 0,41,42
 403 583 403 583 377 593 c 1,43,44
 384 568 384 568 384 549 c 0,45,46
 384 456 384 456 324.5 372.5 c 128,-1,47
 265 289 265 289 179 289 c 0,48,49
 130 289 130 289 95.5 326.5 c 128,-1,50
 61 364 61 364 61 416 c 0,51,52
 61 511 61 511 128.5 586.5 c 128,-1,53
 196 662 196 662 282 662 c 0,28,29
282 632 m 0,54,55
 234 632 234 632 185.5 544.5 c 128,-1,56
 137 457 137 457 137 384 c 0,57,58
 137 357 137 357 153.5 340 c 128,-1,59
 170 323 170 323 196 323 c 0,60,61
 257 323 257 323 308 394.5 c 128,-1,62
 359 466 359 466 359 551 c 0,63,64
 359 570 359 570 350 600 c 1,65,66
 330 605 330 605 316.5 611.5 c 128,-1,67
 303 618 303 618 298.5 622 c 128,-1,68
 294 626 294 626 290 629 c 128,-1,69
 286 632 286 632 282 632 c 0,54,55
EndSplineSet
Validated: 1
EndChar

StartChar: ampersand
Encoding: 38 38 10
Width: 778
Flags: W
LayerCount: 2
Fore
SplineSet
491 555 m 128,-1,1
 491 502 491 502 456 463 c 128,-1,2
 421 424 421 424 336 384 c 1,3,4
 396 267 396 267 468 178 c 1,5,6
 559 299 559 299 559 360 c 0,7,8
 559 383 559 383 545.5 392 c 128,-1,9
 532 401 532 401 495 405 c 1,10,-1
 495 426 l 1,11,-1
 711 426 l 1,12,-1
 711 405 l 1,13,14
 673 400 673 400 654 388.5 c 128,-1,15
 635 377 635 377 617 346 c 0,16,17
 554 234 554 234 491 150 c 1,18,19
 560 58 560 58 645 58 c 0,20,21
 672 58 672 58 691.5 69.5 c 128,-1,22
 711 81 711 81 735 111 c 1,23,-1
 750 100 l 1,24,25
 728 47 728 47 687.5 17 c 128,-1,26
 647 -13 647 -13 599 -13 c 0,27,28
 517 -13 517 -13 429 78 c 1,29,30
 373 29 373 29 323.5 8 c 128,-1,31
 274 -13 274 -13 213 -13 c 0,32,33
 133 -13 133 -13 87.5 27.5 c 128,-1,34
 42 68 42 68 42 139 c 0,35,36
 42 184 42 184 58.5 221.5 c 128,-1,37
 75 259 75 259 108 288.5 c 128,-1,38
 141 318 141 318 167.5 335.5 c 128,-1,39
 194 353 194 353 237 377 c 1,40,41
 202 474 202 474 202 522 c 0,42,43
 202 586 202 586 247 631 c 128,-1,44
 292 676 292 676 356 676 c 0,45,46
 415 676 415 676 453 642 c 128,-1,0
 491 608 491 608 491 555 c 128,-1,1
321 416 m 1,47,48
 382 449 382 449 410 483 c 128,-1,49
 438 517 438 517 438 559 c 0,50,51
 438 596 438 596 415.5 620 c 128,-1,52
 393 644 393 644 358 644 c 0,53,54
 324 644 324 644 302.5 621 c 128,-1,55
 281 598 281 598 281 562 c 0,56,57
 281 500 281 500 321 416 c 1,47,48
252 343 m 1,58,59
 187 301 187 301 160.5 264.5 c 128,-1,60
 134 228 134 228 134 180 c 0,61,62
 134 122 134 122 172 80.5 c 128,-1,63
 210 39 210 39 263 39 c 0,64,65
 322 39 322 39 404 104 c 1,66,67
 330 195 330 195 252 343 c 1,58,59
EndSplineSet
Validated: 1
EndChar

StartChar: quotesingle
Encoding: 39 39 11
Width: 200
Flags: W
LayerCount: 2
Fore
SplineSet
111 431 m 1,0,-1
 90 431 l 1,1,2
 58 600 58 600 58 635 c 0,3,4
 58 652 58 652 70.5 664 c 128,-1,5
 83 676 83 676 101 676 c 0,6,7
 118 676 118 676 130.5 664 c 128,-1,8
 143 652 143 652 143 636 c 0,9,10
 143 599 143 599 111 431 c 1,0,-1
EndSplineSet
Validated: 1
EndChar

StartChar: parenleft
Encoding: 40 40 12
Width: 333
Flags: W
LayerCount: 2
Fore
SplineSet
292 -177 m 1,0,1
 266 -161 266 -161 238 -138.5 c 128,-1,2
 210 -116 210 -116 174.5 -76 c 128,-1,3
 139 -36 139 -36 112 9.5 c 128,-1,4
 85 55 85 55 66.5 119 c 128,-1,5
 48 183 48 183 48 252 c 0,6,7
 48 324 48 324 66.5 388.5 c 128,-1,8
 85 453 85 453 110 495.5 c 128,-1,9
 135 538 135 538 173.5 577.5 c 128,-1,10
 212 617 212 617 237 636 c 128,-1,11
 262 655 262 655 295 676 c 1,12,-1
 304 660 l 1,13,14
 260 624 260 624 233 595 c 128,-1,15
 206 566 206 566 181 519.5 c 128,-1,16
 156 473 156 473 145 408.5 c 128,-1,17
 134 344 134 344 134 255 c 0,18,19
 134 162 134 162 145 95 c 128,-1,20
 156 28 156 28 181 -19.5 c 128,-1,21
 206 -67 206 -67 233 -97 c 128,-1,22
 260 -127 260 -127 304 -161 c 1,23,-1
 292 -177 l 1,0,1
EndSplineSet
Validated: 1
Substitution2: "'rtla' Right to Left Alternates lookup 0 subtable" parenright
EndChar

StartChar: asterisk
Encoding: 42 42 14
Width: 500
Flags: W
LayerCount: 2
Fore
SplineSet
214 302 m 0,0,1
 214 312 214 312 227.5 355.5 c 128,-1,2
 241 399 241 399 241 456 c 1,3,4
 202 432 202 432 177 404 c 128,-1,5
 152 376 152 376 139.5 363.5 c 128,-1,6
 127 351 127 351 105 351 c 0,7,8
 69 351 69 351 69 386 c 0,9,10
 69 403 69 403 82 411.5 c 128,-1,11
 95 420 95 420 114 423.5 c 128,-1,12
 133 427 133 427 167.5 439.5 c 128,-1,13
 202 452 202 452 234 471 c 1,14,15
 195 491 195 491 149.5 502 c 128,-1,16
 104 513 104 513 86.5 522 c 128,-1,17
 69 531 69 531 69 555 c 0,18,19
 69 570 69 570 79 580.5 c 128,-1,20
 89 591 89 591 103 591 c 0,21,22
 119 591 119 591 131.5 582 c 128,-1,23
 144 573 144 573 153 560 c 128,-1,24
 162 547 162 547 185.5 526 c 128,-1,25
 209 505 209 505 241 486 c 1,26,27
 241 543 241 543 228.5 587 c 128,-1,28
 216 631 216 631 216 641 c 0,29,30
 216 656 216 656 226 666 c 128,-1,31
 236 676 236 676 251 676 c 128,-1,32
 266 676 266 676 276.5 665.5 c 128,-1,33
 287 655 287 655 287 639 c 0,34,35
 287 626 287 626 273.5 584.5 c 128,-1,36
 260 543 260 543 260 484 c 1,37,38
 295 506 295 506 321.5 534.5 c 128,-1,39
 348 563 348 563 362.5 578 c 128,-1,40
 377 593 377 593 395 593 c 0,41,42
 411 593 411 593 421 582 c 128,-1,43
 431 571 431 571 431 554 c 0,44,45
 431 533 431 533 411 524 c 128,-1,46
 391 515 391 515 347 502.5 c 128,-1,47
 303 490 303 490 268 470 c 1,48,49
 298 451 298 451 332 439.5 c 128,-1,50
 366 428 366 428 385.5 425 c 128,-1,51
 405 422 405 422 418.5 413 c 128,-1,52
 432 404 432 404 432 387 c 128,-1,53
 432 370 432 370 422.5 360 c 128,-1,54
 413 350 413 350 397 350 c 0,55,56
 376 350 376 350 362 362.5 c 128,-1,57
 348 375 348 375 321.5 403.5 c 128,-1,58
 295 432 295 432 260 456 c 1,59,60
 260 399 260 399 274 354.5 c 128,-1,61
 288 310 288 310 288 305 c 0,62,63
 288 289 288 289 276.5 277 c 128,-1,64
 265 265 265 265 249 265 c 0,65,66
 235 265 235 265 224.5 276 c 128,-1,67
 214 287 214 287 214 302 c 0,0,1
EndSplineSet
Validated: 1
EndChar

StartChar: plus
Encoding: 43 43 15
Width: 564
Flags: W
LayerCount: 2
Fore
SplineSet
249 286 m 1,0,-1
 249 506 l 1,1,-1
 315 506 l 1,2,-1
 315 286 l 1,3,-1
 534 286 l 1,4,-1
 534 220 l 1,5,-1
 315 220 l 1,6,-1
 315 0 l 1,7,-1
 249 0 l 1,8,-1
 249 220 l 1,9,-1
 30 220 l 1,10,-1
 30 286 l 1,11,-1
 249 286 l 1,0,-1
EndSplineSet
Validated: 1
EndChar

StartChar: comma
Encoding: 44 44 16
Width: 250
Flags: W
LayerCount: 2
Fore
SplineSet
142 -2 m 1,0,1
 142 -2 142 -2 134 -4 c 0,2,3
 125 -6 125 -6 115 -6 c 0,4,5
 88 -6 88 -6 72 7.5 c 128,-1,6
 56 21 56 21 56 45 c 0,7,8
 56 70 56 70 72.5 86 c 128,-1,9
 89 102 89 102 115 102 c 0,10,11
 149 102 149 102 172 76.5 c 128,-1,12
 195 51 195 51 195 13 c 0,13,14
 195 -32 195 -32 164 -74 c 128,-1,15
 133 -116 133 -116 83 -141 c 1,16,-1
 74 -122 l 1,17,18
 156 -66 156 -66 156 -16 c 0,19,20
 156 -2 156 -2 142 -2 c 1,0,1
EndSplineSet
Validated: 1
EndChar

StartChar: hyphen
Encoding: 45 45 17
Width: 333
Flags: W
LayerCount: 2
Fore
SplineSet
39 257 m 1,0,-1
 285 257 l 1,1,-1
 285 194 l 1,2,-1
 39 194 l 1,3,-1
 39 257 l 1,0,-1
EndSplineSet
Validated: 1
EndChar

StartChar: period
Encoding: 46 46 18
Width: 250
Flags: W
LayerCount: 2
Fore
SplineSet
125 100 m 0,0,1
 148 100 148 100 164.5 83 c 128,-1,2
 181 66 181 66 181 43 c 0,3,4
 181 21 181 21 164 5 c 128,-1,5
 147 -11 147 -11 124 -11 c 0,6,7
 102 -11 102 -11 86 5 c 128,-1,8
 70 21 70 21 70 43 c 0,9,10
 70 66 70 66 86.5 83 c 128,-1,11
 103 100 103 100 125 100 c 0,0,1
EndSplineSet
Validated: 1
EndChar

StartChar: slash
Encoding: 47 47 19
Width: 296
Flags: W
LayerCount: 2
Fore
SplineSet
296 676 m 1,0,-1
 68 -14 l 1,1,-1
 0 -14 l 1,2,-1
 229 676 l 1,3,-1
 296 676 l 1,0,-1
EndSplineSet
Validated: 1
EndChar

StartChar: zero
Encoding: 48 48 20
Width: 500
Flags: W
LayerCount: 2
Fore
SplineSet
250 -14 m 128,-1,1
 148 -14 148 -14 86 84 c 128,-1,2
 24 182 24 182 24 336 c 0,3,4
 24 481 24 481 86 578.5 c 128,-1,5
 148 676 148 676 254 676 c 0,6,7
 352 676 352 676 414 580 c 128,-1,8
 476 484 476 484 476 330 c 0,9,10
 476 178 476 178 414 82 c 128,-1,0
 352 -14 352 -14 250 -14 c 128,-1,1
251 650 m 0,11,12
 120 650 120 650 120 327 c 0,13,14
 120 12 120 12 250 12 c 128,-1,15
 380 12 380 12 380 328 c 0,16,17
 380 485 380 485 347 567.5 c 128,-1,18
 314 650 314 650 251 650 c 0,11,12
EndSplineSet
Validated: 1
EndChar

StartChar: one
Encoding: 49 49 21
Width: 500
Flags: W
LayerCount: 2
Fore
SplineSet
183 593 m 0,0,1
 165 593 165 593 111 571 c 1,2,-1
 111 585 l 1,3,-1
 291 676 l 1,4,-1
 299 674 l 1,5,-1
 299 74 l 2,6,7
 299 38 299 38 317 27 c 128,-1,8
 335 16 335 16 394 15 c 1,9,-1
 394 0 l 1,10,-1
 118 0 l 1,11,-1
 118 15 l 1,12,13
 174 17 174 17 193.5 31.5 c 128,-1,14
 213 46 213 46 213 93 c 2,15,-1
 213 546 l 2,16,17
 213 593 213 593 183 593 c 0,0,1
EndSplineSet
Validated: 1
Substitution2: "<10,1> Superiors in Latin lookup 4 subtable" onesuperior
EndChar

StartChar: two
Encoding: 50 50 22
Width: 500
Flags: W
LayerCount: 2
Fore
SplineSet
31 477 m 1,0,1
 36 500 36 500 41 517 c 128,-1,2
 46 534 46 534 62.5 566.5 c 128,-1,3
 79 599 79 599 99.5 620.5 c 128,-1,4
 120 642 120 642 156.5 659 c 128,-1,5
 193 676 193 676 239 676 c 0,6,7
 317 676 317 676 370.5 625 c 128,-1,8
 424 574 424 574 424 499 c 0,9,10
 424 386 424 386 296 252 c 2,11,-1
 128 76 l 1,12,-1
 367 76 l 2,13,14
 401 76 401 76 417.5 87.5 c 128,-1,15
 434 99 434 99 462 142 c 1,16,-1
 475 137 l 1,17,-1
 420 0 l 1,18,-1
 30 0 l 1,19,-1
 30 12 l 1,20,-1
 208 201 l 2,21,22
 338 339 338 339 338 461 c 0,23,24
 338 524 338 524 299 563 c 128,-1,25
 260 602 260 602 197 602 c 0,26,27
 145 602 145 602 113.5 573.5 c 128,-1,28
 82 545 82 545 52 472 c 1,29,-1
 31 477 l 1,0,1
EndSplineSet
Validated: 1
Substitution2: "<10,1> Superiors in Latin lookup 4 subtable" twosuperior
EndChar

StartChar: three
Encoding: 51 51 23
Width: 500
Flags: W
LayerCount: 2
Fore
SplineSet
81 78 m 0,0,1
 104 78 104 78 149.5 50 c 128,-1,2
 195 22 195 22 229 22 c 0,3,4
 284 22 284 22 322 65 c 128,-1,5
 360 108 360 108 360 171 c 0,6,7
 360 210 360 210 346.5 240 c 128,-1,8
 333 270 333 270 312 286.5 c 128,-1,9
 291 303 291 303 262 313.5 c 128,-1,10
 233 324 233 324 207.5 327 c 128,-1,11
 182 330 182 330 153 330 c 1,12,-1
 153 343 l 1,13,14
 187 355 187 355 211.5 366.5 c 128,-1,15
 236 378 236 378 263 397.5 c 128,-1,16
 290 417 290 417 304.5 445 c 128,-1,17
 319 473 319 473 319 509 c 0,18,19
 319 556 319 556 288.5 586 c 128,-1,20
 258 616 258 616 209 616 c 0,21,22
 162 616 162 616 126.5 590.5 c 128,-1,23
 91 565 91 565 60 510 c 1,24,-1
 45 514 l 1,25,26
 71 585 71 585 115.5 630.5 c 128,-1,27
 160 676 160 676 242 676 c 0,28,29
 311 676 311 676 354.5 638 c 128,-1,30
 398 600 398 600 398 539 c 0,31,32
 398 498 398 498 377 467 c 128,-1,33
 356 436 356 436 304 401 c 1,34,35
 364 375 364 375 398 334.5 c 128,-1,36
 432 294 432 294 432 219 c 0,37,38
 432 113 432 113 353.5 49.5 c 128,-1,39
 275 -14 275 -14 156 -14 c 0,40,41
 104 -14 104 -14 73.5 1.5 c 128,-1,42
 43 17 43 17 43 43 c 0,43,44
 43 59 43 59 53.5 68.5 c 128,-1,45
 64 78 64 78 81 78 c 0,0,1
EndSplineSet
Validated: 1
Substitution2: "<10,1> Superiors in Latin lookup 4 subtable" threesuperior
EndChar

StartChar: four
Encoding: 52 52 24
Width: 500
Flags: W
LayerCount: 2
Fore
SplineSet
472 231 m 1,0,-1
 472 167 l 1,1,-1
 370 167 l 1,2,-1
 370 0 l 1,3,-1
 293 0 l 1,4,-1
 293 167 l 1,5,-1
 12 167 l 1,6,-1
 12 231 l 1,7,-1
 326 676 l 1,8,-1
 370 676 l 1,9,-1
 370 231 l 1,10,-1
 472 231 l 1,0,-1
292 231 m 1,11,-1
 292 574 l 1,12,-1
 52 231 l 1,13,-1
 292 231 l 1,11,-1
EndSplineSet
Validated: 1
EndChar

StartChar: five
Encoding: 53 53 25
Width: 500
Flags: W
LayerCount: 2
Fore
SplineSet
357 194 m 0,0,1
 357 247 357 247 333.5 288 c 128,-1,2
 310 329 310 329 276.5 351.5 c 128,-1,3
 243 374 243 374 201.5 388.5 c 128,-1,4
 160 403 160 403 129.5 407.5 c 128,-1,5
 99 412 99 412 76 412 c 0,6,7
 64 412 64 412 64 420 c 0,8,9
 64 423 64 423 65 425 c 2,10,-1
 174 662 l 1,11,-1
 383 662 l 2,12,13
 399 662 399 662 408.5 667 c 128,-1,14
 418 672 418 672 429 688 c 1,15,-1
 438 681 l 1,16,-1
 400 592 l 2,17,18
 396 583 396 583 377 583 c 2,19,-1
 181 583 l 1,20,-1
 139 498 l 1,21,22
 285 472 285 472 356 413.5 c 128,-1,23
 427 355 427 355 427 242 c 0,24,25
 427 183 427 183 408.5 137 c 128,-1,26
 390 91 390 91 361.5 63 c 128,-1,27
 333 35 333 35 295.5 17 c 128,-1,28
 258 -1 258 -1 223.5 -7.5 c 128,-1,29
 189 -14 189 -14 154 -14 c 0,30,31
 98 -14 98 -14 65 2.5 c 128,-1,32
 32 19 32 19 32 48 c 0,33,34
 32 85 32 85 75 85 c 0,35,36
 103 85 103 85 147.5 54 c 128,-1,37
 192 23 192 23 218 23 c 0,38,39
 277 23 277 23 317 72.5 c 128,-1,40
 357 122 357 122 357 194 c 0,0,1
EndSplineSet
Validated: 1
EndChar

StartChar: six
Encoding: 54 54 26
Width: 500
Flags: W
LayerCount: 2
Fore
SplineSet
258 -14 m 0,0,1
 157 -14 157 -14 95.5 66.5 c 128,-1,2
 34 147 34 147 34 279 c 0,3,4
 34 320 34 320 42 363.5 c 128,-1,5
 50 407 50 407 77 462.5 c 128,-1,6
 104 518 104 518 147 562 c 128,-1,7
 190 606 190 606 267.5 640.5 c 128,-1,8
 345 675 345 675 446 684 c 1,9,-1
 448 668 l 1,10,11
 330 649 330 649 251 572.5 c 128,-1,12
 172 496 172 496 152 383 c 1,13,14
 199 411 199 411 223 419.5 c 128,-1,15
 247 428 247 428 280 428 c 0,16,17
 366 428 366 428 417 371.5 c 128,-1,18
 468 315 468 315 468 219 c 0,19,20
 468 116 468 116 409.5 51 c 128,-1,21
 351 -14 351 -14 258 -14 c 0,0,1
242 382 m 0,22,23
 174 382 174 382 150.5 352 c 128,-1,24
 127 322 127 322 127 263 c 0,25,26
 127 147 127 147 165 80.5 c 128,-1,27
 203 14 203 14 269 14 c 0,28,29
 322 14 322 14 350 58.5 c 128,-1,30
 378 103 378 103 378 185 c 0,31,32
 378 279 378 279 342.5 330.5 c 128,-1,33
 307 382 307 382 242 382 c 0,22,23
EndSplineSet
Validated: 1
EndChar

StartChar: seven
Encoding: 55 55 27
Width: 500
Flags: W
LayerCount: 2
Fore
SplineSet
449 662 m 1,0,-1
 449 646 l 1,1,-1
 237 -8 l 1,2,-1
 172 -8 l 1,3,-1
 370 588 l 1,4,-1
 153 588 l 2,5,6
 112 588 112 588 90.5 573 c 128,-1,7
 69 558 69 558 37 507 c 1,8,-1
 20 515 l 1,9,-1
 79 662 l 1,10,-1
 449 662 l 1,0,-1
EndSplineSet
Validated: 1
EndChar

StartChar: eight
Encoding: 56 56 28
Width: 500
Flags: W
LayerCount: 2
Fore
SplineSet
290 371 m 1,0,1
 380 304 380 304 412.5 258.5 c 128,-1,2
 445 213 445 213 445 155 c 0,3,4
 445 78 445 78 391.5 32 c 128,-1,5
 338 -14 338 -14 248 -14 c 0,6,7
 163 -14 163 -14 109.5 32 c 128,-1,8
 56 78 56 78 56 151 c 0,9,10
 56 202 56 202 80.5 236.5 c 128,-1,11
 105 271 105 271 186 332 c 1,12,13
 107 401 107 401 84.5 435 c 128,-1,14
 62 469 62 469 62 518 c 0,15,16
 62 586 62 586 116 631 c 128,-1,17
 170 676 170 676 252 676 c 0,18,19
 327 676 327 676 375.5 636 c 128,-1,20
 424 596 424 596 424 534 c 0,21,22
 424 483 424 483 394 447 c 128,-1,23
 364 411 364 411 290 371 c 1,0,1
212 312 m 1,24,25
 168 277 168 277 150 242 c 128,-1,26
 132 207 132 207 132 159 c 0,27,28
 132 94 132 94 167 54 c 128,-1,29
 202 14 202 14 259 14 c 0,30,31
 308 14 308 14 338.5 44.5 c 128,-1,32
 369 75 369 75 369 124 c 0,33,34
 369 140 369 140 365.5 154 c 128,-1,35
 362 168 362 168 358.5 178.5 c 128,-1,36
 355 189 355 189 344.5 202 c 128,-1,37
 334 215 334 215 327.5 222.5 c 128,-1,38
 321 230 321 230 304 244 c 128,-1,39
 287 258 287 258 278.5 264 c 128,-1,40
 270 270 270 270 246.5 287 c 128,-1,41
 223 304 223 304 212 312 c 1,24,25
261 389 m 1,42,43
 262 390 262 390 274.5 398.5 c 128,-1,44
 287 407 287 407 292.5 412 c 128,-1,45
 298 417 298 417 309.5 427.5 c 128,-1,46
 321 438 321 438 327 447.5 c 128,-1,47
 333 457 333 457 340.5 470.5 c 128,-1,48
 348 484 348 484 351.5 500.5 c 128,-1,49
 355 517 355 517 355 535 c 0,50,51
 355 587 355 587 325 617.5 c 128,-1,52
 295 648 295 648 244 648 c 0,53,54
 197 648 197 648 166.5 620 c 128,-1,55
 136 592 136 592 136 549 c 0,56,57
 136 507 136 507 165 470 c 128,-1,58
 194 433 194 433 261 389 c 1,42,43
EndSplineSet
Validated: 1
EndChar

StartChar: nine
Encoding: 57 57 29
Width: 500
Flags: W
LayerCount: 2
Fore
SplineSet
59 -22 m 1,0,-1
 56 -2 l 1,1,2
 170 18 170 18 249.5 95 c 128,-1,3
 329 172 329 172 360 294 c 1,4,5
 286 237 286 237 210 237 c 0,6,7
 129 237 129 237 79.5 293 c 128,-1,8
 30 349 30 349 30 440 c 0,9,10
 30 541 30 541 89.5 608.5 c 128,-1,11
 149 676 149 676 238 676 c 0,12,13
 335 676 335 676 397 597 c 128,-1,14
 459 518 459 518 459 394 c 0,15,16
 459 354 459 354 452 312 c 128,-1,17
 445 270 445 270 419.5 212.5 c 128,-1,18
 394 155 394 155 353 109.5 c 128,-1,19
 312 64 312 64 236 27 c 128,-1,20
 160 -10 160 -10 59 -22 c 1,0,-1
246 280 m 0,21,22
 265 280 265 280 289 285.5 c 128,-1,23
 313 291 313 291 337.5 309.5 c 128,-1,24
 362 328 362 328 362 355 c 2,25,-1
 362 394 l 2,26,27
 362 648 362 648 230 648 c 0,28,29
 199 648 199 648 177 631.5 c 128,-1,30
 155 615 155 615 143.5 588 c 128,-1,31
 132 561 132 561 127 533 c 128,-1,32
 122 505 122 505 122 474 c 0,33,34
 122 385 122 385 155.5 332.5 c 128,-1,35
 189 280 189 280 246 280 c 0,21,22
EndSplineSet
Validated: 1
EndChar

StartChar: less
Encoding: 60 60 32
Width: 564
Flags: W
LayerCount: 2
Fore
SplineSet
536 -10 m 1,0,-1
 28 220 l 1,1,-1
 28 286 l 1,2,-1
 536 516 l 1,3,-1
 536 444 l 1,4,-1
 116 253 l 1,5,-1
 536 62 l 1,6,-1
 536 -10 l 1,0,-1
EndSplineSet
Validated: 1
Substitution2: "'rtla' Right to Left Alternates lookup 0 subtable" greater
EndChar

StartChar: equal
Encoding: 61 61 33
Width: 564
Flags: W
LayerCount: 2
Fore
SplineSet
534 386 m 1,0,-1
 534 320 l 1,1,-1
 30 320 l 1,2,-1
 30 386 l 1,3,-1
 534 386 l 1,0,-1
534 186 m 1,4,-1
 534 120 l 1,5,-1
 30 120 l 1,6,-1
 30 186 l 1,7,-1
 534 186 l 1,4,-1
EndSplineSet
Validated: 1
EndChar

StartChar: question
Encoding: 63 63 35
Width: 444
Flags: W
LayerCount: 2
Fore
SplineSet
230 676 m 0,0,1
 306 676 306 676 360 633.5 c 128,-1,2
 414 591 414 591 414 521 c 0,3,4
 414 485 414 485 397 447.5 c 128,-1,5
 380 410 380 410 363 386.5 c 128,-1,6
 346 363 346 363 309 318 c 1,7,8
 259 254 259 254 244 164 c 1,9,-1
 227 164 l 1,10,11
 227 183 227 183 228.5 199 c 128,-1,12
 230 215 230 215 234 232 c 128,-1,13
 238 249 238 249 240 258 c 128,-1,14
 242 267 242 267 249.5 286.5 c 128,-1,15
 257 306 257 306 259 311.5 c 128,-1,16
 261 317 261 317 272 340.5 c 128,-1,17
 283 364 283 364 285 370 c 0,18,19
 322 455 322 455 322 526 c 0,20,21
 322 576 322 576 290.5 611 c 128,-1,22
 259 646 259 646 214 646 c 0,23,24
 177 646 177 646 148 627 c 128,-1,25
 119 608 119 608 119 584 c 0,26,27
 119 575 119 575 138 551 c 128,-1,28
 157 527 157 527 157 510 c 0,29,30
 157 492 157 492 145.5 480.5 c 128,-1,31
 134 469 134 469 116 469 c 0,32,33
 68 469 68 469 68 531 c 128,-1,34
 68 593 68 593 114.5 634.5 c 128,-1,35
 161 676 161 676 230 676 c 0,0,1
237 99 m 0,36,37
 259 99 259 99 275 82.5 c 128,-1,38
 291 66 291 66 291 44 c 0,39,40
 291 21 291 21 275.5 6.5 c 128,-1,41
 260 -8 260 -8 236 -8 c 0,42,43
 214 -8 214 -8 199 6.5 c 128,-1,44
 184 21 184 21 184 43 c 0,45,46
 184 67 184 67 199 83 c 128,-1,47
 214 99 214 99 237 99 c 0,36,37
EndSplineSet
Validated: 1
EndChar

StartChar: at
Encoding: 64 64 36
Width: 865
Flags: W
LayerCount: 2
Fore
SplineSet
452 645 m 0,0,1
 326 645 326 645 248 551.5 c 128,-1,2
 170 458 170 458 170 323 c 0,3,4
 170 193 170 193 252 109 c 128,-1,5
 334 25 334 25 462 25 c 0,6,7
 551 25 551 25 658 73 c 1,8,-1
 670 43 l 1,9,10
 597 10 597 10 551.5 -2 c 128,-1,11
 506 -14 506 -14 453 -14 c 0,12,13
 298 -14 298 -14 192 84 c 128,-1,14
 86 182 86 182 86 326 c 0,15,16
 86 472 86 472 192.5 574 c 128,-1,17
 299 676 299 676 451 676 c 0,18,19
 590 676 590 676 684.5 591.5 c 128,-1,20
 779 507 779 507 779 383 c 0,21,22
 779 286 779 286 724 214.5 c 128,-1,23
 669 143 669 143 595 143 c 0,24,25
 559 143 559 143 533.5 163 c 128,-1,26
 508 183 508 183 504 216 c 1,27,28
 450 144 450 144 379 144 c 0,29,30
 342 144 342 144 316.5 176.5 c 128,-1,31
 291 209 291 209 291 256 c 0,32,33
 291 346 291 346 347.5 427 c 128,-1,34
 404 508 404 508 487 508 c 0,35,36
 513 508 513 508 527.5 497.5 c 128,-1,37
 542 487 542 487 559 456 c 1,38,-1
 569 494 l 1,39,-1
 638 494 l 1,40,-1
 573 240 l 1,41,42
 571 228 571 228 571 222 c 0,43,44
 571 176 571 176 610 176 c 0,45,46
 659 176 659 176 699 237 c 128,-1,47
 739 298 739 298 739 373 c 0,48,49
 739 485 739 485 654.5 565 c 128,-1,50
 570 645 570 645 452 645 c 0,0,1
542 406 m 0,51,52
 542 437 542 437 529 450.5 c 128,-1,53
 516 464 516 464 498 464 c 0,54,55
 457 464 457 464 409.5 408.5 c 128,-1,56
 362 353 362 353 362 272 c 0,57,58
 362 233 362 233 378 210 c 128,-1,59
 394 187 394 187 422 187 c 0,60,61
 470 187 470 187 506 262 c 128,-1,62
 542 337 542 337 542 406 c 0,51,52
EndSplineSet
Validated: 1
EndChar

StartChar: A
Encoding: 65 65 37
Width: 721
Flags: W
LayerCount: 2
Fore
SplineSet
706 19 m 1,0,-1
 706 0 l 1,1,-1
 451 0 l 1,2,-1
 451 19 l 1,3,4
 491 20 491 20 506 27 c 128,-1,5
 521 34 521 34 521 53 c 0,6,7
 521 77 521 77 502 120 c 2,8,-1
 461 216 l 1,9,-1
 199 216 l 1,10,-1
 153 99 l 2,11,12
 145 78 145 78 145 60 c 0,13,14
 145 19 145 19 213 19 c 1,15,-1
 213 0 l 1,16,-1
 15 0 l 1,17,-1
 15 19 l 1,18,19
 52 21 52 21 72.5 47.5 c 128,-1,20
 93 74 93 74 139 183 c 2,21,-1
 347 674 l 1,22,-1
 367 674 l 1,23,-1
 616 106 l 2,24,25
 640 51 640 51 656 36 c 128,-1,26
 672 21 672 21 706 19 c 1,0,-1
216 257 m 1,27,-1
 447 257 l 1,28,-1
 331 532 l 1,29,-1
 216 257 l 1,27,-1
EndSplineSet
Validated: 1
EndChar

StartChar: B
Encoding: 66 66 38
Width: 631
Flags: W
LayerCount: 2
Fore
SplineSet
591 180 m 0,0,1
 591 150 591 150 580 121 c 128,-1,2
 569 92 569 92 543.5 63.5 c 128,-1,3
 518 35 518 35 468 17.5 c 128,-1,4
 418 0 418 0 349 0 c 2,5,-1
 15 0 l 1,6,-1
 15 19 l 1,7,8
 77 21 77 21 94 37 c 128,-1,9
 111 53 111 53 111 109 c 2,10,-1
 111 553 l 2,11,12
 111 608 111 608 94.5 623.5 c 128,-1,13
 78 639 78 639 15 643 c 1,14,-1
 15 662 l 1,15,-1
 295 662 l 2,16,17
 557 662 557 662 557 492 c 0,18,19
 557 459 557 459 545 433.5 c 128,-1,20
 533 408 533 408 520.5 394.5 c 128,-1,21
 508 381 508 381 482 369 c 128,-1,22
 456 357 456 357 449 355.5 c 128,-1,23
 442 354 442 354 420 348 c 1,24,25
 443 342 443 342 454.5 339 c 128,-1,26
 466 336 466 336 496.5 322 c 128,-1,27
 527 308 527 308 544 292 c 128,-1,28
 561 276 561 276 576 246.5 c 128,-1,29
 591 217 591 217 591 180 c 0,0,1
276 37 m 0,30,31
 321 37 321 37 354 43 c 128,-1,32
 387 49 387 49 416 63.5 c 128,-1,33
 445 78 445 78 460.5 107 c 128,-1,34
 476 136 476 136 476 179 c 0,35,36
 476 220 476 220 460.5 248.5 c 128,-1,37
 445 277 445 277 423 292 c 128,-1,38
 401 307 401 307 362 315 c 128,-1,39
 323 323 323 323 293 324.5 c 128,-1,40
 263 326 263 326 213 326 c 1,41,-1
 213 78 l 2,42,43
 213 54 213 54 226 45.5 c 128,-1,44
 239 37 239 37 276 37 c 0,30,31
213 366 m 1,45,-1
 308 366 l 2,46,47
 378 366 378 366 416.5 397.5 c 128,-1,48
 455 429 455 429 455 488 c 0,49,50
 455 555 455 555 410 590 c 128,-1,51
 365 625 365 625 279 625 c 2,52,-1
 235 625 l 2,53,54
 213 625 213 625 213 595 c 2,55,-1
 213 366 l 1,45,-1
EndSplineSet
Validated: 1
EndChar

StartChar: C
Encoding: 67 67 39
Width: 670
Flags: W
LayerCount: 2
Fore
SplineSet
35 325 m 0,0,1
 35 481 35 481 131 578.5 c 128,-1,2
 227 676 227 676 370 676 c 0,3,4
 434 676 434 676 490 659.5 c 128,-1,5
 546 643 546 643 555 643 c 0,6,7
 588 643 588 643 597 676 c 1,8,-1
 618 676 l 1,9,-1
 627 450 l 1,10,-1
 604 450 l 1,11,12
 549 636 549 636 389 636 c 0,13,14
 280 636 280 636 215.5 555 c 128,-1,15
 151 474 151 474 151 338 c 0,16,17
 151 251 151 251 173.5 187.5 c 128,-1,18
 196 124 196 124 234 91.5 c 128,-1,19
 272 59 272 59 312.5 44.5 c 128,-1,20
 353 30 353 30 399 30 c 0,21,22
 517 30 517 30 622 131 c 1,23,-1
 640 113 l 1,24,25
 594 52 594 52 523 19 c 128,-1,26
 452 -14 452 -14 367 -14 c 0,27,28
 219 -14 219 -14 127 79 c 128,-1,29
 35 172 35 172 35 325 c 0,0,1
EndSplineSet
Validated: 1
EndChar

StartChar: D
Encoding: 68 68 40
Width: 719
Flags: W
LayerCount: 2
Fore
SplineSet
684 334 m 0,0,1
 684 289 684 289 674 246 c 128,-1,2
 664 203 664 203 637 157 c 128,-1,3
 610 111 610 111 568 77.5 c 128,-1,4
 526 44 526 44 456.5 22 c 128,-1,5
 387 0 387 0 299 0 c 2,6,-1
 15 0 l 1,7,-1
 15 19 l 1,8,9
 72 23 72 23 87.5 39 c 128,-1,10
 103 55 103 55 103 109 c 2,11,-1
 103 553 l 2,12,13
 103 608 103 608 88.5 623 c 128,-1,14
 74 638 74 638 15 643 c 1,15,-1
 15 662 l 1,16,-1
 285 662 l 2,17,18
 376 662 376 662 447.5 641.5 c 128,-1,19
 519 621 519 621 562.5 588.5 c 128,-1,20
 606 556 606 556 634.5 511.5 c 128,-1,21
 663 467 663 467 673.5 424 c 128,-1,22
 684 381 684 381 684 334 c 0,0,1
575 327 m 0,23,24
 575 370 575 370 566.5 409.5 c 128,-1,25
 558 449 558 449 536 489.5 c 128,-1,26
 514 530 514 530 479 559 c 128,-1,27
 444 588 444 588 387 606.5 c 128,-1,28
 330 625 330 625 257 625 c 0,29,30
 226 625 226 625 215.5 617 c 128,-1,31
 205 609 205 609 205 586 c 2,32,-1
 205 78 l 2,33,34
 205 54 205 54 216 45.5 c 128,-1,35
 227 37 227 37 257 37 c 0,36,37
 575 37 575 37 575 327 c 0,23,24
EndSplineSet
Validated: 1
EndChar

StartChar: E
Encoding: 69 69 41
Width: 610
Flags: W
LayerCount: 2
Fore
SplineSet
204 80 m 2,0,1
 204 51 204 51 220.5 44 c 128,-1,2
 237 37 237 37 309 37 c 2,3,-1
 336 37 l 2,4,5
 443 37 443 37 489 62.5 c 128,-1,6
 535 88 535 88 572 169 c 1,7,-1
 600 169 l 1,8,-1
 555 0 l 1,9,-1
 15 0 l 1,10,-1
 15 19 l 1,11,12
 70 23 70 23 86 39.5 c 128,-1,13
 102 56 102 56 102 109 c 2,14,-1
 102 553 l 2,15,16
 102 606 102 606 86 622.5 c 128,-1,17
 70 639 70 639 15 643 c 1,18,-1
 15 662 l 1,19,-1
 546 662 l 1,20,-1
 549 519 l 1,21,-1
 524 519 l 1,22,23
 511 586 511 586 484 605 c 128,-1,24
 457 624 457 624 372 624 c 2,25,-1
 237 624 l 2,26,27
 217 624 217 624 210.5 617.5 c 128,-1,28
 204 611 204 611 204 590 c 2,29,-1
 204 368 l 1,30,-1
 358 368 l 2,31,32
 422 368 422 368 440.5 387.5 c 128,-1,33
 459 407 459 407 468 463 c 1,34,-1
 491 463 l 1,35,-1
 491 231 l 1,36,-1
 468 231 l 1,37,38
 458 293 458 293 439 310 c 128,-1,39
 420 327 420 327 358 327 c 2,40,-1
 204 327 l 1,41,-1
 204 80 l 2,0,1
EndSplineSet
Validated: 1
EndChar

StartChar: F
Encoding: 70 70 42
Width: 564
Flags: W
LayerCount: 2
Fore
SplineSet
482 231 m 1,0,-1
 459 231 l 1,1,2
 450 292 450 292 430 309.5 c 128,-1,3
 410 327 410 327 349 327 c 2,4,-1
 204 327 l 1,5,-1
 204 119 l 2,6,7
 204 58 204 58 220.5 40 c 128,-1,8
 237 22 237 22 295 19 c 1,9,-1
 295 0 l 1,10,-1
 15 0 l 1,11,-1
 15 19 l 1,12,13
 72 23 72 23 87 40.5 c 128,-1,14
 102 58 102 58 102 120 c 2,15,-1
 102 553 l 2,16,17
 102 606 102 606 86 622.5 c 128,-1,18
 70 639 70 639 15 643 c 1,19,-1
 15 662 l 1,20,-1
 546 662 l 1,21,-1
 549 519 l 1,22,-1
 524 519 l 1,23,24
 511 586 511 586 484 605 c 128,-1,25
 457 624 457 624 372 624 c 2,26,-1
 236 624 l 2,27,28
 216 624 216 624 210 617.5 c 128,-1,29
 204 611 204 611 204 590 c 2,30,-1
 204 368 l 1,31,-1
 349 368 l 2,32,33
 409 368 409 368 429.5 385.5 c 128,-1,34
 450 403 450 403 459 463 c 1,35,-1
 482 463 l 1,36,-1
 482 231 l 1,0,-1
EndSplineSet
Validated: 1
EndChar

StartChar: G
Encoding: 71 71 43
Width: 722
Flags: W
LayerCount: 2
Fore
SplineSet
395 636 m 0,0,1
 338 636 338 636 294 615.5 c 128,-1,2
 250 595 250 595 223 563 c 128,-1,3
 196 531 196 531 179 488 c 128,-1,4
 162 445 162 445 155.5 405.5 c 128,-1,5
 149 366 149 366 149 326 c 0,6,7
 149 187 149 187 219.5 106.5 c 128,-1,8
 290 26 290 26 412 26 c 0,9,10
 466 26 466 26 505.5 43.5 c 128,-1,11
 545 61 545 61 545 85 c 2,12,-1
 545 247 l 2,13,14
 545 303 545 303 529.5 317.5 c 128,-1,15
 514 332 514 332 457 336 c 1,16,-1
 457 354 l 1,17,-1
 712 354 l 1,18,-1
 712 336 l 1,19,20
 668 332 668 332 655 317.5 c 128,-1,21
 642 303 642 303 642 259 c 2,22,-1
 642 56 l 1,23,24
 612 30 612 30 533.5 8 c 128,-1,25
 455 -14 455 -14 391 -14 c 0,26,27
 346 -14 346 -14 301 -5 c 128,-1,28
 256 4 256 4 207 28 c 128,-1,29
 158 52 158 52 121 88.5 c 128,-1,30
 84 125 84 125 59.5 186 c 128,-1,31
 35 247 35 247 35 325 c 0,32,33
 35 478 35 478 131.5 577 c 128,-1,34
 228 676 228 676 378 676 c 0,35,36
 436 676 436 676 492.5 659.5 c 128,-1,37
 549 643 549 643 558 643 c 0,38,39
 574 643 574 643 586 652.5 c 128,-1,40
 598 662 598 662 603 676 c 1,41,-1
 625 676 l 1,42,-1
 633 465 l 1,43,-1
 610 465 l 1,44,45
 578 543 578 543 530 589.5 c 128,-1,46
 482 636 482 636 395 636 c 0,0,1
EndSplineSet
Validated: 1
EndChar

StartChar: H
Encoding: 72 72 44
Width: 714
Flags: W
LayerCount: 2
Fore
SplineSet
205 359 m 1,0,-1
 508 359 l 1,1,-1
 508 553 l 2,2,3
 508 607 508 607 493 622.5 c 128,-1,4
 478 638 478 638 420 643 c 1,5,-1
 420 662 l 1,6,-1
 698 662 l 1,7,-1
 698 643 l 1,8,9
 640 638 640 638 625 622.5 c 128,-1,10
 610 607 610 607 610 553 c 2,11,-1
 610 109 l 2,12,13
 610 56 610 56 626 40 c 128,-1,14
 642 24 642 24 698 19 c 1,15,-1
 698 0 l 1,16,-1
 420 0 l 1,17,-1
 420 19 l 1,18,19
 478 23 478 23 493 40 c 128,-1,20
 508 57 508 57 508 120 c 2,21,-1
 508 315 l 1,22,-1
 205 315 l 1,23,-1
 205 109 l 2,24,25
 205 56 205 56 221 40 c 128,-1,26
 237 24 237 24 293 19 c 1,27,-1
 293 0 l 1,28,-1
 15 0 l 1,29,-1
 15 19 l 1,30,31
 73 23 73 23 88 40 c 128,-1,32
 103 57 103 57 103 120 c 2,33,-1
 103 553 l 2,34,35
 103 607 103 607 88 622.5 c 128,-1,36
 73 638 73 638 15 643 c 1,37,-1
 15 662 l 1,38,-1
 293 662 l 1,39,-1
 293 643 l 1,40,41
 235 638 235 638 220 622.5 c 128,-1,42
 205 607 205 607 205 553 c 2,43,-1
 205 359 l 1,0,-1
EndSplineSet
Validated: 1
EndChar

StartChar: I
Encoding: 73 73 45
Width: 327
Flags: W
LayerCount: 2
Fore
SplineSet
112 109 m 2,0,-1
 112 553 l 2,1,2
 112 608 112 608 95.5 623.5 c 128,-1,3
 79 639 79 639 15 643 c 1,4,-1
 15 662 l 1,5,-1
 312 662 l 1,6,-1
 312 643 l 1,7,8
 249 640 249 640 231.5 624 c 128,-1,9
 214 608 214 608 214 553 c 2,10,-1
 214 109 l 2,11,12
 214 54 214 54 232 37.5 c 128,-1,13
 250 21 250 21 312 19 c 1,14,-1
 312 0 l 1,15,-1
 15 0 l 1,16,-1
 15 19 l 1,17,18
 78 21 78 21 95 37 c 128,-1,19
 112 53 112 53 112 109 c 2,0,-1
EndSplineSet
Validated: 1
EndChar

StartChar: J
Encoding: 74 74 46
Width: 385
Flags: W
LayerCount: 2
Fore
SplineSet
59 108 m 0,0,1
 80 108 80 108 92 95 c 128,-1,2
 104 82 104 82 108 66 c 128,-1,3
 112 50 112 50 119 37 c 128,-1,4
 126 24 126 24 138 24 c 0,5,6
 176 24 176 24 176 90 c 2,7,-1
 176 553 l 2,8,9
 176 608 176 608 160 623.5 c 128,-1,10
 144 639 144 639 83 643 c 1,11,-1
 83 662 l 1,12,-1
 370 662 l 1,13,-1
 370 643 l 1,14,15
 309 639 309 639 293.5 623.5 c 128,-1,16
 278 608 278 608 278 553 c 2,17,-1
 278 183 l 2,18,19
 278 89 278 89 234 37.5 c 128,-1,20
 190 -14 190 -14 109 -14 c 0,21,22
 66 -14 66 -14 38 6 c 128,-1,23
 10 26 10 26 10 58 c 0,24,25
 10 78 10 78 24.5 93 c 128,-1,26
 39 108 39 108 59 108 c 0,0,1
EndSplineSet
Validated: 1
EndChar

StartChar: K
Encoding: 75 75 47
Width: 709
Flags: W
LayerCount: 2
Fore
SplineSet
394 643 m 1,0,-1
 394 662 l 1,1,-1
 656 662 l 1,2,-1
 656 643 l 1,3,4
 604 639 604 639 578.5 626.5 c 128,-1,5
 553 614 553 614 504 565 c 2,6,-1
 314 377 l 1,7,-1
 547 127 l 2,8,9
 615 54 615 54 640 37 c 128,-1,10
 665 20 665 20 704 19 c 1,11,-1
 704 0 l 1,12,-1
 399 0 l 1,13,-1
 399 19 l 1,14,15
 402 19 402 19 411 19.5 c 128,-1,16
 420 20 420 20 425 20.5 c 128,-1,17
 430 21 430 21 437.5 22 c 128,-1,18
 445 23 445 23 450 24.5 c 128,-1,19
 455 26 455 26 459.5 28.5 c 128,-1,20
 464 31 464 31 466.5 34.5 c 128,-1,21
 469 38 469 38 469 42 c 0,22,23
 469 60 469 60 432.5 108 c 128,-1,24
 396 156 396 156 339 212 c 2,25,-1
 233 317 l 1,26,-1
 207 296 l 1,27,-1
 207 109 l 2,28,29
 207 54 207 54 222.5 38.5 c 128,-1,30
 238 23 238 23 297 19 c 1,31,-1
 297 0 l 1,32,-1
 15 0 l 1,33,-1
 15 19 l 1,34,35
 74 23 74 23 89.5 40.5 c 128,-1,36
 105 58 105 58 105 120 c 2,37,-1
 105 553 l 2,38,39
 105 606 105 606 89 622.5 c 128,-1,40
 73 639 73 639 15 643 c 1,41,-1
 15 662 l 1,42,-1
 299 662 l 1,43,-1
 299 643 l 1,44,45
 238 639 238 639 222.5 623.5 c 128,-1,46
 207 608 207 608 207 553 c 2,47,-1
 207 348 l 1,48,-1
 384 509 l 2,49,50
 462 581 462 581 462 612 c 0,51,52
 462 627 462 627 452.5 633.5 c 128,-1,53
 443 640 443 640 420 642 c 1,54,55
 406 642 406 642 394 643 c 1,0,-1
EndSplineSet
Validated: 1
EndChar

StartChar: L
Encoding: 76 76 48
Width: 611
Flags: W
LayerCount: 2
Fore
SplineSet
357 39 m 2,0,1
 383 39 383 39 405.5 42 c 128,-1,2
 428 45 428 45 445 48.5 c 128,-1,3
 462 52 462 52 478 60 c 128,-1,4
 494 68 494 68 504 73 c 128,-1,5
 514 78 514 78 524.5 89.5 c 128,-1,6
 535 101 535 101 540.5 106 c 128,-1,7
 546 111 546 111 553 124.5 c 128,-1,8
 560 138 560 138 562 142 c 128,-1,9
 564 146 564 146 570 159.5 c 128,-1,10
 576 173 576 173 576 174 c 1,11,-1
 601 174 l 1,12,-1
 553 0 l 1,13,-1
 15 0 l 1,14,-1
 15 19 l 1,15,16
 70 23 70 23 86 39.5 c 128,-1,17
 102 56 102 56 102 109 c 2,18,-1
 102 553 l 2,19,20
 102 606 102 606 86 622.5 c 128,-1,21
 70 639 70 639 15 643 c 1,22,-1
 15 662 l 1,23,-1
 297 662 l 1,24,-1
 297 643 l 1,25,26
 238 639 238 639 221 622.5 c 128,-1,27
 204 606 204 606 204 553 c 2,28,-1
 204 80 l 2,29,30
 204 54 204 54 219.5 46.5 c 128,-1,31
 235 39 235 39 290 39 c 2,32,-1
 357 39 l 2,0,1
EndSplineSet
Validated: 1
EndChar

StartChar: M
Encoding: 77 77 49
Width: 881
Flags: W
LayerCount: 2
Fore
SplineSet
677 573 m 1,0,-1
 421 0 l 1,1,-1
 407 0 l 1,2,-1
 156 550 l 1,3,-1
 156 147 l 2,4,5
 156 71 156 71 174 46.5 c 128,-1,6
 192 22 192 22 250 19 c 1,7,-1
 250 0 l 1,8,-1
 15 0 l 1,9,-1
 15 19 l 1,10,11
 77 23 77 23 94.5 46.5 c 128,-1,12
 112 70 112 70 112 147 c 2,13,-1
 112 553 l 2,14,15
 112 608 112 608 95.5 623.5 c 128,-1,16
 79 639 79 639 17 643 c 1,17,-1
 17 662 l 1,18,-1
 215 662 l 1,19,-1
 446 157 l 1,20,-1
 667 662 l 1,21,-1
 866 662 l 1,22,-1
 866 643 l 1,23,24
 810 638 810 638 794.5 622 c 128,-1,25
 779 606 779 606 779 553 c 2,26,-1
 779 109 l 2,27,28
 779 56 779 56 795 39.5 c 128,-1,29
 811 23 811 23 866 19 c 1,30,-1
 866 0 l 1,31,-1
 586 0 l 1,32,-1
 586 19 l 1,33,34
 645 23 645 23 661 40.5 c 128,-1,35
 677 58 677 58 677 120 c 2,36,-1
 677 573 l 1,0,-1
EndSplineSet
Validated: 1
EndChar

StartChar: N
Encoding: 78 78 50
Width: 725
Flags: W
LayerCount: 2
Fore
SplineSet
710 643 m 1,0,1
 682 640 682 640 668.5 636.5 c 128,-1,2
 655 633 655 633 640.5 621 c 128,-1,3
 626 609 626 609 620.5 583.5 c 128,-1,4
 615 558 615 558 615 515 c 2,5,-1
 615 -11 l 1,6,-1
 598 -11 l 1,7,-1
 156 539 l 1,8,-1
 156 147 l 2,9,10
 156 71 156 71 174 46.5 c 128,-1,11
 192 22 192 22 250 19 c 1,12,-1
 250 0 l 1,13,-1
 15 0 l 1,14,-1
 15 19 l 1,15,16
 77 23 77 23 94.5 46.5 c 128,-1,17
 112 70 112 70 112 147 c 2,18,-1
 112 588 l 1,19,20
 82 623 82 623 64.5 633 c 128,-1,21
 47 643 47 643 15 643 c 1,22,-1
 15 662 l 1,23,-1
 186 662 l 1,24,-1
 571 178 l 1,25,-1
 571 515 l 2,26,27
 571 591 571 591 552.5 614.5 c 128,-1,28
 534 638 534 638 475 643 c 1,29,-1
 475 662 l 1,30,-1
 710 662 l 1,31,-1
 710 643 l 1,0,1
EndSplineSet
Validated: 1
EndChar

StartChar: O
Encoding: 79 79 51
Width: 724
Flags: W
LayerCount: 2
Fore
SplineSet
356 -14 m 0,0,1
 221 -14 221 -14 128 81.5 c 128,-1,2
 35 177 35 177 35 331 c 0,3,4
 35 482 35 482 127 579 c 128,-1,5
 219 676 219 676 362 676 c 0,6,7
 506 676 506 676 597.5 579.5 c 128,-1,8
 689 483 689 483 689 327 c 0,9,10
 689 176 689 176 596.5 81 c 128,-1,11
 504 -14 504 -14 356 -14 c 0,0,1
575 328 m 0,12,13
 575 400 575 400 561 456 c 128,-1,14
 547 512 547 512 525.5 546 c 128,-1,15
 504 580 504 580 475 602 c 128,-1,16
 446 624 446 624 418.5 632 c 128,-1,17
 391 640 391 640 362 640 c 0,18,19
 313 640 313 640 274 619 c 128,-1,20
 235 598 235 598 212.5 566.5 c 128,-1,21
 190 535 190 535 175 492 c 128,-1,22
 160 449 160 449 154.5 409.5 c 128,-1,23
 149 370 149 370 149 329 c 0,24,25
 149 278 149 278 159 229 c 128,-1,26
 169 180 169 180 191 131 c 128,-1,27
 213 82 213 82 256.5 52 c 128,-1,28
 300 22 300 22 360 22 c 0,29,30
 421 22 421 22 465.5 52 c 128,-1,31
 510 82 510 82 532.5 131 c 128,-1,32
 555 180 555 180 565 229 c 128,-1,33
 575 278 575 278 575 328 c 0,12,13
EndSplineSet
Validated: 1
EndChar

StartChar: P
Encoding: 80 80 52
Width: 576
Flags: W
LayerCount: 2
Fore
SplineSet
541 481 m 0,0,1
 541 455 541 455 535 431 c 128,-1,2
 529 407 529 407 511.5 380 c 128,-1,3
 494 353 494 353 465 333.5 c 128,-1,4
 436 314 436 314 386 301 c 128,-1,5
 336 288 336 288 270 288 c 0,6,7
 240 288 240 288 201 291 c 1,8,-1
 201 109 l 2,9,10
 201 54 201 54 218.5 37.5 c 128,-1,11
 236 21 236 21 295 19 c 1,12,-1
 295 0 l 1,13,-1
 15 0 l 1,14,-1
 15 19 l 1,15,16
 72 24 72 24 85.5 40.5 c 128,-1,17
 99 57 99 57 99 120 c 2,18,-1
 99 553 l 2,19,20
 99 607 99 607 85 622 c 128,-1,21
 71 637 71 637 15 643 c 1,22,-1
 15 662 l 1,23,-1
 279 662 l 2,24,25
 324 662 324 662 366 653.5 c 128,-1,26
 408 645 408 645 449.5 626 c 128,-1,27
 491 607 491 607 516 570 c 128,-1,28
 541 533 541 533 541 481 c 0,0,1
201 591 m 2,29,-1
 201 331 l 1,30,31
 236 328 236 328 258 328 c 0,32,33
 432 328 432 328 432 475 c 0,34,35
 432 552 432 552 384 588.5 c 128,-1,36
 336 625 336 625 235 625 c 0,37,38
 215 625 215 625 208 618 c 128,-1,39
 201 611 201 611 201 591 c 2,29,-1
EndSplineSet
Validated: 1
EndChar

StartChar: Q
Encoding: 81 81 53
Width: 723
Flags: W
LayerCount: 2
Fore
SplineSet
689 331 m 0,0,1
 689 276 689 276 677 228 c 128,-1,2
 665 180 665 180 646.5 147.5 c 128,-1,3
 628 115 628 115 602.5 88 c 128,-1,4
 577 61 577 61 553 45 c 128,-1,5
 529 29 529 29 502 17 c 128,-1,6
 475 5 475 5 458.5 0.5 c 128,-1,7
 442 -4 442 -4 427 -7 c 1,8,9
 488 -86 488 -86 552 -121.5 c 128,-1,10
 616 -157 616 -157 702 -159 c 1,11,-1
 702 -177 l 1,12,13
 686 -178 686 -178 661 -178 c 0,14,15
 623 -178 623 -178 587.5 -174.5 c 128,-1,16
 552 -171 552 -171 524.5 -166.5 c 128,-1,17
 497 -162 497 -162 470 -151.5 c 128,-1,18
 443 -141 443 -141 425 -134.5 c 128,-1,19
 407 -128 407 -128 385.5 -113 c 128,-1,20
 364 -98 364 -98 353.5 -91 c 128,-1,21
 343 -84 343 -84 326 -67 c 128,-1,22
 309 -50 309 -50 304 -44.5 c 128,-1,23
 299 -39 299 -39 283.5 -21 c 128,-1,24
 268 -3 268 -3 266 -1 c 1,25,26
 166 33 166 33 100.5 113 c 128,-1,27
 35 193 35 193 35 329 c 0,28,29
 35 481 35 481 127 578.5 c 128,-1,30
 219 676 219 676 362 676 c 128,-1,31
 505 676 505 676 597 579 c 128,-1,32
 689 482 689 482 689 331 c 0,0,1
575 333 m 0,33,34
 575 473 575 473 517.5 556.5 c 128,-1,35
 460 640 460 640 365 640 c 0,36,37
 315 640 315 640 276 619.5 c 128,-1,38
 237 599 237 599 214 567.5 c 128,-1,39
 191 536 191 536 175.5 494 c 128,-1,40
 160 452 160 452 154.5 413.5 c 128,-1,41
 149 375 149 375 149 335 c 0,42,43
 149 247 149 247 169 182.5 c 128,-1,44
 189 118 189 118 222 85 c 128,-1,45
 255 52 255 52 289.5 37 c 128,-1,46
 324 22 324 22 362 22 c 0,47,48
 411 22 411 22 449.5 42.5 c 128,-1,49
 488 63 488 63 511 95 c 128,-1,50
 534 127 534 127 549 169.5 c 128,-1,51
 564 212 564 212 569.5 252 c 128,-1,52
 575 292 575 292 575 333 c 0,33,34
EndSplineSet
Validated: 1
EndChar

StartChar: R
Encoding: 82 82 54
Width: 779
Flags: W
LayerCount: 2
Fore
SplineSet
373 374 m 1,0,1
 389 381 389 381 417.5 421.5 c 128,-1,2
 446 462 446 462 462 497 c 0,3,4
 467 512 467 512 486 525 c 0,5,6
 498 535 498 535 484 549 c 1,7,8
 480 549 480 549 442 536 c 0,9,10
 419 528 419 528 408.5 529 c 128,-1,11
 398 530 398 530 382.5 535.5 c 128,-1,12
 367 541 367 541 358 541 c 0,13,14
 348 539 348 539 342.5 534 c 128,-1,15
 337 529 337 529 332.5 520 c 128,-1,16
 328 511 328 511 324 508 c 0,17,18
 297 479 297 479 294 420 c 0,19,20
 293 387 293 387 299 380 c 0,21,22
 311 366 311 366 337 366 c 128,-1,23
 363 366 363 366 373 374 c 1,0,1
83 7 m 1,24,25
 71 15 71 15 69 30 c 128,-1,26
 67 45 67 45 77 54 c 0,27,28
 136 93 136 93 175.5 173.5 c 128,-1,29
 215 254 215 254 231 340 c 1,30,31
 253 520 253 520 144 559 c 0,32,33
 112 569 112 569 80 548 c 128,-1,34
 48 527 48 527 44 506 c 0,35,36
 43 489 43 489 33.5 483 c 128,-1,37
 24 477 24 477 15 485 c 0,38,39
 -2 504 -2 504 19 541 c 1,40,41
 39 584 39 584 79.5 619 c 128,-1,42
 120 654 120 654 164 658 c 0,43,44
 198 660 198 660 217 647 c 0,45,46
 243 631 243 631 259 596 c 128,-1,47
 275 561 275 561 296 546 c 1,48,49
 315 539 315 539 321 557 c 0,50,51
 330 585 330 585 372 645 c 0,52,53
 383 665 383 665 396 663.5 c 128,-1,54
 409 662 409 662 416 641 c 1,55,56
 453 595 453 595 491.5 601.5 c 128,-1,57
 530 608 530 608 557 653 c 1,58,59
 582 686 582 686 606 655 c 0,60,61
 616 640 616 640 604 627 c 0,62,63
 590 612 590 612 565.5 580 c 128,-1,64
 541 548 541 548 531 536 c 0,65,66
 510 512 510 512 481 459.5 c 128,-1,67
 452 407 452 407 449 403 c 0,68,69
 436 386 436 386 440 376 c 0,70,71
 445 361 445 361 480 351 c 0,72,73
 510 342 510 342 525 322 c 1,74,75
 548 297 548 297 563 327 c 0,76,77
 566 333 566 333 573.5 345 c 128,-1,78
 581 357 581 357 585.5 364.5 c 128,-1,79
 590 372 590 372 594 382.5 c 128,-1,80
 598 393 598 393 598 402 c 0,81,82
 600 421 600 421 585 432 c 0,83,84
 566 445 566 445 563 472.5 c 128,-1,85
 560 500 560 500 577 511 c 0,86,87
 591 519 591 519 610 513 c 0,88,89
 632 505 632 505 643 480 c 0,90,91
 654 456 654 456 653 426 c 0,92,93
 650 366 650 366 609 318 c 0,94,95
 571 276 571 276 566 261 c 0,96,97
 563 253 563 253 578 224 c 0,98,99
 583 215 583 215 592.5 195.5 c 128,-1,100
 602 176 602 176 610 161 c 0,101,102
 638 119 638 119 666.5 112.5 c 128,-1,103
 695 106 695 106 717 136 c 0,104,105
 726 145 726 145 732 170.5 c 128,-1,106
 738 196 738 196 750 202 c 0,107,108
 767 211 767 211 779 193 c 1,109,110
 791 158 791 158 749 78 c 1,111,112
 722 38 722 38 679.5 21.5 c 128,-1,113
 637 5 637 5 595 27 c 1,114,115
 565 51 565 51 544 76 c 128,-1,116
 523 101 523 101 514.5 118 c 128,-1,117
 506 135 506 135 501 149 c 128,-1,118
 496 163 496 163 493 169.5 c 128,-1,119
 490 176 490 176 485 175 c 0,120,121
 469 173 469 173 457 150 c 1,122,123
 431 112 431 112 470 94 c 0,124,125
 494 82 494 82 499 62.5 c 128,-1,126
 504 43 504 43 489 27 c 0,127,128
 454 -5 454 -5 411 47 c 0,129,130
 396 64 396 64 398.5 98 c 128,-1,131
 401 132 401 132 413 149 c 1,132,133
 420 163 420 163 437 183 c 128,-1,134
 454 203 454 203 460 219 c 0,135,136
 475 258 475 258 423 318 c 0,137,138
 408 335 408 335 360 341 c 128,-1,139
 312 347 312 347 290 332 c 0,140,141
 281 325 281 325 273 307.5 c 128,-1,142
 265 290 265 290 257.5 266.5 c 128,-1,143
 250 243 250 243 247 236 c 0,144,145
 243 226 243 226 231.5 206 c 128,-1,146
 220 186 220 186 211 169 c 128,-1,147
 202 152 202 152 201 148 c 0,148,149
 200 136 200 136 205 131 c 0,150,151
 218 124 218 124 224.5 126 c 128,-1,152
 231 128 231 128 251 134 c 128,-1,153
 271 140 271 140 292 139 c 1,154,155
 337 131 337 131 342 148 c 0,156,157
 357 204 357 204 379 211 c 1,158,159
 408 215 408 215 401 190 c 0,160,161
 395 171 395 171 376 149 c 0,162,163
 346 110 346 110 316 50 c 0,164,165
 316 49 316 49 311.5 41 c 128,-1,166
 307 33 307 33 305 29 c 0,167,168
 294 8 294 8 275 12 c 0,169,170
 266 14 266 14 263 17 c 128,-1,171
 260 20 260 20 259 25.5 c 128,-1,172
 258 31 258 31 255 34 c 0,173,174
 254 53 254 53 245 58.5 c 128,-1,175
 236 64 236 64 213 67 c 0,176,177
 154 76 154 76 126 23 c 1,178,179
 114 -5 114 -5 83 7 c 1,24,25
EndSplineSet
EndChar

StartChar: S
Encoding: 83 83 55
Width: 529
Flags: W
LayerCount: 2
Fore
SplineSet
378 135 m 0,0,1
 378 182 378 182 345 218.5 c 128,-1,2
 312 255 312 255 265 281 c 128,-1,3
 218 307 218 307 171.5 334.5 c 128,-1,4
 125 362 125 362 92 405 c 128,-1,5
 59 448 59 448 59 505 c 0,6,7
 59 581 59 581 110.5 628.5 c 128,-1,8
 162 676 162 676 232 676 c 0,9,10
 274 676 274 676 323 659 c 128,-1,11
 372 642 372 642 382 642 c 0,12,13
 408 642 408 642 414 676 c 1,14,-1
 435 676 l 1,15,-1
 457 463 l 1,16,-1
 432 463 l 1,17,18
 408 551 408 551 358.5 593 c 128,-1,19
 309 635 309 635 249 635 c 0,20,21
 203 635 203 635 174 609 c 128,-1,22
 145 583 145 583 145 542 c 0,23,24
 145 502 145 502 179 466 c 128,-1,25
 213 430 213 430 292 386 c 1,26,27
 391 333 391 333 435 281.5 c 128,-1,28
 479 230 479 230 479 168 c 0,29,30
 479 91 479 91 420 38.5 c 128,-1,31
 361 -14 361 -14 275 -14 c 0,32,33
 225 -14 225 -14 173.5 3 c 128,-1,34
 122 20 122 20 110 20 c 0,35,36
 99 20 99 20 91 10.5 c 128,-1,37
 83 1 83 1 82 -13 c 1,38,-1
 60 -13 l 1,39,-1
 30 199 l 1,40,-1
 53 199 l 1,41,42
 90 108 90 108 139 65 c 128,-1,43
 188 22 188 22 255 22 c 0,44,45
 310 22 310 22 344 53.5 c 128,-1,46
 378 85 378 85 378 135 c 0,0,1
EndSplineSet
Validated: 1
EndChar

StartChar: T
Encoding: 84 84 56
Width: 606
Flags: W
LayerCount: 2
Fore
SplineSet
252 620 m 1,0,-1
 198 620 l 2,1,2
 114 620 114 620 85.5 597 c 128,-1,3
 57 574 57 574 39 492 c 1,4,-1
 15 492 l 1,5,-1
 21 662 l 1,6,-1
 585 662 l 1,7,-1
 591 492 l 1,8,-1
 567 492 l 1,9,10
 550 575 550 575 521.5 597.5 c 128,-1,11
 493 620 493 620 408 620 c 2,12,-1
 354 620 l 1,13,-1
 354 109 l 2,14,15
 354 54 354 54 371 38 c 128,-1,16
 388 22 388 22 450 19 c 1,17,-1
 450 0 l 1,18,-1
 158 0 l 1,19,-1
 158 19 l 1,20,21
 220 23 220 23 236 39.5 c 128,-1,22
 252 56 252 56 252 120 c 2,23,-1
 252 620 l 1,0,-1
EndSplineSet
Validated: 1
EndChar

StartChar: U
Encoding: 85 85 57
Width: 721
Flags: W
LayerCount: 2
Fore
SplineSet
207 233 m 2,0,1
 207 133 207 133 244.5 81.5 c 128,-1,2
 282 30 282 30 379 30 c 0,3,4
 435 30 435 30 480 51.5 c 128,-1,5
 525 73 525 73 545 109 c 0,6,7
 568 152 568 152 568 245 c 2,8,-1
 568 515 l 2,9,10
 568 590 568 590 550 614.5 c 128,-1,11
 532 639 532 639 474 643 c 1,12,-1
 474 662 l 1,13,-1
 706 662 l 1,14,-1
 706 643 l 1,15,16
 644 635 644 635 628 613 c 128,-1,17
 612 591 612 591 612 515 c 2,18,-1
 612 254 l 2,19,20
 612 195 612 195 601.5 151 c 128,-1,21
 591 107 591 107 564.5 67.5 c 128,-1,22
 538 28 538 28 485.5 7 c 128,-1,23
 433 -14 433 -14 356 -14 c 0,24,25
 228 -14 228 -14 166.5 48.5 c 128,-1,26
 105 111 105 111 105 241 c 2,27,-1
 105 553 l 2,28,29
 105 608 105 608 89.5 623 c 128,-1,30
 74 638 74 638 15 643 c 1,31,-1
 15 662 l 1,32,-1
 298 662 l 1,33,-1
 298 643 l 1,34,35
 238 638 238 638 222.5 622.5 c 128,-1,36
 207 607 207 607 207 553 c 2,37,-1
 207 233 l 2,0,1
EndSplineSet
Validated: 1
EndChar

StartChar: V
Encoding: 86 86 58
Width: 768
Flags: W
LayerCount: 2
Fore
SplineSet
229 36 m 5,0,1
 236 20 236 20 260.5 4 c 132,-1,2
 285 -12 285 -12 314 -10 c 4,3,4
 334 -9 334 -9 343 -4.5 c 132,-1,5
 352 0 352 0 358 13 c 4,6,-1
 358 13 l 5,7,8
 359 32 359 32 351 44 c 132,-1,9
 343 56 343 56 333 60 c 132,-1,10
 323 64 323 64 305 69.5 c 132,-1,11
 287 75 287 75 278 79 c 5,12,13
 260 91 260 91 258 115 c 132,-1,14
 256 139 256 139 266.5 166.5 c 132,-1,15
 277 194 277 194 288 215.5 c 132,-1,16
 299 237 299 237 311 254 c 4,17,18
 313 257 313 257 315 260 c 4,19,-1
 315 260 l 5,20,21
 322 274 322 274 339.5 286 c 132,-1,22
 357 298 357 298 361 292 c 4,23,24
 390 254 390 254 431 164 c 132,-1,25
 472 74 472 74 483 62 c 5,26,27
 484 58 484 58 484 57 c 132,-1,28
 484 56 484 56 480 52 c 132,-1,29
 476 48 476 48 474 45 c 4,30,31
 457 21 457 21 481 5 c 4,32,33
 497 -6 497 -6 516 -1 c 4,34,-1
 516 -1 l 5,35,36
 535 12 535 12 547.5 42 c 132,-1,37
 560 72 560 72 568 79 c 5,38,39
 611 106 611 106 654 165.5 c 132,-1,40
 697 225 697 225 725 297 c 132,-1,41
 753 369 753 369 757.5 442 c 132,-1,42
 762 515 762 515 729 569 c 4,43,44
 703 610 703 610 655 632 c 4,45,46
 652 634 652 634 638 648 c 132,-1,47
 624 662 624 662 618 660 c 4,48,-1
 618 660 l 6,49,50
 607 656 607 656 596.5 622 c 132,-1,51
 586 588 586 588 582 582 c 4,52,-1
 582 582 l 5,53,54
 541 486 541 486 487 431 c 4,55,-1
 487 431 l 5,56,57
 487 425 487 425 473 413 c 132,-1,58
 459 401 459 401 453 404 c 4,59,60
 443 409 443 409 446 416 c 4,61,62
 448 420 448 420 455 425 c 4,63,-1
 455 425 l 5,64,65
 491 476 491 476 490.5 548.5 c 132,-1,66
 490 621 490 621 452 648 c 4,67,68
 441 656 441 656 427 658 c 4,69,70
 411 660 411 660 395 647.5 c 132,-1,71
 379 635 379 635 377 618 c 4,72,73
 375 605 375 605 382 592 c 4,74,-1
 382 592 l 5,75,76
 403 564 403 564 423 553 c 4,77,78
 460 531 460 531 442 492 c 5,79,80
 425 453 425 453 418 441 c 4,81,82
 409 425 409 425 396 431 c 4,83,84
 389 435 389 435 382 445.5 c 132,-1,85
 375 456 375 456 364 473.5 c 132,-1,86
 353 491 353 491 348 499 c 4,87,88
 302 563 302 563 254 610 c 4,89,90
 212 651 212 651 173 649 c 4,91,92
 136 647 136 647 86 599.5 c 132,-1,93
 36 552 36 552 10 503 c 4,94,95
 4 491 4 491 13.5 479.5 c 132,-1,96
 23 468 23 468 33 465 c 4,97,98
 48 461 48 461 65 495 c 4,99,100
 87 536 87 536 112 544 c 4,101,102
 143 552 143 552 188 519 c 132,-1,103
 233 486 233 486 258 446 c 4,104,105
 263 438 263 438 293 402 c 132,-1,106
 323 366 323 366 329 341 c 5,107,108
 329 327 329 327 313 308.5 c 132,-1,109
 297 290 297 290 274 265.5 c 132,-1,110
 251 241 251 241 241 220 c 4,111,112
 213 161 213 161 211.5 115.5 c 132,-1,113
 210 70 210 70 229 36 c 5,0,1
383 593 m 5,114,115
 376 605 376 605 378 617 c 4,116,117
 380 634 380 634 395.5 646.5 c 132,-1,118
 411 659 411 659 427 657 c 4,119,120
 440 655 440 655 451 647 c 4,121,122
 489 621 489 621 489.5 549 c 132,-1,123
 490 477 490 477 454 426 c 5,124,125
 447 421 447 421 445 416 c 4,126,127
 441 408 441 408 452 403 c 4,128,129
 459 400 459 400 473.5 411.5 c 132,-1,130
 488 423 488 423 488 430 c 5,131,132
 542 485 542 485 583 582 c 5,133,134
 588 589 588 589 598 622 c 132,-1,135
 608 655 608 655 618 659 c 4,136,137
 623 660 623 660 637 646.5 c 132,-1,138
 651 633 651 633 655 631 c 4,139,140
 702 609 702 609 728 568 c 4,141,142
 762 514 762 514 757 441.5 c 132,-1,143
 752 369 752 369 724 297.5 c 132,-1,144
 696 226 696 226 653 166.5 c 132,-1,145
 610 107 610 107 567 80 c 4,146,-1
 567 80 l 6,147,148
 558 72 558 72 546.5 42.5 c 132,-1,149
 535 13 535 13 516 0 c 5,150,151
 498 -5 498 -5 482 6 c 4,152,153
 459 22 459 22 475 45 c 4,154,155
 476 47 476 47 480.5 51 c 132,-1,156
 485 55 485 55 485 56.5 c 132,-1,157
 485 58 485 58 484 62 c 5,158,159
 473 74 473 74 432.5 164.5 c 132,-1,160
 392 255 392 255 362 293 c 4,161,162
 357 300 357 300 339 287 c 132,-1,163
 321 274 321 274 314 260 c 4,164,165
 312 257 312 257 309 254 c 4,166,167
 297 237 297 237 286 215.5 c 132,-1,168
 275 194 275 194 264.5 166.5 c 132,-1,169
 254 139 254 139 256.5 114.5 c 132,-1,170
 259 90 259 90 277 78 c 4,171,-1
 277 78 l 6,172,173
 286 74 286 74 304 68.5 c 132,-1,174
 322 63 322 63 332 59 c 132,-1,175
 342 55 342 55 350 43.5 c 132,-1,176
 358 32 358 32 357 13 c 5,177,178
 351 1 351 1 342.5 -3.5 c 132,-1,179
 334 -8 334 -8 314 -9 c 4,180,181
 286 -10 286 -10 261 5.5 c 132,-1,182
 236 21 236 21 229 36 c 5,183,184
 210 70 210 70 212 115.5 c 132,-1,185
 214 161 214 161 242 220 c 4,186,187
 252 241 252 241 275 265.5 c 132,-1,188
 298 290 298 290 314 308.5 c 132,-1,189
 330 327 330 327 330 341 c 6,190,-1
 330 342 l 5,191,192
 324 366 324 366 293.5 402 c 132,-1,193
 263 438 263 438 258 446 c 4,194,195
 233 486 233 486 188.5 519.5 c 132,-1,196
 144 553 144 553 112 545 c 4,197,198
 96 540 96 540 85.5 527.5 c 132,-1,199
 75 515 75 515 64 495 c 4,200,201
 47 463 47 463 33 466 c 4,202,203
 24 468 24 468 14.5 480 c 132,-1,204
 5 492 5 492 11 503 c 4,205,206
 37 551 37 551 86.5 598.5 c 132,-1,207
 136 646 136 646 173 648 c 4,208,209
 211 650 211 650 253 609 c 4,210,211
 300 562 300 562 347 499 c 4,212,213
 353 491 353 491 363.5 473 c 132,-1,214
 374 455 374 455 381.5 444.5 c 132,-1,215
 389 434 389 434 396 430 c 4,216,217
 408 423 408 423 418 440 c 4,218,219
 425 452 425 452 442 491 c 5,220,221
 461 531 461 531 423 554 c 4,222,223
 404 565 404 565 383 593 c 5,114,115
585 141 m 4,224,225
 576 130 576 130 563 141 c 4,226,227
 552 150 552 150 552 161 c 4,228,-1
 552 161 l 5,229,230
 537 191 537 191 522 217 c 132,-1,231
 507 243 507 243 497 258 c 132,-1,232
 487 273 487 273 477 287.5 c 132,-1,233
 467 302 467 302 462.5 308.5 c 132,-1,234
 458 315 458 315 453.5 324.5 c 132,-1,235
 449 334 449 334 450.5 338.5 c 132,-1,236
 452 343 452 343 453 353 c 4,237,-1
 453 353 l 5,238,239
 455 368 455 368 469 378 c 132,-1,240
 483 388 483 388 502.5 402.5 c 132,-1,241
 522 417 522 417 534 440 c 4,242,243
 540 451 540 451 562.5 474 c 132,-1,244
 585 497 585 497 592 508 c 5,245,246
 599 517 599 517 611.5 516.5 c 132,-1,247
 624 516 624 516 633 506 c 4,248,249
 679 460 679 460 690 425 c 5,250,251
 718 304 718 304 585 141 c 4,224,225
586 141 m 4,252,253
 719 305 719 305 691 425 c 4,254,-1
 691 425 l 6,255,256
 680 461 680 461 634 507 c 4,257,258
 624 517 624 517 611 517.5 c 132,-1,259
 598 518 598 518 591 509 c 4,260,-1
 591 509 l 6,261,262
 585 498 585 498 562 475 c 132,-1,263
 539 452 539 452 533 440 c 4,264,265
 524 422 524 422 509.5 409 c 132,-1,266
 495 396 495 396 484 390 c 132,-1,267
 473 384 473 384 463.5 375 c 132,-1,268
 454 366 454 366 452 354 c 4,269,270
 450 343 450 343 449 338.5 c 132,-1,271
 448 334 448 334 452.5 324.5 c 132,-1,272
 457 315 457 315 461.5 308 c 132,-1,273
 466 301 466 301 476 286.5 c 132,-1,274
 486 272 486 272 496 257 c 132,-1,275
 506 242 506 242 521 216 c 132,-1,276
 536 190 536 190 551 161 c 5,277,278
 551 150 551 150 563 140 c 4,279,280
 576 129 576 129 586 141 c 4,252,253
585 141 m 4,281,282
 576 130 576 130 563 141 c 4,283,284
 552 150 552 150 552 161 c 4,285,-1
 552 161 l 5,286,287
 537 191 537 191 522 217 c 132,-1,288
 507 243 507 243 497 258 c 132,-1,289
 487 273 487 273 477 287.5 c 132,-1,290
 467 302 467 302 462.5 308.5 c 132,-1,291
 458 315 458 315 453.5 324.5 c 132,-1,292
 449 334 449 334 450.5 338.5 c 132,-1,293
 452 343 452 343 453 353 c 4,294,-1
 453 353 l 5,295,296
 455 368 455 368 469 378 c 132,-1,297
 483 388 483 388 502.5 402.5 c 132,-1,298
 522 417 522 417 534 440 c 4,299,300
 540 451 540 451 562.5 474 c 132,-1,301
 585 497 585 497 592 508 c 5,302,303
 599 517 599 517 611.5 516.5 c 132,-1,304
 624 516 624 516 633 506 c 4,305,306
 679 460 679 460 690 425 c 5,307,308
 718 304 718 304 585 141 c 4,281,282
586 141 m 4,309,310
 719 305 719 305 691 425 c 4,311,-1
 691 425 l 6,312,313
 680 461 680 461 634 507 c 4,314,315
 624 517 624 517 611 517.5 c 132,-1,316
 598 518 598 518 591 509 c 4,317,-1
 591 509 l 6,318,319
 585 498 585 498 562 475 c 132,-1,320
 539 452 539 452 533 440 c 4,321,322
 524 422 524 422 509.5 409 c 132,-1,323
 495 396 495 396 484 390 c 132,-1,324
 473 384 473 384 463.5 375 c 132,-1,325
 454 366 454 366 452 354 c 4,326,327
 450 343 450 343 449 338.5 c 132,-1,328
 448 334 448 334 452.5 324.5 c 132,-1,329
 457 315 457 315 461.5 308 c 132,-1,330
 466 301 466 301 476 286.5 c 132,-1,331
 486 272 486 272 496 257 c 132,-1,332
 506 242 506 242 521 216 c 132,-1,333
 536 190 536 190 551 161 c 5,334,335
 551 150 551 150 563 140 c 4,336,337
 576 129 576 129 586 141 c 4,309,310
229 36 m 5,338,339
 210 70 210 70 212 115.5 c 132,-1,340
 214 161 214 161 241 220 c 4,341,342
 251 241 251 241 274 265.5 c 132,-1,343
 297 290 297 290 313.5 309 c 132,-1,344
 330 328 330 328 330 341 c 5,345,346
 324 365 324 365 293.5 401.5 c 132,-1,347
 263 438 263 438 258 446 c 4,348,349
 233 486 233 486 188.5 519.5 c 132,-1,350
 144 553 144 553 112 544 c 4,351,352
 96 539 96 539 86 527 c 132,-1,353
 76 515 76 515 65 495 c 4,354,355
 48 462 48 462 33 466 c 4,356,357
 24 468 24 468 14 480 c 132,-1,358
 4 492 4 492 10 503 c 4,359,360
 36 552 36 552 86 599 c 132,-1,361
 136 646 136 646 173 648 c 4,362,363
 211 650 211 650 253 610 c 4,364,365
 301 563 301 563 347 499 c 4,366,367
 353 491 353 491 362.5 475 c 132,-1,368
 372 459 372 459 378 450.5 c 132,-1,369
 384 442 384 442 391.5 434 c 132,-1,370
 399 426 399 426 405.5 428 c 132,-1,371
 412 430 412 430 418 440 c 4,372,373
 425 452 425 452 442 492 c 5,374,375
 461 531 461 531 423 553 c 4,376,377
 403 564 403 564 382 592 c 5,378,379
 368 615 368 615 386 638 c 132,-1,380
 404 661 404 661 427 658 c 4,381,382
 462 653 462 653 478.5 611.5 c 132,-1,383
 495 570 495 570 488 517 c 132,-1,384
 481 464 481 464 454 425 c 5,385,386
 435 411 435 411 452 404 c 4,387,388
 459 401 459 401 473.5 412.5 c 132,-1,389
 488 424 488 424 488 431 c 5,390,391
 542 486 542 486 583 582 c 5,392,393
 588 588 588 588 598 622 c 132,-1,394
 608 656 608 656 618 660 c 4,395,396
 624 662 624 662 637.5 647.5 c 132,-1,397
 651 633 651 633 655 631 c 4,398,399
 706 607 706 607 732 562 c 132,-1,400
 758 517 758 517 758 463 c 132,-1,401
 758 409 758 409 742 350 c 132,-1,402
 726 291 726 291 698 238 c 132,-1,403
 670 185 670 185 635.5 142.5 c 132,-1,404
 601 100 601 100 568 79 c 5,405,406
 559 72 559 72 547 42 c 132,-1,407
 535 12 535 12 516 -1 c 5,408,409
 495 -7 495 -7 477.5 8.5 c 132,-1,410
 460 24 460 24 474 45 c 4,411,412
 475 47 475 47 479.5 51.5 c 132,-1,413
 484 56 484 56 484.5 57 c 132,-1,414
 485 58 485 58 483 62 c 5,415,416
 472 75 472 75 431.5 165 c 132,-1,417
 391 255 391 255 362 293 c 4,418,419
 357 299 357 299 339 286.5 c 132,-1,420
 321 274 321 274 314 260 c 5,421,422
 303 245 303 245 291.5 223.5 c 132,-1,423
 280 202 280 202 268 173 c 132,-1,424
 256 144 256 144 257.5 117.5 c 132,-1,425
 259 91 259 91 277 79 c 5,426,427
 286 75 286 75 304.5 69.5 c 132,-1,428
 323 64 323 64 333 60 c 132,-1,429
 343 56 343 56 351 44 c 132,-1,430
 359 32 359 32 358 13 c 5,431,432
 352 0 352 0 343 -4 c 132,-1,433
 334 -8 334 -8 314 -10 c 4,434,435
 285 -11 285 -11 260.5 4.5 c 132,-1,436
 236 20 236 20 229 36 c 5,338,339
586 141 m 4,437,438
 719 304 719 304 690 425 c 5,439,440
 679 461 679 461 633 507 c 4,441,442
 623 517 623 517 610.5 517.5 c 132,-1,443
 598 518 598 518 591 509 c 5,444,445
 585 497 585 497 562.5 474 c 132,-1,446
 540 451 540 451 533 440 c 4,447,448
 523 422 523 422 509 409 c 132,-1,449
 495 396 495 396 484 390 c 132,-1,450
 473 384 473 384 463.5 374.5 c 132,-1,451
 454 365 454 365 453 353 c 4,452,453
 451 342 451 342 450 338 c 132,-1,454
 449 334 449 334 453.5 324.5 c 132,-1,455
 458 315 458 315 462.5 308.5 c 132,-1,456
 467 302 467 302 476.5 287.5 c 132,-1,457
 486 273 486 273 496.5 258 c 132,-1,458
 507 243 507 243 522 216.5 c 132,-1,459
 537 190 537 190 552 161 c 5,460,461
 552 149 552 149 564.5 140 c 132,-1,462
 577 131 577 131 586 141 c 4,437,438
EndSplineSet
EndChar

StartChar: W
Encoding: 87 87 59
Width: 947
Flags: W
LayerCount: 2
Fore
SplineSet
937 662 m 1,0,-1
 937 643 l 1,1,2
 897 635 897 635 882.5 623 c 128,-1,3
 868 611 868 611 854 572 c 0,4,5
 771 349 771 349 742 266 c 128,-1,6
 713 183 713 183 650 -11 c 1,7,-1
 635 -11 l 1,8,-1
 475 412 l 1,9,-1
 321 -11 l 1,10,-1
 306 -11 l 1,11,-1
 113 526 l 2,12,13
 88 596 88 596 68.5 617.5 c 128,-1,14
 49 639 49 639 10 643 c 1,15,-1
 10 662 l 1,16,-1
 255 662 l 1,17,-1
 255 643 l 1,18,19
 217 641 217 641 203.5 634.5 c 128,-1,20
 190 628 190 628 190 611 c 0,21,22
 190 593 190 593 201 565 c 2,23,-1
 345 189 l 1,24,-1
 452 471 l 1,25,-1
 419 553 l 2,26,27
 395 613 395 613 378 627.5 c 128,-1,28
 361 642 361 642 318 643 c 1,29,-1
 318 662 l 1,30,-1
 585 662 l 1,31,-1
 585 643 l 1,32,33
 508 642 508 642 508 608 c 0,34,35
 508 597 508 597 535 527 c 2,36,-1
 667 186 l 1,37,-1
 792 525 l 2,38,39
 808 570 808 570 808 600 c 0,40,41
 808 620 808 620 792.5 629.5 c 128,-1,42
 777 639 777 639 739 643 c 1,43,-1
 739 662 l 1,44,-1
 937 662 l 1,0,-1
EndSplineSet
Validated: 1
EndChar

StartChar: X
Encoding: 88 88 60
Width: 714
Flags: W
LayerCount: 2
Fore
SplineSet
696 662 m 1,0,-1
 696 643 l 1,1,2
 647 640 647 640 620.5 623.5 c 128,-1,3
 594 607 594 607 547 549 c 2,4,-1
 401 367 l 1,5,-1
 593 93 l 2,6,7
 623 50 623 50 643 37 c 128,-1,8
 663 24 663 24 704 19 c 1,9,-1
 704 0 l 1,10,-1
 407 0 l 1,11,-1
 407 19 l 1,12,13
 448 23 448 23 466 29.5 c 128,-1,14
 484 36 484 36 484 50 c 0,15,16
 484 72 484 72 433 148 c 2,17,-1
 338 288 l 1,18,-1
 219 140 l 2,19,20
 167 75 167 75 167 54 c 0,21,22
 167 37 167 37 183 29.5 c 128,-1,23
 199 22 199 22 243 19 c 1,24,-1
 243 0 l 1,25,-1
 10 0 l 1,26,-1
 10 19 l 1,27,28
 49 22 49 22 70 38 c 128,-1,29
 91 54 91 54 155 133 c 2,30,-1
 312 326 l 1,31,-1
 203 486 l 2,32,33
 133 589 133 589 102.5 615 c 128,-1,34
 72 641 72 641 22 643 c 1,35,-1
 22 662 l 1,36,-1
 324 662 l 1,37,-1
 324 643 l 1,38,-1
 296 642 l 2,39,40
 248 641 248 641 248 613 c 0,41,42
 248 581 248 581 333 463 c 2,43,-1
 375 404 l 1,44,-1
 488 542 l 2,45,46
 528 592 528 592 528 611 c 0,47,48
 528 628 528 628 513.5 634.5 c 128,-1,49
 499 641 499 641 458 643 c 1,50,-1
 458 662 l 1,51,-1
 696 662 l 1,0,-1
EndSplineSet
Validated: 1
EndChar

StartChar: Y
Encoding: 89 89 61
Width: 701
Flags: W
LayerCount: 2
Fore
SplineSet
691 662 m 1,0,-1
 691 643 l 1,1,2
 652 640 652 640 624 617.5 c 128,-1,3
 596 595 596 595 553 529 c 2,4,-1
 405 303 l 1,5,-1
 405 109 l 2,6,7
 405 52 405 52 423 36.5 c 128,-1,8
 441 21 441 21 508 19 c 1,9,-1
 508 0 l 1,10,-1
 202 0 l 1,11,-1
 202 19 l 1,12,13
 270 22 270 22 286.5 38.5 c 128,-1,14
 303 55 303 55 303 120 c 2,15,-1
 303 294 l 1,16,-1
 172 486 l 2,17,18
 122 559 122 559 96 590.5 c 128,-1,19
 70 622 70 622 53 632 c 128,-1,20
 36 642 36 642 10 643 c 1,21,-1
 10 662 l 1,22,-1
 290 662 l 1,23,-1
 290 643 l 1,24,25
 219 638 219 638 219 613 c 0,26,27
 219 594 219 594 236 569 c 2,28,-1
 384 347 l 1,29,-1
 527 573 l 2,30,31
 541 596 541 596 541 610 c 0,32,33
 541 628 541 628 526 635 c 128,-1,34
 511 642 511 642 472 643 c 1,35,-1
 472 662 l 1,36,-1
 691 662 l 1,0,-1
EndSplineSet
Validated: 1
EndChar

StartChar: Z
Encoding: 90 90 62
Width: 613
Flags: W
LayerCount: 2
Fore
SplineSet
403 38 m 2,0,1
 431 38 431 38 454 43 c 128,-1,2
 477 48 477 48 492.5 53 c 128,-1,3
 508 58 508 58 521.5 72 c 128,-1,4
 535 86 535 86 541.5 93 c 128,-1,5
 548 100 548 100 556 120.5 c 128,-1,6
 564 141 564 141 566 147 c 128,-1,7
 568 153 568 153 575 176 c 1,8,-1
 598 176 l 1,9,-1
 574 0 l 1,10,-1
 10 0 l 1,11,-1
 10 15 l 1,12,-1
 447 624 l 1,13,-1
 226 624 l 2,14,15
 175 624 175 624 142 614 c 128,-1,16
 109 604 109 604 92.5 582 c 128,-1,17
 76 560 76 560 70 542 c 128,-1,18
 64 524 64 524 58 491 c 1,19,-1
 32 491 l 1,20,-1
 52 662 l 1,21,-1
 578 662 l 1,22,-1
 578 647 l 1,23,-1
 146 38 l 1,24,-1
 403 38 l 2,0,1
EndSplineSet
Validated: 1
EndChar

StartChar: bracketleft
Encoding: 91 91 63
Width: 333
Flags: W
LayerCount: 2
Fore
SplineSet
299 -131 m 1,0,-1
 299 -156 l 1,1,-1
 88 -156 l 1,2,-1
 88 662 l 1,3,-1
 299 662 l 1,4,-1
 299 637 l 1,5,-1
 209 637 l 2,6,7
 185 637 185 637 174.5 626.5 c 128,-1,8
 164 616 164 616 164 593 c 2,9,-1
 164 -79 l 2,10,11
 164 -131 164 -131 213 -131 c 2,12,-1
 299 -131 l 1,0,-1
EndSplineSet
Validated: 1
Substitution2: "'rtla' Right to Left Alternates lookup 0 subtable" bracketright
EndChar

StartChar: backslash
Encoding: 92 92 64
Width: 296
Flags: W
LayerCount: 2
Fore
SplineSet
0 676 m 1,0,-1
 67 676 l 1,1,-1
 296 -14 l 1,2,-1
 228 -14 l 1,3,-1
 0 676 l 1,0,-1
EndSplineSet
Validated: 1
EndChar

StartChar: asciicircum
Encoding: 94 94 66
Width: 469
Flags: W
LayerCount: 2
Fore
SplineSet
92 297 m 1,0,-1
 24 297 l 1,1,-1
 205 662 l 1,2,-1
 265 662 l 1,3,-1
 446 297 l 1,4,-1
 378 297 l 1,5,-1
 235 586 l 1,6,-1
 92 297 l 1,0,-1
EndSplineSet
Validated: 1
EndChar

StartChar: underscore
Encoding: 95 95 67
Width: 500
Flags: W
LayerCount: 2
Fore
SplineSet
500 -125 m 1,0,-1
 0 -125 l 1,1,-1
 0 -75 l 1,2,-1
 500 -75 l 1,3,-1
 500 -125 l 1,0,-1
EndSplineSet
Validated: 1
EndChar

StartChar: grave
Encoding: 96 96 68
Width: 250
Flags: W
LayerCount: 2
Fore
SplineSet
242 507 m 1,0,-1
 202 507 l 1,1,-1
 48 604 l 2,2,3
 19 623 19 623 19 647 c 0,4,5
 19 678 19 678 53 678 c 0,6,7
 72 678 72 678 95 655 c 2,8,-1
 242 507 l 1,0,-1
EndSplineSet
Validated: 1
EndChar

StartChar: a
Encoding: 97 97 69
Width: 435
Flags: W
LayerCount: 2
Fore
SplineSet
25 97 m 0,0,1
 25 115 25 115 29 130.5 c 128,-1,2
 33 146 33 146 43 159.5 c 128,-1,3
 53 173 53 173 62 184 c 128,-1,4
 71 195 71 195 89 206.5 c 128,-1,5
 107 218 107 218 119 225.5 c 128,-1,6
 131 233 131 233 155.5 243.5 c 128,-1,7
 180 254 180 254 193 259.5 c 128,-1,8
 206 265 206 265 234 276 c 128,-1,9
 262 287 262 287 275 292 c 1,10,-1
 275 353 l 2,11,12
 275 436 275 436 199 436 c 0,13,14
 169 436 169 436 148 421.5 c 128,-1,15
 127 407 127 407 127 387 c 0,16,17
 127 379 127 379 129.5 365 c 128,-1,18
 132 351 132 351 132 347 c 0,19,20
 132 330 132 330 118.5 317.5 c 128,-1,21
 105 305 105 305 87 305 c 0,22,23
 70 305 70 305 57 318 c 128,-1,24
 44 331 44 331 44 348 c 0,25,26
 44 395 44 395 92.5 427.5 c 128,-1,27
 141 460 141 460 212 460 c 0,28,29
 294 460 294 460 325 420.5 c 128,-1,30
 356 381 356 381 356 300 c 2,31,-1
 356 105 l 2,32,33
 356 72 356 72 362.5 59.5 c 128,-1,34
 369 47 369 47 386 47 c 0,35,36
 407 47 407 47 430 66 c 1,37,-1
 430 40 l 1,38,39
 404 11 404 11 384.5 0.5 c 128,-1,40
 365 -10 365 -10 340 -10 c 0,41,42
 309 -10 309 -10 294.5 7 c 128,-1,43
 280 24 280 24 276 63 c 1,44,45
 190 -10 190 -10 130 -10 c 0,46,47
 84 -10 84 -10 54.5 20 c 128,-1,48
 25 50 25 50 25 97 c 0,0,1
275 123 m 2,49,-1
 275 268 l 1,50,51
 185 235 185 235 149 204 c 128,-1,52
 113 173 113 173 113 129 c 0,53,54
 113 88 113 88 133 68 c 128,-1,55
 153 48 153 48 176 48 c 0,56,57
 210 48 210 48 249 71 c 0,58,59
 265 80 265 80 270 90 c 128,-1,60
 275 100 275 100 275 123 c 2,49,-1
EndSplineSet
Validated: 1
EndChar

StartChar: b
Encoding: 98 98 70
Width: 500
Flags: W
LayerCount: 2
Fore
SplineSet
160 681 m 1,0,-1
 160 375 l 1,1,2
 175 412 175 412 214 436 c 128,-1,3
 253 460 253 460 299 460 c 0,4,5
 374 460 374 460 424.5 397.5 c 128,-1,6
 475 335 475 335 475 243 c 0,7,8
 475 136 475 136 407.5 63 c 128,-1,9
 340 -10 340 -10 241 -10 c 0,10,11
 181 -10 181 -10 128.5 10.5 c 128,-1,12
 76 31 76 31 76 54 c 2,13,-1
 76 573 l 2,14,15
 76 604 76 604 66.5 614 c 128,-1,16
 57 624 57 624 27 624 c 0,17,18
 16 624 16 624 10 623 c 1,19,-1
 10 639 l 1,20,21
 87 658 87 658 155 683 c 1,22,-1
 160 681 l 1,0,-1
160 322 m 2,23,-1
 160 70 l 2,24,25
 160 51 160 51 189 36.5 c 128,-1,26
 218 22 218 22 257 22 c 0,27,28
 319 22 319 22 353 68 c 128,-1,29
 387 114 387 114 387 197 c 0,30,31
 387 288 387 288 352.5 342.5 c 128,-1,32
 318 397 318 397 259 397 c 0,33,34
 220 397 220 397 190 374 c 128,-1,35
 160 351 160 351 160 322 c 2,23,-1
EndSplineSet
Validated: 1
EndChar

StartChar: c
Encoding: 99 99 71
Width: 444
Flags: W
LayerCount: 2
Fore
SplineSet
25 213 m 0,0,1
 25 324 25 324 90.5 392 c 128,-1,2
 156 460 156 460 244 460 c 0,3,4
 307 460 307 460 352.5 429.5 c 128,-1,5
 398 399 398 399 398 357 c 0,6,7
 398 340 398 340 384 327.5 c 128,-1,8
 370 315 370 315 350 315 c 0,9,10
 316 315 316 315 303 361 c 2,11,-1
 297 383 l 2,12,13
 289 411 289 411 277 421 c 128,-1,14
 265 431 265 431 238 431 c 0,15,16
 177 431 177 431 139.5 382.5 c 128,-1,17
 102 334 102 334 102 257 c 0,18,19
 102 171 102 171 145.5 116.5 c 128,-1,20
 189 62 189 62 257 62 c 0,21,22
 300 62 300 62 331 83 c 128,-1,23
 362 104 362 104 398 156 c 1,24,-1
 412 147 l 1,25,26
 402 127 402 127 394.5 114 c 128,-1,27
 387 101 387 101 367.5 75 c 128,-1,28
 348 49 348 49 329 33 c 128,-1,29
 310 17 310 17 279 3.5 c 128,-1,30
 248 -10 248 -10 215 -10 c 0,31,32
 132 -10 132 -10 78.5 52.5 c 128,-1,33
 25 115 25 115 25 213 c 0,0,1
EndSplineSet
Validated: 1
EndChar

StartChar: d
Encoding: 100 100 72
Width: 499
Flags: W
LayerCount: 2
Fore
SplineSet
342 -10 m 1,0,-1
 338 -7 l 1,1,-1
 338 57 l 1,2,3
 290 -10 290 -10 210 -10 c 0,4,5
 127 -10 127 -10 76 49.5 c 128,-1,6
 25 109 25 109 25 205 c 0,7,8
 25 311 25 311 86 385.5 c 128,-1,9
 147 460 147 460 233 460 c 0,10,11
 287 460 287 460 338 417 c 1,12,-1
 338 573 l 2,13,14
 338 604 338 604 329 614 c 128,-1,15
 320 624 320 624 292 624 c 0,16,17
 278 624 278 624 270 623 c 1,18,-1
 270 639 l 1,19,20
 361 663 361 663 417 683 c 1,21,-1
 422 681 l 1,22,-1
 422 114 l 2,23,24
 422 79 422 79 430.5 68 c 128,-1,25
 439 57 439 57 466 57 c 0,26,27
 471 57 471 57 489 58 c 1,28,-1
 489 42 l 1,29,-1
 342 -10 l 1,0,-1
249 42 m 0,30,31
 287 42 287 42 312.5 63.5 c 128,-1,32
 338 85 338 85 338 102 c 2,33,-1
 338 332 l 2,34,35
 338 372 338 372 307 402 c 128,-1,36
 276 432 276 432 236 432 c 0,37,38
 179 432 179 432 145 381 c 128,-1,39
 111 330 111 330 111 245 c 0,40,41
 111 153 111 153 149 97.5 c 128,-1,42
 187 42 187 42 249 42 c 0,30,31
EndSplineSet
Validated: 1
EndChar

StartChar: e
Encoding: 101 101 73
Width: 444
Flags: W
LayerCount: 2
Fore
SplineSet
97 277 m 1,0,1
 99 214 99 214 114 168.5 c 128,-1,2
 129 123 129 123 153 100.5 c 128,-1,3
 177 78 177 78 201.5 68.5 c 128,-1,4
 226 59 226 59 253 59 c 0,5,6
 301 59 301 59 336.5 83 c 128,-1,7
 372 107 372 107 408 164 c 1,8,-1
 424 157 l 1,9,10
 393 76 393 76 338 33 c 128,-1,11
 283 -10 283 -10 212 -10 c 0,12,13
 126 -10 126 -10 75.5 50.5 c 128,-1,14
 25 111 25 111 25 214 c 0,15,16
 25 325 25 325 83.5 392.5 c 128,-1,17
 142 460 142 460 234 460 c 0,18,19
 310 460 310 460 352 414.5 c 128,-1,20
 394 369 394 369 405 277 c 1,21,-1
 97 277 l 1,0,1
99 309 m 1,22,-1
 303 309 l 1,23,24
 293 374 293 374 272 399 c 128,-1,25
 251 424 251 424 205 424 c 0,26,27
 115 424 115 424 99 309 c 1,22,-1
EndSplineSet
Validated: 1
EndChar

StartChar: f
Encoding: 102 102 74
Width: 373
Flags: W
LayerCount: 2
Fore
SplineSet
331 580 m 0,0,1
 315 580 315 580 303.5 591.5 c 128,-1,2
 292 603 292 603 285.5 617.5 c 128,-1,3
 279 632 279 632 265.5 643.5 c 128,-1,4
 252 655 252 655 233 655 c 0,5,6
 176 655 176 655 176 566 c 2,7,-1
 176 450 l 1,8,-1
 299 450 l 1,9,-1
 299 418 l 1,10,-1
 177 418 l 1,11,-1
 177 104 l 2,12,13
 177 48 177 48 193 32.5 c 128,-1,14
 209 17 209 17 270 15 c 1,15,-1
 270 0 l 1,16,-1
 10 0 l 1,17,-1
 10 15 l 1,18,19
 64 18 64 18 78.5 33.5 c 128,-1,20
 93 49 93 49 93 104 c 2,21,-1
 93 418 l 1,22,-1
 11 418 l 1,23,-1
 11 450 l 1,24,-1
 93 450 l 1,25,26
 95 562 95 562 135 622.5 c 128,-1,27
 175 683 175 683 269 683 c 0,28,29
 314 683 314 683 343.5 665.5 c 128,-1,30
 373 648 373 648 373 621 c 0,31,32
 373 604 373 604 360.5 592 c 128,-1,33
 348 580 348 580 331 580 c 0,0,1
EndSplineSet
Validated: 1
EndChar

StartChar: g
Encoding: 103 103 75
Width: 467
Flags: W
LayerCount: 2
Fore
SplineSet
60 54 m 0,0,1
 60 73 60 73 73.5 89 c 128,-1,2
 87 105 87 105 149 163 c 1,3,4
 99 188 99 188 77.5 219 c 128,-1,5
 56 250 56 250 56 297 c 0,6,7
 56 365 56 365 104.5 412.5 c 128,-1,8
 153 460 153 460 223 460 c 0,9,10
 262 460 262 460 306.5 443.5 c 128,-1,11
 351 427 351 427 380 427 c 2,12,-1
 457 427 l 1,13,-1
 457 388 l 1,14,-1
 374 388 l 1,15,16
 393 345 393 345 393 304 c 0,17,18
 393 235 393 235 346.5 192 c 128,-1,19
 300 149 300 149 237 149 c 0,20,21
 225 149 225 149 180 154 c 1,22,23
 160 148 160 148 140 127 c 128,-1,24
 120 106 120 106 120 91 c 0,25,26
 120 67 120 67 198 64 c 2,27,-1
 327 58 l 2,28,29
 382 56 382 56 415 27 c 128,-1,30
 448 -2 448 -2 448 -49 c 0,31,32
 448 -121 448 -121 365.5 -169.5 c 128,-1,33
 283 -218 283 -218 188 -218 c 0,34,35
 117 -218 117 -218 66 -189.5 c 128,-1,36
 15 -161 15 -161 15 -121 c 0,37,38
 15 -93 15 -93 37.5 -65.5 c 128,-1,39
 60 -38 60 -38 113 1 c 1,40,41
 82 16 82 16 71 27 c 128,-1,42
 60 38 60 38 60 54 c 0,0,1
134 -2 m 1,43,44
 103 -39 103 -39 94 -55 c 128,-1,45
 85 -71 85 -71 85 -88 c 0,46,47
 85 -121 85 -121 125 -141 c 128,-1,48
 165 -161 165 -161 231 -161 c 0,49,50
 316 -161 316 -161 368 -134 c 128,-1,51
 420 -107 420 -107 420 -64 c 0,52,53
 420 -37 420 -37 392 -26 c 128,-1,54
 364 -15 364 -15 296 -15 c 0,55,56
 195 -15 195 -15 134 -2 c 1,43,44
316 265 m 0,57,58
 316 282 316 282 312 306 c 128,-1,59
 308 330 308 330 298 360.5 c 128,-1,60
 288 391 288 391 266 411.5 c 128,-1,61
 244 432 244 432 213 432 c 0,62,63
 178 432 178 432 158.5 407 c 128,-1,64
 139 382 139 382 139 338 c 0,65,66
 139 252 139 252 171 213 c 128,-1,67
 203 174 203 174 241 174 c 0,68,69
 276 174 276 174 296 198.5 c 128,-1,70
 316 223 316 223 316 265 c 0,57,58
EndSplineSet
Validated: 1
EndChar

StartChar: h
Encoding: 104 104 76
Width: 498
Flags: W
LayerCount: 2
Fore
SplineSet
158 343 m 1,0,-1
 158 102 l 2,1,2
 158 50 158 50 170 35 c 128,-1,3
 182 20 182 20 226 15 c 1,4,-1
 226 0 l 1,5,-1
 10 0 l 1,6,-1
 10 15 l 1,7,8
 53 21 53 21 63.5 35 c 128,-1,9
 74 49 74 49 74 102 c 2,10,-1
 74 573 l 2,11,12
 74 605 74 605 65.5 615 c 128,-1,13
 57 625 57 625 28 625 c 0,14,15
 21 625 21 625 11 623 c 1,16,-1
 11 639 l 1,17,18
 82 658 82 658 153 683 c 1,19,-1
 158 680 l 1,20,-1
 158 376 l 1,21,22
 192 421 192 421 226.5 440.5 c 128,-1,23
 261 460 261 460 305 460 c 0,24,25
 428 460 428 460 428 301 c 2,26,-1
 428 102 l 2,27,28
 428 50 428 50 437.5 36.5 c 128,-1,29
 447 23 447 23 488 15 c 1,30,-1
 488 0 l 1,31,-1
 276 0 l 1,32,-1
 276 15 l 1,33,34
 319 19 319 19 331.5 35 c 128,-1,35
 344 51 344 51 344 102 c 2,36,-1
 344 300 l 2,37,38
 344 406 344 406 269 406 c 0,39,40
 240 406 240 406 214.5 391.5 c 128,-1,41
 189 377 189 377 158 343 c 1,0,-1
EndSplineSet
Validated: 1
Substitution2: "<10,1> Superiors in Latin lookup 4 subtable" hsuper
EndChar

StartChar: i
Encoding: 105 105 77
Width: 278
Flags: W
LayerCount: 2
Fore
SplineSet
62 393 m 0,0,1
 40 393 40 393 20 390 c 1,2,-1
 20 405 l 1,3,4
 90 425 90 425 175 460 c 1,5,-1
 179 457 l 1,6,-1
 179 102 l 2,7,8
 179 48 179 48 191.5 33.5 c 128,-1,9
 204 19 204 19 253 15 c 1,10,-1
 253 0 l 1,11,-1
 16 0 l 1,12,-1
 16 15 l 1,13,14
 68 18 68 18 81.5 33 c 128,-1,15
 95 48 95 48 95 102 c 2,16,-1
 95 334 l 2,17,18
 95 367 95 367 87.5 380 c 128,-1,19
 80 393 80 393 62 393 c 0,0,1
128 683 m 0,20,21
 150 683 150 683 165 668 c 128,-1,22
 180 653 180 653 180 632 c 0,23,24
 180 610 180 610 165 595.5 c 128,-1,25
 150 581 150 581 128 581 c 0,26,27
 107 581 107 581 92.5 596 c 128,-1,28
 78 611 78 611 78 632 c 128,-1,29
 78 653 78 653 93 668 c 128,-1,30
 108 683 108 683 128 683 c 0,20,21
EndSplineSet
Validated: 1
EndChar

StartChar: j
Encoding: 106 106 78
Width: 348
Flags: W
LayerCount: 2
Fore
SplineSet
147 393 m 1,0,1
 147 393 147 393 102 390 c 1,2,-1
 102 406 l 1,3,4
 182 431 182 431 258 460 c 1,5,-1
 263 457 l 1,6,-1
 263 0 l 2,7,8
 263 -106 263 -106 220 -162 c 128,-1,9
 177 -218 177 -218 94 -218 c 0,10,11
 53 -218 53 -218 26.5 -202.5 c 128,-1,12
 0 -187 0 -187 0 -163 c 0,13,14
 0 -147 0 -147 12 -135.5 c 128,-1,15
 24 -124 24 -124 41 -124 c 0,16,17
 62 -124 62 -124 87 -154 c 128,-1,18
 112 -184 112 -184 131 -184 c 0,19,20
 161 -184 161 -184 170 -153 c 128,-1,21
 179 -122 179 -122 179 -45 c 2,22,-1
 179 334 l 2,23,24
 179 366 179 366 171.5 379.5 c 128,-1,25
 164 393 164 393 147 393 c 1,0,1
212 683 m 0,26,27
 234 683 234 683 249 668 c 128,-1,28
 264 653 264 653 264 632 c 0,29,30
 264 610 264 610 249 595.5 c 128,-1,31
 234 581 234 581 212 581 c 0,32,33
 191 581 191 581 176.5 596 c 128,-1,34
 162 611 162 611 162 632 c 128,-1,35
 162 653 162 653 177 668 c 128,-1,36
 192 683 192 683 212 683 c 0,26,27
EndSplineSet
Validated: 1
Substitution2: "<10,1> Superiors in Latin lookup 4 subtable" jsuper
EndChar

StartChar: k
Encoding: 107 107 79
Width: 513
Flags: W
LayerCount: 2
Fore
SplineSet
10 623 m 1,0,-1
 10 639 l 1,1,2
 95 660 95 660 165 683 c 1,3,-1
 169 681 l 1,4,-1
 169 261 l 1,5,-1
 306 383 l 2,6,7
 329 403 329 403 329 417 c 0,8,9
 329 427 329 427 318.5 431 c 128,-1,10
 308 435 308 435 279 436 c 1,11,-1
 279 450 l 1,12,-1
 483 450 l 1,13,-1
 483 435 l 1,14,15
 460 435 460 435 446.5 432.5 c 128,-1,16
 433 430 433 430 408 419 c 128,-1,17
 383 408 383 408 349.5 381 c 128,-1,18
 316 354 316 354 267 309 c 2,19,-1
 238 282 l 1,20,-1
 391 88 l 2,21,22
 422 50 422 50 448.5 33.5 c 128,-1,23
 475 17 475 17 508 15 c 1,24,-1
 508 0 l 1,25,-1
 290 0 l 1,26,-1
 290 15 l 1,27,28
 330 15 330 15 330 30 c 0,29,30
 330 34 330 34 327 39.5 c 128,-1,31
 324 45 324 45 317.5 52.5 c 128,-1,32
 311 60 311 60 309 64 c 2,33,-1
 169 251 l 1,34,-1
 169 80 l 2,35,36
 169 44 169 44 180.5 34 c 128,-1,37
 192 24 192 24 244 15 c 1,38,-1
 244 0 l 1,39,-1
 10 0 l 1,40,-1
 10 15 l 1,41,42
 64 24 64 24 74.5 33.5 c 128,-1,43
 85 43 85 43 85 82 c 2,44,-1
 85 564 l 2,45,46
 85 600 85 600 76 612.5 c 128,-1,47
 67 625 67 625 42 625 c 0,48,49
 28 625 28 625 10 623 c 1,0,-1
EndSplineSet
Validated: 1
EndChar

StartChar: l
Encoding: 108 108 80
Width: 258
Flags: W
LayerCount: 2
Fore
SplineSet
10 623 m 1,0,-1
 10 639 l 1,1,2
 109 663 109 663 169 683 c 1,3,-1
 173 681 l 1,4,-1
 173 84 l 2,5,6
 173 43 173 43 186.5 30.5 c 128,-1,7
 200 18 200 18 248 15 c 1,8,-1
 248 0 l 1,9,-1
 12 0 l 1,10,-1
 12 15 l 1,11,12
 59 19 59 19 74 33 c 128,-1,13
 89 47 89 47 89 87 c 2,14,-1
 89 564 l 2,15,16
 89 599 89 599 80 612 c 128,-1,17
 71 625 71 625 47 625 c 0,18,19
 27 625 27 625 10 623 c 1,0,-1
EndSplineSet
Validated: 1
Substitution2: "<10,1> Superiors in Latin lookup 4 subtable" lsuper
EndChar

StartChar: m
Encoding: 109 109 81
Width: 779
Flags: W
LayerCount: 2
Fore
SplineSet
13 398 m 1,0,-1
 13 415 l 1,1,2
 85 435 85 435 153 460 c 1,3,-1
 160 458 l 1,4,-1
 160 383 l 1,5,6
 222 430 222 430 252 445 c 128,-1,7
 282 460 282 460 315 460 c 0,8,9
 394 460 394 460 421 376 c 1,10,11
 499 460 499 460 584 460 c 0,12,13
 700 460 700 460 700 282 c 2,14,-1
 700 76 l 2,15,16
 700 20 700 20 743 17 c 2,17,-1
 769 15 l 1,18,-1
 769 0 l 1,19,-1
 550 0 l 1,20,-1
 550 15 l 1,21,22
 594 20 594 20 605 32 c 128,-1,23
 616 44 616 44 616 87 c 2,24,-1
 616 298 l 2,25,26
 616 360 616 360 600 384 c 128,-1,27
 584 408 584 408 541 408 c 0,28,29
 475 408 475 408 432 347 c 1,30,-1
 432 95 l 2,31,32
 432 48 432 48 446.5 32 c 128,-1,33
 461 16 461 16 504 15 c 1,34,-1
 504 0 l 1,35,-1
 280 0 l 1,36,-1
 280 15 l 1,37,38
 323 18 323 18 335.5 31 c 128,-1,39
 348 44 348 44 348 86 c 2,40,-1
 348 303 l 2,41,42
 348 408 348 408 282 408 c 0,43,44
 254 408 254 408 219.5 394 c 128,-1,45
 185 380 185 380 164 349 c 1,46,-1
 164 67 l 2,47,48
 164 38 164 38 178 27.5 c 128,-1,49
 192 17 192 17 232 15 c 1,50,-1
 232 0 l 1,51,-1
 10 0 l 1,52,-1
 10 15 l 1,53,54
 52 16 52 16 66 30 c 128,-1,55
 80 44 80 44 80 85 c 2,56,-1
 80 338 l 2,57,58
 80 374 80 374 72.5 388 c 128,-1,59
 65 402 65 402 45 402 c 0,60,61
 30 402 30 402 13 398 c 1,0,-1
EndSplineSet
Validated: 1
EndChar

StartChar: n
Encoding: 110 110 82
Width: 489
Flags: W
LayerCount: 2
Fore
SplineSet
10 398 m 1,0,-1
 10 415 l 1,1,2
 84 437 84 437 148 460 c 1,3,-1
 155 458 l 1,4,-1
 155 379 l 1,5,6
 206 427 206 427 235.5 443.5 c 128,-1,7
 265 460 265 460 300 460 c 0,8,9
 355 460 355 460 386.5 420.5 c 128,-1,10
 418 381 418 381 418 310 c 2,11,-1
 418 81 l 2,12,13
 418 44 418 44 430 31.5 c 128,-1,14
 442 19 442 19 479 15 c 1,15,-1
 479 0 l 1,16,-1
 271 0 l 1,17,-1
 271 15 l 1,18,19
 309 18 309 18 321.5 35 c 128,-1,20
 334 52 334 52 334 99 c 2,21,-1
 334 308 l 2,22,23
 334 405 334 405 261 405 c 0,24,25
 236 405 236 405 215 393.5 c 128,-1,26
 194 382 194 382 158 348 c 1,27,-1
 158 67 l 2,28,29
 158 40 158 40 172 29 c 128,-1,30
 186 18 186 18 224 15 c 1,31,-1
 224 0 l 1,32,-1
 12 0 l 1,33,-1
 12 15 l 1,34,35
 50 18 50 18 62 32.5 c 128,-1,36
 74 47 74 47 74 90 c 2,37,-1
 74 338 l 2,38,39
 74 375 74 375 66 388.5 c 128,-1,40
 58 402 58 402 37 402 c 0,41,42
 18 402 18 402 10 398 c 1,0,-1
EndSplineSet
Validated: 1
EndChar

StartChar: o
Encoding: 111 111 83
Width: 491
Flags: W
LayerCount: 2
Fore
SplineSet
246 460 m 0,0,1
 342 460 342 460 404 396 c 128,-1,2
 466 332 466 332 466 234 c 0,3,4
 466 130 466 130 402 60 c 128,-1,5
 338 -10 338 -10 244 -10 c 128,-1,6
 150 -10 150 -10 87.5 57.5 c 128,-1,7
 25 125 25 125 25 226 c 0,8,9
 25 329 25 329 86.5 394.5 c 128,-1,10
 148 460 148 460 246 460 c 0,0,1
115 275 m 0,11,12
 115 168 115 168 154 93 c 128,-1,13
 193 18 193 18 256 18 c 0,14,15
 312 18 312 18 344 66 c 128,-1,16
 376 114 376 114 376 199 c 0,17,18
 376 302 376 302 336 367 c 128,-1,19
 296 432 296 432 233 432 c 0,20,21
 180 432 180 432 147.5 389 c 128,-1,22
 115 346 115 346 115 275 c 0,11,12
EndSplineSet
Validated: 1
EndChar

StartChar: p
Encoding: 112 112 84
Width: 500
Flags: W
LayerCount: 2
Fore
SplineSet
14 393 m 1,0,-1
 14 409 l 1,1,2
 77 428 77 428 158 460 c 1,3,-1
 164 458 l 1,4,-1
 164 381 l 1,5,6
 228 460 228 460 308 460 c 0,7,8
 381 460 381 460 428 400 c 128,-1,9
 475 340 475 340 475 247 c 0,10,11
 475 138 475 138 414.5 64 c 128,-1,12
 354 -10 354 -10 265 -10 c 0,13,14
 233 -10 233 -10 211.5 -1 c 128,-1,15
 190 8 190 8 164 33 c 1,16,-1
 164 -124 l 2,17,18
 164 -171 164 -171 180 -184.5 c 128,-1,19
 196 -198 196 -198 252 -199 c 1,20,-1
 252 -217 l 1,21,-1
 10 -217 l 1,22,-1
 10 -200 l 1,23,24
 54 -196 54 -196 67 -183 c 128,-1,25
 80 -170 80 -170 80 -131 c 2,26,-1
 80 337 l 2,27,28
 80 372 80 372 72 383 c 128,-1,29
 64 394 64 394 39 394 c 0,30,31
 23 394 23 394 14 393 c 1,0,-1
164 334 m 2,32,-1
 164 88 l 2,33,34
 164 66 164 66 198.5 44 c 128,-1,35
 233 22 233 22 268 22 c 0,36,37
 322 22 322 22 355.5 73.5 c 128,-1,38
 389 125 389 125 389 208 c 0,39,40
 389 295 389 295 355.5 347.5 c 128,-1,41
 322 400 322 400 266 400 c 0,42,43
 231 400 231 400 197.5 378 c 128,-1,44
 164 356 164 356 164 334 c 2,32,-1
EndSplineSet
Validated: 1
EndChar

StartChar: q
Encoding: 113 113 85
Width: 499
Flags: W
LayerCount: 2
Fore
SplineSet
361 425 m 1,0,-1
 415 457 l 1,1,-1
 426 457 l 1,2,-1
 426 -141 l 2,3,4
 426 -173 426 -173 437 -183.5 c 128,-1,5
 448 -194 448 -194 489 -203 c 1,6,-1
 489 -217 l 1,7,-1
 253 -217 l 1,8,-1
 253 -200 l 1,9,10
 306 -196 306 -196 324 -181 c 128,-1,11
 342 -166 342 -166 342 -124 c 2,12,-1
 342 64 l 1,13,14
 274 -10 274 -10 185 -10 c 0,15,16
 115 -10 115 -10 70 50 c 128,-1,17
 25 110 25 110 25 205 c 0,18,19
 25 313 25 313 88.5 387 c 128,-1,20
 152 461 152 461 246 461 c 0,21,22
 300 461 300 461 361 425 c 1,0,-1
111 241 m 0,23,24
 111 198 111 198 121 158 c 128,-1,25
 131 118 131 118 162 84.5 c 128,-1,26
 193 51 193 51 242 51 c 0,27,28
 292 51 292 51 328 82 c 0,29,30
 342 93 342 93 342 127 c 2,31,-1
 342 333 l 2,32,33
 342 433 342 433 249 433 c 0,34,35
 185 433 185 433 148 381.5 c 128,-1,36
 111 330 111 330 111 241 c 0,23,24
EndSplineSet
Validated: 1
EndChar

StartChar: r
Encoding: 114 114 86
Width: 345
Flags: W
LayerCount: 2
Fore
SplineSet
301 362 m 0,0,1
 286 362 286 362 264 379.5 c 128,-1,2
 242 397 242 397 235 397 c 0,3,4
 215 397 215 397 190 368 c 128,-1,5
 165 339 165 339 165 315 c 2,6,-1
 165 90 l 2,7,8
 165 47 165 47 182 32 c 128,-1,9
 199 17 199 17 250 15 c 1,10,-1
 250 0 l 1,11,-1
 10 0 l 1,12,-1
 10 15 l 1,13,14
 58 24 58 24 69.5 35 c 128,-1,15
 81 46 81 46 81 84 c 2,16,-1
 81 334 l 2,17,18
 81 367 81 367 73.5 380.5 c 128,-1,19
 66 394 66 394 47 394 c 0,20,21
 31 394 31 394 12 390 c 1,22,-1
 12 406 l 1,23,24
 92 432 92 432 160 460 c 1,25,-1
 165 458 l 1,26,-1
 165 366 l 1,27,28
 202 419 202 419 228 439.5 c 128,-1,29
 254 460 254 460 285 460 c 0,30,31
 311 460 311 460 325.5 446 c 128,-1,32
 340 432 340 432 340 407 c 0,33,34
 340 386 340 386 329.5 374 c 128,-1,35
 319 362 319 362 301 362 c 0,0,1
EndSplineSet
Validated: 1
Substitution2: "<10,1> Superiors in Latin lookup 4 subtable" rsuper
EndChar

StartChar: s
Encoding: 115 115 87
Width: 367
Flags: W
LayerCount: 2
Fore
SplineSet
268 440 m 0,0,1
 269 440 269 440 284 450 c 1,2,-1
 295 450 l 1,3,-1
 299 314 l 1,4,-1
 284 314 l 1,5,6
 267 381 267 381 242 409 c 128,-1,7
 217 437 217 437 174 437 c 0,8,9
 140 437 140 437 118.5 418 c 128,-1,10
 97 399 97 399 97 369 c 0,11,12
 97 326 97 326 140 301 c 2,13,-1
 248 237 l 2,14,15
 293 210 293 210 312.5 182.5 c 128,-1,16
 332 155 332 155 332 118 c 0,17,18
 332 66 332 66 290.5 28 c 128,-1,19
 249 -10 249 -10 191 -10 c 0,20,21
 166 -10 166 -10 124 -1 c 128,-1,22
 82 8 82 8 72 8 c 0,23,24
 57 8 57 8 49 -4 c 1,25,-1
 36 -4 l 1,26,-1
 36 152 l 1,27,-1
 52 152 l 1,28,29
 68 82 68 82 90 53 c 0,30,31
 122 12 122 12 179 12 c 0,32,33
 217 12 217 12 239.5 31.5 c 128,-1,34
 262 51 262 51 262 84 c 0,35,36
 262 129 262 129 210 159 c 2,37,-1
 152 192 l 2,38,39
 88 228 88 228 61.5 261 c 128,-1,40
 35 294 35 294 35 336 c 0,41,42
 35 390 35 390 73.5 424.5 c 128,-1,43
 112 459 112 459 171 459 c 0,44,45
 204 459 204 459 233 449.5 c 128,-1,46
 262 440 262 440 268 440 c 0,0,1
EndSplineSet
Validated: 1
Substitution2: "<10,1> Superiors in Latin lookup 4 subtable" ssuper
EndChar

StartChar: t
Encoding: 116 116 88
Width: 283
Flags: W
LayerCount: 2
Fore
SplineSet
259 450 m 1,0,-1
 259 418 l 1,1,-1
 158 418 l 1,2,-1
 158 132 l 2,3,4
 158 85 158 85 170 63.5 c 128,-1,5
 182 42 182 42 210 42 c 0,6,7
 241 42 241 42 270 77 c 1,8,-1
 283 66 l 1,9,10
 235 -10 235 -10 163 -10 c 0,11,12
 74 -10 74 -10 74 117 c 2,13,-1
 74 418 l 1,14,-1
 21 418 l 1,15,16
 17 421 17 421 17 425 c 0,17,18
 17 430 17 430 20 433 c 128,-1,19
 23 436 23 436 31.5 441.5 c 128,-1,20
 40 447 40 447 52 456.5 c 128,-1,21
 64 466 64 466 85 491 c 128,-1,22
 106 516 106 516 131 551 c 0,23,24
 147 574 147 574 151 579 c 1,25,26
 158 579 158 579 158 566 c 2,27,-1
 158 450 l 1,28,-1
 259 450 l 1,0,-1
EndSplineSet
Validated: 1
EndChar

StartChar: u
Encoding: 117 117 89
Width: 490
Flags: W
LayerCount: 2
Fore
SplineSet
480 50 m 1,0,-1
 480 36 l 1,1,2
 402 15 402 15 343 -9 c 1,3,-1
 339 -7 l 1,4,-1
 339 76 l 1,5,6
 336 73 336 73 321.5 58 c 128,-1,7
 307 43 307 43 301 37.5 c 128,-1,8
 295 32 295 32 280.5 20.5 c 128,-1,9
 266 9 266 9 255 4 c 128,-1,10
 244 -1 244 -1 227 -5.5 c 128,-1,11
 210 -10 210 -10 193 -10 c 0,12,13
 138 -10 138 -10 105 25.5 c 128,-1,14
 72 61 72 61 72 120 c 2,15,-1
 72 372 l 2,16,17
 72 407 72 407 59 420.5 c 128,-1,18
 46 434 46 434 10 436 c 1,19,-1
 10 450 l 1,20,-1
 156 450 l 1,21,-1
 156 124 l 2,22,23
 156 93 156 93 177 70.5 c 128,-1,24
 198 48 198 48 227 48 c 0,25,26
 238 48 238 48 253 51 c 128,-1,27
 268 54 268 54 287.5 62.5 c 128,-1,28
 307 71 307 71 320.5 89.5 c 128,-1,29
 334 108 334 108 334 135 c 2,30,-1
 334 370 l 2,31,32
 334 407 334 407 320.5 419 c 128,-1,33
 307 431 307 431 260 433 c 1,34,-1
 260 450 l 1,35,-1
 418 450 l 1,36,-1
 418 107 l 2,37,38
 418 72 418 72 429 61 c 128,-1,39
 440 50 440 50 475 50 c 2,40,-1
 480 50 l 1,0,-1
EndSplineSet
Validated: 1
EndChar

StartChar: v
Encoding: 118 118 90
Width: 468
Flags: W
LayerCount: 2
Fore
SplineSet
463 450 m 1,0,-1
 463 435 l 1,1,2
 440 433 440 433 429 420 c 128,-1,3
 418 407 418 407 398 357 c 2,4,-1
 270 36 l 2,5,6
 250 -14 250 -14 242 -14 c 0,7,8
 231 -14 231 -14 216 33 c 1,9,-1
 96 320 l 2,10,11
 64 397 64 397 49 415 c 128,-1,12
 34 433 34 433 5 435 c 1,13,-1
 5 450 l 1,14,-1
 201 450 l 1,15,-1
 201 435 l 1,16,17
 175 433 175 433 165 427 c 128,-1,18
 155 421 155 421 155 407 c 0,19,20
 155 391 155 391 164 370 c 2,21,-1
 266 114 l 1,22,-1
 365 373 l 2,23,24
 371 388 371 388 371 403 c 0,25,26
 371 431 371 431 324 435 c 1,27,-1
 324 450 l 1,28,-1
 463 450 l 1,0,-1
EndSplineSet
Validated: 1
EndChar

StartChar: w
Encoding: 119 119 91
Width: 683
Flags: W
LayerCount: 2
Fore
SplineSet
335 310 m 1,0,1
 308 390 308 390 293.5 410.5 c 128,-1,2
 279 431 279 431 246 435 c 1,3,-1
 246 450 l 1,4,-1
 449 450 l 1,5,-1
 449 435 l 1,6,7
 414 430 414 430 402.5 423 c 128,-1,8
 391 416 391 416 391 399 c 0,9,10
 391 386 391 386 408 340 c 2,11,-1
 492 116 l 1,12,-1
 582 338 l 2,13,14
 599 380 599 380 599 404 c 0,15,16
 599 417 599 417 590 423.5 c 128,-1,17
 581 430 581 430 555 435 c 1,18,-1
 555 450 l 1,19,-1
 678 450 l 1,20,-1
 678 435 l 1,21,22
 663 430 663 430 656.5 421 c 128,-1,23
 650 412 650 412 637 381 c 2,24,-1
 499 35 l 2,25,26
 479 -14 479 -14 471 -14 c 128,-1,27
 463 -14 463 -14 447 29 c 2,28,-1
 356 265 l 1,29,-1
 244 25 l 2,30,31
 226 -14 226 -14 219 -14 c 0,32,33
 211 -14 211 -14 193 30 c 2,34,-1
 58 372 l 2,35,36
 43 410 43 410 33 421.5 c 128,-1,37
 23 433 23 433 5 435 c 1,38,-1
 5 450 l 1,39,-1
 185 450 l 1,40,-1
 185 435 l 1,41,42
 159 432 159 432 149 425 c 128,-1,43
 139 418 139 418 139 402 c 0,44,45
 139 387 139 387 145 372 c 2,46,-1
 244 111 l 1,47,-1
 335 310 l 1,0,1
EndSplineSet
Validated: 1
Substitution2: "<10,1> Superiors in Latin lookup 4 subtable" wsuper
EndChar

StartChar: x
Encoding: 120 120 92
Width: 482
Flags: W
LayerCount: 2
Fore
SplineSet
241 304 m 1,0,1
 252 321 252 321 267 341.5 c 128,-1,2
 282 362 282 362 289.5 372.5 c 128,-1,3
 297 383 297 383 302.5 394 c 128,-1,4
 308 405 308 405 308 413 c 0,5,6
 308 432 308 432 268 435 c 1,7,-1
 268 450 l 1,8,-1
 426 450 l 1,9,-1
 426 435 l 1,10,11
 375 433 375 433 345 391 c 2,12,-1
 262 271 l 1,13,-1
 390 75 l 2,14,15
 412 42 412 42 430.5 28.5 c 128,-1,16
 449 15 449 15 472 15 c 1,17,-1
 472 0 l 1,18,-1
 271 0 l 1,19,-1
 271 15 l 1,20,21
 296 17 296 17 303.5 21.5 c 128,-1,22
 311 26 311 26 311 39 c 0,23,24
 311 48 311 48 305 57 c 2,25,-1
 214 197 l 1,26,-1
 135 74 l 2,27,28
 115 43 115 43 115 33 c 0,29,30
 115 15 115 15 155 15 c 1,31,-1
 155 0 l 1,32,-1
 10 0 l 1,33,-1
 10 15 l 1,34,35
 35 17 35 17 48.5 26 c 128,-1,36
 62 35 62 35 83 66 c 2,37,-1
 197 231 l 1,38,-1
 103 375 l 2,39,40
 85 403 85 403 70.5 416 c 128,-1,41
 56 429 56 429 46.5 432 c 128,-1,42
 37 435 37 435 17 435 c 1,43,-1
 17 450 l 1,44,-1
 224 450 l 1,45,-1
 224 435 l 1,46,47
 181 434 181 434 181 413 c 0,48,49
 181 393 181 393 227 324 c 1,50,-1
 241 304 l 1,0,1
EndSplineSet
Validated: 1
Substitution2: "<10,1> Superiors in Latin lookup 4 subtable" xsuper
EndChar

StartChar: y
Encoding: 121 121 93
Width: 471
Flags: W
LayerCount: 2
Fore
SplineSet
142 -134 m 0,0,1
 170 -134 170 -134 201 -72 c 128,-1,2
 232 -10 232 -10 232 19 c 0,3,4
 232 32 232 32 188 120 c 1,5,-1
 56 404 l 2,6,7
 44 430 44 430 5 436 c 1,8,-1
 5 450 l 1,9,-1
 211 450 l 1,10,-1
 211 435 l 1,11,12
 179 434 179 434 166 428 c 128,-1,13
 153 422 153 422 153 408 c 0,14,15
 153 393 153 393 163 370 c 2,16,-1
 278 117 l 1,17,-1
 375 393 l 2,18,19
 379 402 379 402 379 410 c 0,20,21
 379 435 379 435 331 435 c 1,22,-1
 331 450 l 1,23,-1
 466 450 l 1,24,-1
 466 435 l 1,25,26
 448 433 448 433 437.5 423.5 c 128,-1,27
 427 414 427 414 418 390 c 2,28,-1
 264 -18 l 2,29,30
 224 -126 224 -126 184.5 -172 c 128,-1,31
 145 -218 145 -218 95 -218 c 0,32,33
 63 -218 63 -218 42 -201.5 c 128,-1,34
 21 -185 21 -185 21 -160 c 0,35,36
 21 -142 21 -142 34 -129 c 128,-1,37
 47 -116 47 -116 64 -116 c 0,38,39
 86 -116 86 -116 111 -125 c 128,-1,40
 136 -134 136 -134 142 -134 c 0,0,1
EndSplineSet
Validated: 1
Substitution2: "<10,1> Superiors in Latin lookup 4 subtable" ysuper
EndChar

StartChar: z
Encoding: 122 122 94
Width: 417
Flags: W
LayerCount: 2
Fore
SplineSet
255 30 m 2,0,1
 294 30 294 30 317 35 c 128,-1,2
 340 40 340 40 353 57 c 128,-1,3
 366 74 366 74 371 89 c 128,-1,4
 376 104 376 104 383 139 c 1,5,-1
 401 135 l 1,6,-1
 387 0 l 1,7,-1
 10 0 l 1,8,-1
 10 15 l 1,9,-1
 276 420 l 1,10,-1
 138 420 l 2,11,12
 93 420 93 420 77 403.5 c 128,-1,13
 61 387 61 387 54 332 c 1,14,-1
 36 332 l 1,15,-1
 39 450 l 1,16,-1
 386 450 l 1,17,-1
 386 435 l 1,18,-1
 117 30 l 1,19,-1
 255 30 l 2,0,1
EndSplineSet
Validated: 1
EndChar

StartChar: braceleft
Encoding: 123 123 95
Width: 480
Flags: W
LayerCount: 2
Fore
SplineSet
350 -181 m 1,0,1
 262 -179 262 -179 223.5 -152 c 128,-1,2
 185 -125 185 -125 185 -41 c 2,3,-1
 185 136 l 2,4,5
 185 188 185 188 167.5 211 c 128,-1,6
 150 234 150 234 100 250 c 1,7,8
 150 265 150 265 167.5 288 c 128,-1,9
 185 311 185 311 185 363 c 2,10,-1
 185 541 l 2,11,12
 185 585 185 585 195 612.5 c 128,-1,13
 205 640 205 640 228 654.5 c 128,-1,14
 251 669 251 669 278.5 674 c 128,-1,15
 306 679 306 679 350 680 c 1,16,-1
 350 669 l 1,17,18
 298 656 298 656 278.5 629 c 128,-1,19
 259 602 259 602 259 546 c 2,20,-1
 259 378 l 2,21,22
 259 316 259 316 240 290 c 128,-1,23
 221 264 221 264 165 249 c 1,24,25
 221 235 221 235 240 209 c 128,-1,26
 259 183 259 183 259 121 c 2,27,-1
 259 -47 l 2,28,29
 259 -103 259 -103 278.5 -130 c 128,-1,30
 298 -157 298 -157 350 -170 c 1,31,-1
 350 -181 l 1,0,1
EndSplineSet
Validated: 1
Substitution2: "'rtla' Right to Left Alternates lookup 0 subtable" braceright
EndChar

StartChar: bar
Encoding: 124 124 96
Width: 200
Flags: W
LayerCount: 2
Fore
SplineSet
67 -14 m 1,0,-1
 67 676 l 1,1,-1
 133 676 l 1,2,-1
 133 -14 l 1,3,-1
 67 -14 l 1,0,-1
EndSplineSet
Validated: 1
EndChar

StartChar: asciitilde
Encoding: 126 126 98
Width: 500
Flags: W
LayerCount: 2
Fore
SplineSet
142 320 m 0,0,1
 192 320 192 320 255 286 c 128,-1,2
 318 252 318 252 353 252 c 0,3,4
 376 252 376 252 391.5 263 c 128,-1,5
 407 274 407 274 427 303 c 1,6,-1
 481 271 l 1,7,8
 447 223 447 223 420 204.5 c 128,-1,9
 393 186 393 186 358 186 c 0,10,11
 308 186 308 186 245 220 c 128,-1,12
 182 254 182 254 147 254 c 0,13,14
 124 254 124 254 108.5 243 c 128,-1,15
 93 232 93 232 73 203 c 1,16,-1
 19 235 l 1,17,18
 53 283 53 283 80 301.5 c 128,-1,19
 107 320 107 320 142 320 c 0,0,1
EndSplineSet
Validated: 1
EndChar

StartChar: cent
Encoding: 162 162 101
Width: 500
Flags: W
LayerCount: 2
Fore
SplineSet
169 12 m 1,0,1
 53 78 53 78 53 219 c 0,2,3
 53 320 53 320 116.5 390 c 128,-1,4
 180 460 180 460 273 460 c 0,5,6
 294 460 294 460 324 455 c 1,7,-1
 368 579 l 1,8,-1
 403 579 l 1,9,-1
 356 444 l 1,10,11
 431 414 431 414 431 360 c 0,12,13
 431 340 431 340 419 327.5 c 128,-1,14
 407 315 407 315 388 315 c 128,-1,15
 369 315 369 315 356 326.5 c 128,-1,16
 343 338 343 338 330 367 c 1,17,-1
 229 76 l 1,18,19
 261 64 261 64 288 64 c 0,20,21
 332 64 332 64 364 86 c 128,-1,22
 396 108 396 108 435 164 c 1,23,-1
 448 156 l 1,24,25
 436 131 436 131 429.5 118.5 c 128,-1,26
 423 106 423 106 404 77.5 c 128,-1,27
 385 49 385 49 367 33.5 c 128,-1,28
 349 18 349 18 319.5 4.5 c 128,-1,29
 290 -9 290 -9 257 -9 c 0,30,31
 232 -9 232 -9 201 0 c 1,32,-1
 152 -138 l 1,33,-1
 118 -138 l 1,34,-1
 169 12 l 1,0,1
198 98 m 1,35,-1
 313 421 l 1,36,37
 290 430 290 430 266 430 c 0,38,39
 205 430 205 430 167.5 383.5 c 128,-1,40
 130 337 130 337 130 260 c 0,41,42
 130 206 130 206 145.5 169 c 128,-1,43
 161 132 161 132 198 98 c 1,35,-1
EndSplineSet
Validated: 1
EndChar

StartChar: sterling
Encoding: 163 163 102
Width: 500
Flags: W
LayerCount: 2
Fore
SplineSet
490 136 m 0,0,1
 490 124 490 124 479.5 101.5 c 128,-1,2
 469 79 469 79 449.5 54 c 128,-1,3
 430 29 430 29 396 11 c 128,-1,4
 362 -7 362 -7 322 -7 c 0,5,6
 290 -7 290 -7 259.5 6 c 128,-1,7
 229 19 229 19 178 54 c 1,8,9
 148 19 148 19 127 5.5 c 128,-1,10
 106 -8 106 -8 80 -8 c 0,11,12
 49 -8 49 -8 30.5 9 c 128,-1,13
 12 26 12 26 12 54 c 0,14,15
 12 88 12 88 37 109 c 128,-1,16
 62 130 62 130 103 130 c 0,17,18
 125 130 125 130 149 125 c 1,19,20
 153 136 153 136 153 146 c 0,21,22
 153 166 153 166 131 328 c 1,23,-1
 23 328 l 1,24,-1
 23 373 l 1,25,-1
 130 373 l 1,26,27
 123 409 123 409 123 442 c 0,28,29
 123 549 123 549 176 612.5 c 128,-1,30
 229 676 229 676 318 676 c 0,31,32
 374 676 374 676 411 649.5 c 128,-1,33
 448 623 448 623 448 583 c 0,34,35
 448 560 448 560 434 545 c 128,-1,36
 420 530 420 530 398 530 c 128,-1,37
 376 530 376 530 368 543.5 c 128,-1,38
 360 557 360 557 359 597 c 0,39,40
 358 649 358 649 303 649 c 0,41,42
 258 649 258 649 233 612.5 c 128,-1,43
 208 576 208 576 208 510 c 0,44,45
 208 466 208 466 219 373 c 1,46,-1
 344 373 l 1,47,-1
 344 328 l 1,48,-1
 223 328 l 1,49,50
 224 306 224 306 224 273 c 0,51,52
 224 238 224 238 199 111 c 1,53,54
 283 76 283 76 348 76 c 0,55,56
 382 76 382 76 407 86 c 128,-1,57
 432 96 432 96 443.5 108.5 c 128,-1,58
 455 121 455 121 465.5 131 c 128,-1,59
 476 141 476 141 484 141 c 0,60,61
 490 141 490 141 490 136 c 0,0,1
79 20 m 0,62,63
 107 20 107 20 124.5 41.5 c 128,-1,64
 142 63 142 63 142 76 c 0,65,66
 142 82 142 82 124.5 88 c 128,-1,67
 107 94 107 94 89 94 c 0,68,69
 38 94 38 94 38 57 c 0,70,71
 38 41 38 41 49.5 30.5 c 128,-1,72
 61 20 61 20 79 20 c 0,62,63
EndSplineSet
Validated: 1
EndChar

StartChar: currency
Encoding: 164 164 103
Width: 500
Flags: W
LayerCount: 2
Fore
SplineSet
-22 108 m 1,0,-1
 76 204 l 1,1,2
 35 263 35 263 35 330 c 0,3,4
 35 399 35 399 76 456 c 1,5,-1
 -22 554 l 1,6,-1
 28 602 l 1,7,-1
 124 506 l 1,8,9
 185 545 185 545 251 545 c 0,10,11
 320 545 320 545 376 506 c 1,12,-1
 474 602 l 1,13,-1
 522 554 l 1,14,-1
 426 456 l 1,15,16
 465 398 465 398 465 331 c 0,17,18
 465 265 465 265 426 204 c 1,19,-1
 522 108 l 1,20,-1
 474 58 l 1,21,-1
 376 156 l 1,22,23
 319 115 319 115 251 115 c 0,24,25
 186 115 186 115 124 156 c 1,26,-1
 28 58 l 1,27,-1
 -22 108 l 1,0,-1
253 481 m 0,28,29
 190 481 190 481 146.5 437 c 128,-1,30
 103 393 103 393 103 330 c 0,31,32
 103 268 103 268 146.5 223.5 c 128,-1,33
 190 179 190 179 251 179 c 128,-1,34
 312 179 312 179 354.5 223 c 128,-1,35
 397 267 397 267 397 331 c 0,36,37
 397 393 397 393 354.5 437 c 128,-1,38
 312 481 312 481 253 481 c 0,28,29
EndSplineSet
Validated: 1
EndChar

StartChar: yen
Encoding: 165 165 104
Width: 500
Flags: W
LayerCount: 2
Fore
SplineSet
190 182 m 1,0,-1
 16 182 l 1,1,-1
 16 222 l 1,2,-1
 190 222 l 1,3,-1
 190 298 l 1,4,-1
 183 312 l 1,5,-1
 16 312 l 1,6,-1
 16 352 l 1,7,-1
 160 352 l 1,8,-1
 65 525 l 2,9,10
 24 599 24 599 3 620 c 128,-1,11
 -18 641 -18 641 -53 643 c 1,12,-1
 -53 662 l 1,13,-1
 190 662 l 1,14,-1
 190 643 l 1,15,16
 125 642 125 642 125 614 c 0,17,18
 125 595 125 595 138 569 c 2,19,-1
 256 348 l 1,20,-1
 368 568 l 2,21,22
 382 594 382 594 382 612 c 0,23,24
 382 643 382 643 317 643 c 1,25,-1
 317 662 l 1,26,-1
 512 662 l 1,27,-1
 512 643 l 1,28,29
 473 635 473 635 446.5 611 c 128,-1,30
 420 587 420 587 394 536 c 2,31,-1
 302 352 l 1,32,-1
 448 352 l 1,33,-1
 448 312 l 1,34,-1
 282 312 l 1,35,-1
 275 298 l 1,36,-1
 275 222 l 1,37,-1
 448 222 l 1,38,-1
 448 182 l 1,39,-1
 275 182 l 1,40,-1
 275 109 l 2,41,42
 275 56 275 56 291 38 c 128,-1,43
 307 20 307 20 355 19 c 1,44,-1
 355 0 l 1,45,-1
 111 0 l 1,46,-1
 111 19 l 1,47,48
 161 21 161 21 175.5 39.5 c 128,-1,49
 190 58 190 58 190 120 c 2,50,-1
 190 182 l 1,0,-1
EndSplineSet
Validated: 1
EndChar

StartChar: brokenbar
Encoding: 166 166 105
Width: 200
Flags: W
LayerCount: 2
Fore
SplineSet
67 -14 m 1,0,-1
 67 262 l 1,1,-1
 133 262 l 1,2,-1
 133 -14 l 1,3,-1
 67 -14 l 1,0,-1
67 400 m 1,4,-1
 67 676 l 1,5,-1
 133 676 l 1,6,-1
 133 400 l 1,7,-1
 67 400 l 1,4,-1
EndSplineSet
Validated: 1
EndChar

StartChar: section
Encoding: 167 167 106
Width: 500
Flags: W
LayerCount: 2
Fore
SplineSet
279 568 m 128,-1,1
 279 587 279 587 296 604 c 128,-1,2
 313 621 313 621 313 623 c 0,3,4
 313 636 313 636 295 645.5 c 128,-1,5
 277 655 277 655 251 655 c 0,6,7
 213 655 213 655 189.5 635.5 c 128,-1,8
 166 616 166 616 166 584 c 0,9,10
 166 542 166 542 200 513 c 2,11,-1
 337 400 l 2,12,13
 426 326 426 326 426 245 c 0,14,15
 426 192 426 192 393.5 158 c 128,-1,16
 361 124 361 124 310 124 c 0,17,18
 304 124 304 124 292 125 c 1,19,20
 348 76 348 76 367 46.5 c 128,-1,21
 386 17 386 17 386 -21 c 0,22,23
 386 -78 386 -78 346.5 -113 c 128,-1,24
 307 -148 307 -148 242 -148 c 0,25,26
 184 -148 184 -148 144 -119 c 128,-1,27
 104 -90 104 -90 104 -48 c 0,28,29
 104 -25 104 -25 119.5 -9.5 c 128,-1,30
 135 6 135 6 158 6 c 0,31,32
 178 6 178 6 192 -6 c 128,-1,33
 206 -18 206 -18 206 -36 c 128,-1,34
 206 -54 206 -54 189 -71 c 128,-1,35
 172 -88 172 -88 172 -92 c 0,36,37
 172 -106 172 -106 193.5 -116.5 c 128,-1,38
 215 -127 215 -127 243 -127 c 0,39,40
 283 -127 283 -127 306.5 -106 c 128,-1,41
 330 -85 330 -85 330 -50 c 0,42,43
 330 -18 330 -18 303 12.5 c 128,-1,44
 276 43 276 43 238 69.5 c 128,-1,45
 200 96 200 96 162 125 c 128,-1,46
 124 154 124 154 97 196 c 128,-1,47
 70 238 70 238 70 286 c 0,48,49
 70 337 70 337 103 371 c 128,-1,50
 136 405 136 405 185 405 c 0,51,52
 200 405 200 405 210 404 c 1,53,54
 150 454 150 454 130 484 c 128,-1,55
 110 514 110 514 110 554 c 0,56,57
 110 608 110 608 148.5 642 c 128,-1,58
 187 676 187 676 249 676 c 0,59,60
 304 676 304 676 340.5 648 c 128,-1,61
 377 620 377 620 377 578 c 0,62,63
 377 553 377 553 363.5 539 c 128,-1,64
 350 525 350 525 326 525 c 0,65,66
 306 525 306 525 292.5 537 c 128,-1,0
 279 549 279 549 279 568 c 128,-1,1
374 212 m 0,67,68
 374 264 374 264 301.5 323.5 c 128,-1,69
 229 383 229 383 191 383 c 0,70,71
 162 383 162 383 142.5 364 c 128,-1,72
 123 345 123 345 123 316 c 0,73,74
 123 266 123 266 189.5 206 c 128,-1,75
 256 146 256 146 305 146 c 0,76,77
 333 146 333 146 353.5 166 c 128,-1,78
 374 186 374 186 374 212 c 0,67,68
EndSplineSet
Validated: 1
EndChar

StartChar: copyright
Encoding: 169 169 108
Width: 793
Flags: W
LayerCount: 2
Fore
SplineSet
401 676 m 0,0,1
 262 676 262 676 164.5 581 c 128,-1,2
 67 486 67 486 67 350 c 0,3,4
 67 212 67 212 163 115 c 128,-1,5
 259 18 259 18 396 18 c 0,6,7
 532 18 532 18 628.5 114.5 c 128,-1,8
 725 211 725 211 725 347 c 0,9,10
 725 482 725 482 629 579 c 128,-1,11
 533 676 533 676 401 676 c 0,0,1
402 717 m 0,12,13
 551 717 551 717 658.5 608.5 c 128,-1,14
 766 500 766 500 766 347 c 0,15,16
 766 196 766 196 657 86.5 c 128,-1,17
 548 -23 548 -23 396 -23 c 0,18,19
 240 -23 240 -23 133 84 c 128,-1,20
 26 191 26 191 26 350 c 0,21,22
 26 504 26 504 135.5 610.5 c 128,-1,23
 245 717 245 717 402 717 c 0,12,13
203 337 m 0,24,25
 203 431 203 431 260.5 489.5 c 128,-1,26
 318 548 318 548 404 548 c 0,27,28
 442 548 442 548 476 538 c 128,-1,29
 510 528 510 528 515 528 c 0,30,31
 535 528 535 528 540 548 c 1,32,-1
 553 548 l 1,33,-1
 558 412 l 1,34,-1
 544 412 l 1,35,36
 511 524 511 524 415 524 c 0,37,38
 350 524 350 524 311.5 475 c 128,-1,39
 273 426 273 426 273 345 c 0,40,41
 273 293 273 293 286.5 254.5 c 128,-1,42
 300 216 300 216 322.5 196.5 c 128,-1,43
 345 177 345 177 369.5 168.5 c 128,-1,44
 394 160 394 160 421 160 c 0,45,46
 492 160 492 160 555 221 c 1,47,-1
 566 210 l 1,48,49
 538 173 538 173 495.5 153.5 c 128,-1,50
 453 134 453 134 402 134 c 0,51,52
 313 134 313 134 258 189.5 c 128,-1,53
 203 245 203 245 203 337 c 0,24,25
EndSplineSet
Validated: 1
EndChar

StartChar: ordfeminine
Encoding: 170 170 109
Width: 276
Flags: W
LayerCount: 2
Fore
SplineSet
10 333 m 1,0,-1
 256 333 l 1,1,-1
 256 270 l 1,2,-1
 10 270 l 1,3,-1
 10 333 l 1,0,-1
76 625 m 0,4,5
 76 620 76 620 77.5 613.5 c 128,-1,6
 79 607 79 607 79 603 c 0,7,8
 79 593 79 593 69.5 585.5 c 128,-1,9
 60 578 60 578 48 578 c 0,10,11
 35 578 35 578 25.5 587 c 128,-1,12
 16 596 16 596 16 609 c 0,13,14
 16 638 16 638 46.5 657 c 128,-1,15
 77 676 77 676 124 676 c 0,16,17
 229 676 229 676 229 580 c 2,18,-1
 229 465 l 2,19,20
 229 443 229 443 231.5 436.5 c 128,-1,21
 234 430 234 430 242 430 c 0,22,23
 255 430 255 430 270 442 c 1,24,-1
 270 424 l 1,25,26
 240 394 240 394 211 394 c 0,27,28
 191 394 191 394 181 404 c 128,-1,29
 171 414 171 414 166 438 c 1,30,31
 118 394 118 394 75 394 c 0,32,33
 44 394 44 394 24 413 c 128,-1,34
 4 432 4 432 4 462 c 0,35,36
 4 483 4 483 15 500 c 128,-1,37
 26 517 26 517 48 529.5 c 128,-1,38
 70 542 70 542 89.5 550.5 c 128,-1,39
 109 559 109 559 140 570 c 0,40,41
 151 574 151 574 157 576 c 1,42,-1
 157 606 l 2,43,44
 157 648 157 648 121 648 c 0,45,46
 105 648 105 648 90.5 640.5 c 128,-1,47
 76 633 76 633 76 625 c 0,4,5
105 441 m 0,48,49
 126 441 126 441 142 450 c 128,-1,50
 158 459 158 459 158 474 c 2,51,-1
 158 551 l 1,52,53
 105 532 105 532 86 518 c 128,-1,54
 67 504 67 504 67 485 c 0,55,56
 67 467 67 467 78 454 c 128,-1,57
 89 441 89 441 105 441 c 0,48,49
EndSplineSet
Validated: 1
EndChar

StartChar: guillemotleft
Encoding: 171 171 110
Width: 500
Flags: W
LayerCount: 2
Fore
SplineSet
135 224 m 1,0,1
 154 196 154 196 188 154 c 128,-1,2
 222 112 222 112 242.5 84 c 128,-1,3
 263 56 263 56 263 42 c 0,4,5
 263 33 263 33 254 33 c 0,6,7
 250 33 250 33 233 49 c 0,8,9
 162 117 162 117 42 222 c 1,10,11
 170 338 170 338 239 403 c 0,12,13
 253 416 253 416 254 416 c 0,14,15
 264 416 264 416 264 406 c 0,16,17
 264 392 264 392 244 363.5 c 128,-1,18
 224 335 224 335 186 288 c 128,-1,19
 148 241 148 241 135 224 c 1,0,1
329 224 m 1,20,21
 348 196 348 196 382 154 c 128,-1,22
 416 112 416 112 436.5 84 c 128,-1,23
 457 56 457 56 457 42 c 0,24,25
 457 33 457 33 448 33 c 0,26,27
 444 33 444 33 427 49 c 0,28,29
 356 117 356 117 236 222 c 1,30,31
 364 338 364 338 433 403 c 0,32,33
 447 416 447 416 448 416 c 0,34,35
 458 416 458 416 458 406 c 0,36,37
 458 392 458 392 438 363.5 c 128,-1,38
 418 335 418 335 380 288 c 128,-1,39
 342 241 342 241 329 224 c 1,20,21
EndSplineSet
Validated: 1
EndChar

StartChar: logicalnot
Encoding: 172 172 111
Width: 564
Flags: W
LayerCount: 2
Fore
SplineSet
468 108 m 1,0,-1
 468 320 l 1,1,-1
 30 320 l 1,2,-1
 30 386 l 1,3,-1
 534 386 l 1,4,-1
 534 108 l 1,5,-1
 468 108 l 1,0,-1
EndSplineSet
Validated: 1
EndChar

StartChar: registered
Encoding: 174 174 113
Width: 792
Flags: W
LayerCount: 2
Fore
SplineSet
401 676 m 0,0,1
 262 676 262 676 164.5 581 c 128,-1,2
 67 486 67 486 67 350 c 0,3,4
 67 212 67 212 163 115 c 128,-1,5
 259 18 259 18 396 18 c 0,6,7
 532 18 532 18 628.5 114.5 c 128,-1,8
 725 211 725 211 725 347 c 0,9,10
 725 482 725 482 629 579 c 128,-1,11
 533 676 533 676 401 676 c 0,0,1
402 717 m 0,12,13
 551 717 551 717 658.5 608.5 c 128,-1,14
 766 500 766 500 766 347 c 0,15,16
 766 196 766 196 657 86.5 c 128,-1,17
 548 -23 548 -23 396 -23 c 0,18,19
 240 -23 240 -23 133 84 c 128,-1,20
 26 191 26 191 26 350 c 0,21,22
 26 504 26 504 135.5 610.5 c 128,-1,23
 245 717 245 717 402 717 c 0,12,13
391 539 m 2,24,25
 416 539 416 539 439.5 535 c 128,-1,26
 463 531 463 531 488 520.5 c 128,-1,27
 513 510 513 510 528 487.5 c 128,-1,28
 543 465 543 465 543 434 c 0,29,30
 543 354 543 354 437 334 c 0,31,32
 436 333 436 333 434 333 c 1,33,-1
 558 182 l 2,34,35
 571 167 571 167 582 161 c 128,-1,36
 593 155 593 155 610 153 c 1,37,-1
 610 142 l 1,38,-1
 514 142 l 1,39,-1
 371 327 l 1,40,-1
 337 326 l 1,41,-1
 337 207 l 2,42,43
 337 175 337 175 346.5 165.5 c 128,-1,44
 356 156 356 156 391 153 c 1,45,-1
 391 142 l 1,46,-1
 225 142 l 1,47,-1
 225 153 l 1,48,49
 259 156 259 156 267.5 166.5 c 128,-1,50
 276 177 276 177 276 214 c 2,51,-1
 276 474 l 2,52,53
 276 506 276 506 267.5 515 c 128,-1,54
 259 524 259 524 225 528 c 1,55,-1
 225 539 l 1,56,-1
 391 539 l 2,24,25
337 348 m 1,57,58
 410 349 410 349 444 367 c 128,-1,59
 478 385 478 385 478 435 c 0,60,61
 478 477 478 477 451 497 c 128,-1,62
 424 517 424 517 368 517 c 0,63,64
 350 517 350 517 343.5 512.5 c 128,-1,65
 337 508 337 508 337 495 c 2,66,-1
 337 348 l 1,57,58
EndSplineSet
Validated: 1
EndChar

StartChar: macron
Encoding: 175 175 114
Width: 333
Flags: W
LayerCount: 2
Fore
SplineSet
11 601 m 1,0,-1
 322 601 l 1,1,-1
 322 547 l 1,2,-1
 11 547 l 1,3,-1
 11 601 l 1,0,-1
EndSplineSet
Validated: 1
EndChar

StartChar: degree
Encoding: 176 176 115
Width: 400
Flags: W
LayerCount: 2
Fore
SplineSet
200 676 m 128,-1,1
 260 676 260 676 301.5 634.5 c 128,-1,2
 343 593 343 593 343 532 c 0,3,4
 343 472 343 472 301 431 c 128,-1,5
 259 390 259 390 198 390 c 0,6,7
 140 390 140 390 98.5 432 c 128,-1,8
 57 474 57 474 57 533 c 0,9,10
 57 593 57 593 98.5 634.5 c 128,-1,0
 140 676 140 676 200 676 c 128,-1,1
200 642 m 0,11,12
 157 642 157 642 126.5 609.5 c 128,-1,13
 96 577 96 577 96 533 c 128,-1,14
 96 489 96 489 126.5 456.5 c 128,-1,15
 157 424 157 424 199 424 c 0,16,17
 242 424 242 424 273 456 c 128,-1,18
 304 488 304 488 304 533 c 0,19,20
 304 577 304 577 273 609.5 c 128,-1,21
 242 642 242 642 200 642 c 0,11,12
EndSplineSet
Validated: 1
EndChar

StartChar: plusminus
Encoding: 177 177 116
Width: 564
Flags: W
LayerCount: 2
Fore
SplineSet
30 0 m 1,0,-1
 30 66 l 1,1,-1
 534 66 l 1,2,-1
 534 0 l 1,3,-1
 30 0 l 1,0,-1
249 413 m 1,4,-1
 249 633 l 1,5,-1
 315 633 l 1,6,-1
 315 413 l 1,7,-1
 534 413 l 1,8,-1
 534 347 l 1,9,-1
 315 347 l 1,10,-1
 315 127 l 1,11,-1
 249 127 l 1,12,-1
 249 347 l 1,13,-1
 30 347 l 1,14,-1
 30 413 l 1,15,-1
 249 413 l 1,4,-1
EndSplineSet
Validated: 1
EndChar

StartChar: twosuperior
Encoding: 178 178 117
Width: 320
Flags: W
LayerCount: 2
Fore
SplineSet
13 714 m 1,0,1
 43 850 43 850 155 850 c 0,2,3
 209 850 209 850 246.5 815 c 128,-1,4
 284 780 284 780 284 729 c 0,5,6
 284 643 284 643 203 561 c 2,7,-1
 93 450 l 1,8,-1
 236 450 l 2,9,10
 260 450 260 450 271 456 c 128,-1,11
 282 462 282 462 300 487 c 1,12,-1
 315 483 l 1,13,-1
 278 390 l 1,14,-1
 12 390 l 1,15,-1
 12 400 l 1,16,-1
 133 529 l 2,17,18
 218 620 218 620 218 703 c 0,19,20
 218 746 218 746 193.5 770.5 c 128,-1,21
 169 795 169 795 126 795 c 0,22,23
 94 795 94 795 74 776.5 c 128,-1,24
 54 758 54 758 31 710 c 1,25,-1
 13 714 l 1,0,1
EndSplineSet
Validated: 1
EndChar

StartChar: threesuperior
Encoding: 179 179 118
Width: 320
Flags: W
LayerCount: 2
Fore
SplineSet
55 451 m 0,0,1
 70 451 70 451 101.5 432 c 128,-1,2
 133 413 133 413 156 413 c 0,3,4
 191 413 191 413 214 438.5 c 128,-1,5
 237 464 237 464 237 506 c 0,6,7
 237 612 237 612 104 612 c 1,8,-1
 104 625 l 1,9,10
 153 642 153 642 181 666 c 128,-1,11
 209 690 209 690 209 736 c 0,12,13
 209 767 209 767 190.5 784 c 128,-1,14
 172 801 172 801 142 801 c 0,15,16
 109 801 109 801 87.5 787 c 128,-1,17
 66 773 66 773 45 736 c 1,18,-1
 31 740 l 1,19,20
 70 850 70 850 165 850 c 0,21,22
 212 850 212 850 241.5 824 c 128,-1,23
 271 798 271 798 271 757 c 0,24,25
 271 729 271 729 256.5 708 c 128,-1,26
 242 687 242 687 207 663 c 1,27,28
 248 645 248 645 271 617.5 c 128,-1,29
 294 590 294 590 294 539 c 0,30,31
 294 466 294 466 243 423 c 128,-1,32
 192 380 192 380 106 380 c 0,33,34
 70 380 70 380 49.5 391 c 128,-1,35
 29 402 29 402 29 422 c 0,36,37
 29 451 29 451 55 451 c 0,0,1
EndSplineSet
Validated: 1
EndChar

StartChar: acute
Encoding: 180 180 119
Width: 250
Flags: W
LayerCount: 2
Fore
SplineSet
50 507 m 1,0,-1
 10 507 l 1,1,-1
 157 655 l 2,2,3
 180 678 180 678 199 678 c 0,4,5
 234 678 234 678 234 646 c 0,6,7
 234 623 234 623 204 604 c 2,8,-1
 50 507 l 1,0,-1
EndSplineSet
Validated: 1
EndChar

StartChar: micro
Encoding: 181 181 120
Width: 500
Flags: W
LayerCount: 2
Fore
SplineSet
36 -148 m 0,0,1
 36 -121 36 -121 48 -44 c 128,-1,2
 60 33 60 33 60 54 c 2,3,-1
 60 450 l 1,4,-1
 148 450 l 1,5,-1
 148 144 l 2,6,7
 148 101 148 101 170.5 76.5 c 128,-1,8
 193 52 193 52 232 52 c 0,9,10
 304 52 304 52 342 115 c 1,11,-1
 342 450 l 1,12,-1
 430 450 l 1,13,-1
 430 92 l 2,14,15
 430 27 430 27 462 27 c 0,16,17
 481 27 481 27 512 55 c 1,18,-1
 512 47 l 1,19,20
 487 15 487 15 466.5 2.5 c 128,-1,21
 446 -10 446 -10 418 -10 c 0,22,23
 348 -10 348 -10 345 80 c 1,24,25
 287 -10 287 -10 208 -10 c 0,26,27
 135 -10 135 -10 91 64 c 1,28,29
 97 13 97 13 112.5 -43.5 c 128,-1,30
 128 -100 128 -100 128 -141 c 0,31,32
 128 -218 128 -218 82 -218 c 128,-1,33
 36 -218 36 -218 36 -148 c 0,0,1
EndSplineSet
Validated: 1
EndChar

StartChar: paragraph
Encoding: 182 182 121
Width: 483
Flags: W
LayerCount: 2
Fore
SplineSet
202 273 m 1,0,1
 108 276 108 276 58 322 c 128,-1,2
 8 368 8 368 8 477 c 0,3,4
 8 575 8 575 57.5 618.5 c 128,-1,5
 107 662 107 662 217 662 c 2,6,-1
 480 662 l 1,7,-1
 480 643 l 1,8,9
 422 638 422 638 407 622.5 c 128,-1,10
 392 607 392 607 392 553 c 2,11,-1
 392 -42 l 2,12,13
 392 -95 392 -95 407.5 -111.5 c 128,-1,14
 423 -128 423 -128 480 -132 c 1,15,-1
 480 -154 l 1,16,-1
 326 -154 l 1,17,-1
 326 640 l 1,18,-1
 268 640 l 1,19,-1
 268 -154 l 1,20,-1
 114 -154 l 1,21,-1
 114 -132 l 1,22,23
 172 -128 172 -128 187 -111 c 128,-1,24
 202 -94 202 -94 202 -31 c 2,25,-1
 202 273 l 1,0,1
202 640 m 1,26,27
 140 635 140 635 112 603.5 c 128,-1,28
 84 572 84 572 84 481 c 0,29,30
 84 386 84 386 111 344 c 128,-1,31
 138 302 138 302 202 295 c 1,32,-1
 202 640 l 1,26,27
EndSplineSet
Validated: 1
EndChar

StartChar: middot
Encoding: 183 183 122
Width: 250
Flags: W
LayerCount: 2
Fore
SplineSet
123 282 m 0,0,1
 144 282 144 282 159 267 c 128,-1,2
 174 252 174 252 174 232 c 128,-1,3
 174 212 174 212 159 197.5 c 128,-1,4
 144 183 144 183 123 183 c 0,5,6
 103 183 103 183 89 197.5 c 128,-1,7
 75 212 75 212 75 233 c 0,8,9
 75 252 75 252 89.5 267 c 128,-1,10
 104 282 104 282 123 282 c 0,0,1
EndSplineSet
Validated: 1
EndChar

StartChar: cedilla
Encoding: 184 184 123
Width: 333
Flags: W
LayerCount: 2
Fore
SplineSet
98 -99 m 1,0,-1
 139 0 l 1,1,-1
 174 0 l 1,2,-1
 149 -65 l 1,3,4
 164 -62 164 -62 175 -62 c 0,5,6
 215 -62 215 -62 238 -80.5 c 128,-1,7
 261 -99 261 -99 261 -131 c 0,8,9
 261 -170 261 -170 227.5 -192.5 c 128,-1,10
 194 -215 194 -215 136 -215 c 0,11,12
 91 -215 91 -215 52 -199 c 1,13,-1
 66 -168 l 1,14,15
 103 -180 103 -180 131 -180 c 0,16,17
 156 -180 156 -180 171 -168 c 128,-1,18
 186 -156 186 -156 186 -136 c 0,19,20
 186 -117 186 -117 174 -108.5 c 128,-1,21
 162 -100 162 -100 133 -100 c 0,22,23
 116 -100 116 -100 105 -104 c 1,24,-1
 98 -99 l 1,0,-1
EndSplineSet
Validated: 1
EndChar

StartChar: onesuperior
Encoding: 185 185 124
Width: 320
Flags: W
LayerCount: 2
Fore
SplineSet
116 789 m 0,0,1
 104 789 104 789 67 774 c 1,2,-1
 67 788 l 1,3,-1
 190 850 l 1,4,-1
 199 848 l 1,5,-1
 199 444 l 2,6,7
 199 419 199 419 209.5 412 c 128,-1,8
 220 405 220 405 260 404 c 1,9,-1
 260 390 l 1,10,-1
 72 390 l 1,11,-1
 72 404 l 1,12,13
 109 405 109 405 121 415 c 128,-1,14
 133 425 133 425 133 457 c 2,15,-1
 133 757 l 2,16,17
 133 789 133 789 116 789 c 0,0,1
EndSplineSet
Validated: 1
EndChar

StartChar: ordmasculine
Encoding: 186 186 125
Width: 310
Flags: W
LayerCount: 2
Fore
SplineSet
30 333 m 1,0,-1
 276 333 l 1,1,-1
 276 270 l 1,2,-1
 30 270 l 1,3,-1
 30 333 l 1,0,-1
159 676 m 0,4,5
 223 676 223 676 263.5 638.5 c 128,-1,6
 304 601 304 601 304 542 c 0,7,8
 304 479 304 479 260 436.5 c 128,-1,9
 216 394 216 394 151 394 c 0,10,11
 88 394 88 394 47 433.5 c 128,-1,12
 6 473 6 473 6 533 c 0,13,14
 6 597 6 597 48.5 636.5 c 128,-1,15
 91 676 91 676 159 676 c 0,4,5
79 569 m 0,16,17
 79 508 79 508 101 467.5 c 128,-1,18
 123 427 123 427 160 427 c 0,19,20
 231 427 231 427 231 514 c 0,21,22
 231 571 231 571 208.5 607 c 128,-1,23
 186 643 186 643 150 643 c 0,24,25
 118 643 118 643 98.5 623 c 128,-1,26
 79 603 79 603 79 569 c 0,16,17
EndSplineSet
Validated: 1
EndChar

StartChar: guillemotright
Encoding: 187 187 126
Width: 500
Flags: W
LayerCount: 2
Fore
SplineSet
171 225 m 1,0,1
 152 253 152 253 118 295 c 128,-1,2
 84 337 84 337 63.5 365 c 128,-1,3
 43 393 43 393 43 407 c 0,4,5
 43 416 43 416 52 416 c 0,6,7
 56 416 56 416 73 400 c 0,8,9
 144 332 144 332 264 227 c 1,10,11
 136 111 136 111 67 46 c 0,12,13
 53 33 53 33 52 33 c 0,14,15
 42 33 42 33 42 43 c 0,16,17
 42 57 42 57 62 85.5 c 128,-1,18
 82 114 82 114 120 161 c 128,-1,19
 158 208 158 208 171 225 c 1,0,1
365 225 m 1,20,21
 346 253 346 253 312 295 c 128,-1,22
 278 337 278 337 257.5 365 c 128,-1,23
 237 393 237 393 237 407 c 0,24,25
 237 416 237 416 246 416 c 0,26,27
 250 416 250 416 267 400 c 0,28,29
 338 332 338 332 458 227 c 1,30,31
 330 111 330 111 261 46 c 0,32,33
 247 33 247 33 246 33 c 0,34,35
 236 33 236 33 236 43 c 0,36,37
 236 57 236 57 256 85.5 c 128,-1,38
 276 114 276 114 314 161 c 128,-1,39
 352 208 352 208 365 225 c 1,20,21
EndSplineSet
Validated: 1
EndChar

StartChar: onequarter
Encoding: 188 188 127
Width: 730
Flags: W
LayerCount: 2
Fore
SplineSet
704 159 m 1,0,-1
 704 112 l 1,1,-1
 643 112 l 1,2,-1
 643 0 l 1,3,-1
 582 0 l 1,4,-1
 582 112 l 1,5,-1
 395 112 l 1,6,-1
 395 159 l 1,7,-1
 605 460 l 1,8,-1
 643 460 l 1,9,-1
 643 159 l 1,10,-1
 704 159 l 1,0,-1
582 159 m 1,11,-1
 582 380 l 1,12,-1
 424 159 l 1,13,-1
 582 159 l 1,11,-1
581 676 m 1,14,-1
 131 -14 l 1,15,-1
 82 -14 l 1,16,-1
 535 676 l 1,17,-1
 581 676 l 1,14,-1
79 669 m 0,18,19
 67 669 67 669 30 654 c 1,20,-1
 30 668 l 1,21,-1
 153 730 l 1,22,-1
 162 728 l 1,23,-1
 162 324 l 2,24,25
 162 299 162 299 172.5 292 c 128,-1,26
 183 285 183 285 223 284 c 1,27,-1
 223 270 l 1,28,-1
 35 270 l 1,29,-1
 35 284 l 1,30,31
 72 285 72 285 84 295 c 128,-1,32
 96 305 96 305 96 337 c 2,33,-1
 96 637 l 2,34,35
 96 669 96 669 79 669 c 0,18,19
EndSplineSet
Validated: 1
Ligature2: "<11,2> Diagonal Fractions lookup 3 subtable" one slash four
EndChar

StartChar: onehalf
Encoding: 189 189 128
Width: 750
Flags: W
LayerCount: 2
Fore
SplineSet
581 676 m 1,0,-1
 131 -14 l 1,1,-1
 82 -14 l 1,2,-1
 535 676 l 1,3,-1
 581 676 l 1,0,-1
443 324 m 1,4,5
 473 460 473 460 585 460 c 0,6,7
 639 460 639 460 676.5 425 c 128,-1,8
 714 390 714 390 714 339 c 0,9,10
 714 253 714 253 633 171 c 2,11,-1
 523 60 l 1,12,-1
 666 60 l 2,13,14
 690 60 690 60 701 66 c 128,-1,15
 712 72 712 72 730 97 c 1,16,-1
 745 93 l 1,17,-1
 708 0 l 1,18,-1
 442 0 l 1,19,-1
 442 10 l 1,20,-1
 563 139 l 2,21,22
 648 230 648 230 648 313 c 0,23,24
 648 356 648 356 623.5 380.5 c 128,-1,25
 599 405 599 405 556 405 c 0,26,27
 524 405 524 405 504 386.5 c 128,-1,28
 484 368 484 368 461 320 c 1,29,-1
 443 324 l 1,4,5
79 669 m 0,30,31
 67 669 67 669 30 654 c 1,32,-1
 30 668 l 1,33,-1
 153 730 l 1,34,-1
 162 728 l 1,35,-1
 162 324 l 2,36,37
 162 299 162 299 172.5 292 c 128,-1,38
 183 285 183 285 223 284 c 1,39,-1
 223 270 l 1,40,-1
 35 270 l 1,41,-1
 35 284 l 1,42,43
 72 285 72 285 84 295 c 128,-1,44
 96 305 96 305 96 337 c 2,45,-1
 96 637 l 2,46,47
 96 669 96 669 79 669 c 0,30,31
EndSplineSet
Validated: 1
Ligature2: "<11,2> Diagonal Fractions lookup 3 subtable" one slash two
EndChar

StartChar: threequarters
Encoding: 190 190 129
Width: 750
Flags: W
LayerCount: 2
Fore
SplineSet
704 159 m 1,0,-1
 704 112 l 1,1,-1
 643 112 l 1,2,-1
 643 0 l 1,3,-1
 582 0 l 1,4,-1
 582 112 l 1,5,-1
 395 112 l 1,6,-1
 395 159 l 1,7,-1
 605 460 l 1,8,-1
 643 460 l 1,9,-1
 643 159 l 1,10,-1
 704 159 l 1,0,-1
582 159 m 1,11,-1
 582 380 l 1,12,-1
 424 159 l 1,13,-1
 582 159 l 1,11,-1
621 676 m 1,14,-1
 171 -14 l 1,15,-1
 122 -14 l 1,16,-1
 575 676 l 1,17,-1
 621 676 l 1,14,-1
55 330 m 0,18,19
 70 330 70 330 101.5 311 c 128,-1,20
 133 292 133 292 156 292 c 0,21,22
 191 292 191 292 214 317.5 c 128,-1,23
 237 343 237 343 237 385 c 0,24,25
 237 491 237 491 104 491 c 1,26,-1
 104 504 l 1,27,28
 153 521 153 521 181 545 c 128,-1,29
 209 569 209 569 209 615 c 0,30,31
 209 646 209 646 190.5 663 c 128,-1,32
 172 680 172 680 142 680 c 0,33,34
 109 680 109 680 87.5 666 c 128,-1,35
 66 652 66 652 45 615 c 1,36,-1
 31 619 l 1,37,38
 70 729 70 729 165 729 c 0,39,40
 212 729 212 729 241.5 703 c 128,-1,41
 271 677 271 677 271 636 c 0,42,43
 271 608 271 608 256.5 587 c 128,-1,44
 242 566 242 566 207 542 c 1,45,46
 248 524 248 524 271 496.5 c 128,-1,47
 294 469 294 469 294 418 c 0,48,49
 294 345 294 345 243 302 c 128,-1,50
 192 259 192 259 106 259 c 0,51,52
 70 259 70 259 49.5 270 c 128,-1,53
 29 281 29 281 29 301 c 0,54,55
 29 330 29 330 55 330 c 0,18,19
EndSplineSet
Validated: 1
Ligature2: "<11,2> Diagonal Fractions lookup 3 subtable" three slash four
EndChar

StartChar: AE
Encoding: 198 198 137
Width: 888
Flags: W
LayerCount: 2
Fore
SplineSet
750 229 m 1,0,1
 743 284 743 284 725 306.5 c 128,-1,2
 707 329 707 329 652 329 c 2,3,-1
 507 329 l 1,4,-1
 507 91 l 2,5,6
 507 54 507 54 517 46 c 128,-1,7
 527 38 527 38 576 38 c 2,8,-1
 652 38 l 2,9,10
 733 38 733 38 769.5 62 c 128,-1,11
 806 86 806 86 849 168 c 1,12,-1
 873 168 l 1,13,-1
 829 0 l 1,14,-1
 319 0 l 1,15,-1
 319 19 l 1,16,17
 376 26 376 26 392 39.5 c 128,-1,18
 408 53 408 53 408 108 c 2,19,-1
 408 260 l 1,20,-1
 232 260 l 1,21,-1
 204 207 l 1,22,23
 140 82 140 82 140 49 c 0,24,25
 140 34 140 34 166.5 26.5 c 128,-1,26
 193 19 193 19 209 19 c 1,27,-1
 209 0 l 1,28,-1
 10 0 l 1,29,-1
 10 19 l 1,30,31
 43 24 43 24 59 37.5 c 128,-1,32
 75 51 75 51 98 97 c 2,33,-1
 343 581 l 2,34,35
 352 598 352 598 352 609 c 0,36,37
 352 625 352 625 331.5 632.5 c 128,-1,38
 311 640 311 640 262 642 c 1,39,-1
 262 662 l 1,40,-1
 826 662 l 1,41,-1
 826 521 l 1,42,-1
 803 521 l 1,43,44
 796 569 796 569 781 589.5 c 128,-1,45
 766 610 766 610 731.5 618 c 128,-1,46
 697 626 697 626 621 626 c 2,47,-1
 534 626 l 2,48,49
 507 626 507 626 507 596 c 2,50,-1
 507 366 l 1,51,-1
 618 366 l 2,52,53
 689 366 689 366 716.5 383.5 c 128,-1,54
 744 401 744 401 750 463 c 1,55,-1
 771 463 l 1,56,-1
 771 229 l 1,57,-1
 750 229 l 1,0,1
249 299 m 1,58,-1
 408 299 l 1,59,-1
 408 618 l 1,60,-1
 249 299 l 1,58,-1
EndSplineSet
Validated: 1
EndChar

StartChar: Ccedilla
Encoding: 199 199 138
Width: 674
Flags: W
LayerCount: 2
Fore
SplineSet
151 338 m 0,0,1
 151 251 151 251 173.5 187.5 c 128,-1,2
 196 124 196 124 234 91.5 c 128,-1,3
 272 59 272 59 312.5 44.5 c 128,-1,4
 353 30 353 30 399 30 c 0,5,6
 517 30 517 30 622 131 c 1,7,-1
 640 113 l 1,8,9
 595 52 595 52 523.5 19 c 128,-1,10
 452 -14 452 -14 367 -14 c 0,11,12
 352 -14 352 -14 343 -13 c 1,13,-1
 323 -65 l 1,14,15
 338 -62 338 -62 349 -62 c 0,16,17
 389 -62 389 -62 412 -80.5 c 128,-1,18
 435 -99 435 -99 435 -131 c 0,19,20
 435 -170 435 -170 401.5 -192.5 c 128,-1,21
 368 -215 368 -215 310 -215 c 0,22,23
 265 -215 265 -215 226 -199 c 1,24,-1
 240 -168 l 1,25,26
 277 -180 277 -180 305 -180 c 0,27,28
 330 -180 330 -180 345 -168 c 128,-1,29
 360 -156 360 -156 360 -136 c 0,30,31
 360 -117 360 -117 348 -108.5 c 128,-1,32
 336 -100 336 -100 307 -100 c 0,33,34
 290 -100 290 -100 279 -104 c 1,35,-1
 272 -99 l 1,36,-1
 309 -10 l 1,37,38
 184 8 184 8 109.5 98.5 c 128,-1,39
 35 189 35 189 35 325 c 0,40,41
 35 481 35 481 131 578.5 c 128,-1,42
 227 676 227 676 370 676 c 0,43,44
 434 676 434 676 490 659.5 c 128,-1,45
 546 643 546 643 555 643 c 0,46,47
 588 643 588 643 597 676 c 1,48,-1
 618 676 l 1,49,-1
 627 450 l 1,50,-1
 604 450 l 1,51,52
 549 636 549 636 389 636 c 0,53,54
 280 636 280 636 215.5 555 c 128,-1,55
 151 474 151 474 151 338 c 0,0,1
EndSplineSet
Validated: 1
EndChar

StartChar: Eth
Encoding: 208 208 147
Width: 719
Flags: W
LayerCount: 2
Fore
SplineSet
684 334 m 0,0,1
 684 289 684 289 674 246 c 128,-1,2
 664 203 664 203 637 157 c 128,-1,3
 610 111 610 111 568 77.5 c 128,-1,4
 526 44 526 44 456.5 22 c 128,-1,5
 387 0 387 0 299 0 c 2,6,-1
 15 0 l 1,7,-1
 15 19 l 1,8,9
 72 23 72 23 87.5 39 c 128,-1,10
 103 55 103 55 103 109 c 2,11,-1
 103 315 l 1,12,-1
 20 315 l 1,13,-1
 20 359 l 1,14,-1
 103 359 l 1,15,-1
 103 553 l 2,16,17
 103 608 103 608 88.5 623 c 128,-1,18
 74 638 74 638 15 643 c 1,19,-1
 15 662 l 1,20,-1
 285 662 l 2,21,22
 376 662 376 662 447.5 641.5 c 128,-1,23
 519 621 519 621 562.5 588.5 c 128,-1,24
 606 556 606 556 634.5 511.5 c 128,-1,25
 663 467 663 467 673.5 424 c 128,-1,26
 684 381 684 381 684 334 c 0,0,1
575 327 m 0,27,28
 575 366 575 366 568 402.5 c 128,-1,29
 561 439 561 439 540 481 c 128,-1,30
 519 523 519 523 485.5 553.5 c 128,-1,31
 452 584 452 584 392.5 604.5 c 128,-1,32
 333 625 333 625 255 625 c 0,33,34
 225 625 225 625 215 617 c 128,-1,35
 205 609 205 609 205 586 c 2,36,-1
 205 359 l 1,37,-1
 351 359 l 1,38,-1
 351 315 l 1,39,-1
 205 315 l 1,40,-1
 205 78 l 2,41,42
 205 54 205 54 216 45.5 c 128,-1,43
 227 37 227 37 257 37 c 0,44,45
 575 37 575 37 575 327 c 0,27,28
EndSplineSet
Validated: 1
EndChar

StartChar: multiply
Encoding: 215 215 154
Width: 564
Flags: W
LayerCount: 2
Fore
SplineSet
234 253 m 1,0,-1
 38 449 l 1,1,-1
 86 497 l 1,2,-1
 282 300 l 1,3,-1
 478 497 l 1,4,-1
 526 449 l 1,5,-1
 330 253 l 1,6,-1
 526 56 l 1,7,-1
 478 8 l 1,8,-1
 282 205 l 1,9,-1
 86 8 l 1,10,-1
 38 56 l 1,11,-1
 234 253 l 1,0,-1
EndSplineSet
Validated: 1
EndChar

StartChar: Oslash
Encoding: 216 216 155
Width: 724
Flags: W
LayerCount: 2
Fore
SplineSet
152 59 m 1,0,1
 131 78 131 78 116 95 c 128,-1,2
 101 112 101 112 79.5 145 c 128,-1,3
 58 178 58 178 46.5 225.5 c 128,-1,4
 35 273 35 273 35 330 c 0,5,6
 35 482 35 482 127 579 c 128,-1,7
 219 676 219 676 363 676 c 0,8,9
 451 676 451 676 538 627 c 1,10,-1
 610 734 l 1,11,-1
 659 734 l 1,12,-1
 571 604 l 1,13,14
 593 583 593 583 607.5 567 c 128,-1,15
 622 551 622 551 644 517 c 128,-1,16
 666 483 666 483 677.5 436 c 128,-1,17
 689 389 689 389 689 331 c 0,18,19
 689 179 689 179 597 82.5 c 128,-1,20
 505 -14 505 -14 360 -14 c 0,21,22
 269 -14 269 -14 185 36 c 1,23,-1
 106 -80 l 1,24,-1
 57 -80 l 1,25,-1
 152 59 l 1,0,1
528 540 m 1,26,-1
 220 88 l 1,27,28
 280 22 280 22 362 22 c 0,29,30
 461 22 461 22 518 104.5 c 128,-1,31
 575 187 575 187 575 330 c 0,32,33
 575 450 575 450 528 540 c 1,26,-1
195 123 m 1,34,-1
 503 575 l 1,35,36
 441 640 441 640 362 640 c 0,37,38
 264 640 264 640 206.5 556.5 c 128,-1,39
 149 473 149 473 149 330 c 0,40,41
 149 210 149 210 195 123 c 1,34,-1
EndSplineSet
Validated: 1
EndChar

StartChar: Thorn
Encoding: 222 222 161
Width: 577
Flags: W
LayerCount: 2
Fore
SplineSet
542 351 m 0,0,1
 542 326 542 326 536 302 c 128,-1,2
 530 278 530 278 512.5 251 c 128,-1,3
 495 224 495 224 466 204 c 128,-1,4
 437 184 437 184 387 171 c 128,-1,5
 337 158 337 158 271 158 c 0,6,7
 242 158 242 158 202 161 c 1,8,-1
 202 109 l 2,9,10
 202 54 202 54 219.5 37.5 c 128,-1,11
 237 21 237 21 296 19 c 1,12,-1
 296 0 l 1,13,-1
 16 0 l 1,14,-1
 16 19 l 1,15,16
 73 24 73 24 86.5 40.5 c 128,-1,17
 100 57 100 57 100 120 c 2,18,-1
 100 553 l 2,19,20
 100 607 100 607 86 622 c 128,-1,21
 72 637 72 637 16 643 c 1,22,-1
 16 662 l 1,23,-1
 293 662 l 1,24,-1
 293 643 l 1,25,26
 233 638 233 638 217.5 620.5 c 128,-1,27
 202 603 202 603 202 543 c 2,28,-1
 202 532 l 1,29,-1
 282 532 l 2,30,31
 402 532 402 532 472 483 c 128,-1,32
 542 434 542 434 542 351 c 0,0,1
202 461 m 2,33,-1
 202 201 l 1,34,35
 236 198 236 198 259 198 c 0,36,37
 433 198 433 198 433 345 c 0,38,39
 433 422 433 422 385 458 c 128,-1,40
 337 494 337 494 234 494 c 0,41,42
 215 494 215 494 208.5 487 c 128,-1,43
 202 480 202 480 202 461 c 2,33,-1
EndSplineSet
Validated: 1
EndChar

StartChar: ssharp
Encoding: 223 223 162
Width: 491
Flags: W
LayerCount: 2
Fore
SplineSet
282 377 m 1,0,1
 466 342 466 342 466 186 c 0,2,3
 466 104 466 104 414 47.5 c 128,-1,4
 362 -9 362 -9 287 -9 c 0,5,6
 244 -9 244 -9 217 11.5 c 128,-1,7
 190 32 190 32 190 64 c 0,8,9
 190 84 190 84 203 98 c 128,-1,10
 216 112 216 112 235 112 c 0,11,12
 252 112 252 112 264 100.5 c 128,-1,13
 276 89 276 89 277 72 c 2,14,-1
 279 50 l 2,15,16
 280 34 280 34 287 27 c 128,-1,17
 294 20 294 20 308 20 c 0,18,19
 372 20 372 20 372 150 c 0,20,21
 372 352 372 352 240 357 c 0,22,23
 208 358 208 358 208 374 c 0,24,25
 208 386 208 386 237 389 c 0,26,27
 332 399 332 399 332 517 c 0,28,29
 332 582 332 582 308 619 c 128,-1,30
 284 656 284 656 241 656 c 0,31,32
 202 656 202 656 178.5 627 c 128,-1,33
 155 598 155 598 155 549 c 2,34,-1
 155 0 l 1,35,-1
 10 0 l 1,36,-1
 10 15 l 1,37,38
 48 18 48 18 59.5 31 c 128,-1,39
 71 44 71 44 71 84 c 2,40,-1
 71 454 l 2,41,42
 71 504 71 504 79 542 c 128,-1,43
 87 580 87 580 105.5 613.5 c 128,-1,44
 124 647 124 647 160.5 665 c 128,-1,45
 197 683 197 683 249 683 c 0,46,47
 327 683 327 683 373 641.5 c 128,-1,48
 419 600 419 600 419 531 c 0,49,50
 419 477 419 477 390.5 445.5 c 128,-1,51
 362 414 362 414 282 377 c 1,0,1
EndSplineSet
Validated: 1
EndChar

StartChar: ae
Encoding: 230 230 169
Width: 639
Flags: W
LayerCount: 2
Fore
SplineSet
131 392 m 0,0,1
 131 391 131 391 131.5 385.5 c 128,-1,2
 132 380 132 380 133 370 c 128,-1,3
 134 360 134 360 134 349 c 0,4,5
 134 329 134 329 122.5 316.5 c 128,-1,6
 111 304 111 304 91 304 c 128,-1,7
 71 304 71 304 59 317 c 128,-1,8
 47 330 47 330 47 352 c 0,9,10
 47 398 47 398 93 429 c 128,-1,11
 139 460 139 460 207 460 c 0,12,13
 272 460 272 460 324 415 c 1,14,15
 358 441 358 441 383.5 450.5 c 128,-1,16
 409 460 409 460 443 460 c 0,17,18
 519 460 519 460 557 417 c 128,-1,19
 595 374 595 374 603 277 c 1,20,-1
 341 277 l 1,21,22
 341 238 341 238 343 212.5 c 128,-1,23
 345 187 345 187 352 154.5 c 128,-1,24
 359 122 359 122 371 103 c 128,-1,25
 383 84 383 84 406.5 70.5 c 128,-1,26
 430 57 430 57 463 57 c 0,27,28
 506 57 506 57 538.5 79 c 128,-1,29
 571 101 571 101 607 154 c 1,30,-1
 619 149 l 1,31,32
 580 64 580 64 532.5 27 c 128,-1,33
 485 -10 485 -10 422 -10 c 0,34,35
 341 -10 341 -10 293 63 c 1,36,37
 242 21 242 21 210 5.5 c 128,-1,38
 178 -10 178 -10 141 -10 c 0,39,40
 90 -10 90 -10 57.5 20.5 c 128,-1,41
 25 51 25 51 25 100 c 0,42,43
 25 139 25 139 54.5 170 c 128,-1,44
 84 201 84 201 119 218.5 c 128,-1,45
 154 236 154 236 239 272 c 0,46,47
 253 278 253 278 260 281 c 1,48,-1
 260 344 l 2,49,50
 260 392 260 392 248 414 c 128,-1,51
 236 436 236 436 200 436 c 0,52,53
 171 436 171 436 151 423 c 128,-1,54
 131 410 131 410 131 392 c 0,0,1
281 88 m 1,55,-1
 276 102 l 2,56,57
 271 117 271 117 266 143.5 c 128,-1,58
 261 170 261 170 261 201 c 2,59,-1
 261 253 l 1,60,61
 170 220 170 220 141 195 c 128,-1,62
 112 170 112 170 112 125 c 0,63,64
 112 89 112 89 131.5 63.5 c 128,-1,65
 151 38 151 38 179 38 c 128,-1,66
 207 38 207 38 244 56 c 128,-1,67
 281 74 281 74 281 88 c 1,55,-1
342 307 m 1,68,-1
 508 307 l 1,69,70
 506 372 506 372 487.5 401.5 c 128,-1,71
 469 431 469 431 429 431 c 0,72,73
 386 431 386 431 366 402 c 128,-1,74
 346 373 346 373 342 307 c 1,68,-1
EndSplineSet
Validated: 1
EndChar

StartChar: ccedilla
Encoding: 231 231 170
Width: 444
Flags: W
LayerCount: 2
Fore
SplineSet
25 212 m 0,0,1
 25 323 25 323 90 391.5 c 128,-1,2
 155 460 155 460 244 460 c 0,3,4
 307 460 307 460 352.5 429.5 c 128,-1,5
 398 399 398 399 398 357 c 0,6,7
 398 340 398 340 384 327.5 c 128,-1,8
 370 315 370 315 351 315 c 0,9,10
 316 315 316 315 303 361 c 2,11,-1
 297 383 l 2,12,13
 289 411 289 411 277 421 c 128,-1,14
 265 431 265 431 238 431 c 0,15,16
 177 431 177 431 139.5 382.5 c 128,-1,17
 102 334 102 334 102 257 c 0,18,19
 102 171 102 171 145.5 116.5 c 128,-1,20
 189 62 189 62 257 62 c 0,21,22
 300 62 300 62 331 83 c 128,-1,23
 362 104 362 104 398 156 c 1,24,-1
 412 147 l 1,25,26
 373 68 373 68 330 31.5 c 128,-1,27
 287 -5 287 -5 226 -10 c 1,28,-1
 205 -65 l 1,29,30
 220 -62 220 -62 231 -62 c 0,31,32
 271 -62 271 -62 294 -80.5 c 128,-1,33
 317 -99 317 -99 317 -131 c 0,34,35
 317 -170 317 -170 283.5 -192.5 c 128,-1,36
 250 -215 250 -215 192 -215 c 0,37,38
 147 -215 147 -215 108 -199 c 1,39,-1
 122 -168 l 1,40,41
 158 -180 158 -180 187 -180 c 0,42,43
 212 -180 212 -180 227 -168 c 128,-1,44
 242 -156 242 -156 242 -136 c 0,45,46
 242 -117 242 -117 230 -108.5 c 128,-1,47
 218 -100 218 -100 189 -100 c 0,48,49
 172 -100 172 -100 161 -104 c 1,50,-1
 154 -99 l 1,51,-1
 192 -8 l 1,52,53
 116 2 116 2 70.5 62.5 c 128,-1,54
 25 123 25 123 25 212 c 0,0,1
EndSplineSet
Validated: 1
EndChar

StartChar: eth
Encoding: 240 240 179
Width: 492
Flags: W
LayerCount: 2
Fore
SplineSet
467 285 m 0,0,1
 467 159 467 159 404.5 74.5 c 128,-1,2
 342 -10 342 -10 243 -10 c 0,3,4
 150 -10 150 -10 87.5 56.5 c 128,-1,5
 25 123 25 123 25 223 c 0,6,7
 25 324 25 324 86 392 c 128,-1,8
 147 460 147 460 237 460 c 0,9,10
 273 460 273 460 299 447.5 c 128,-1,11
 325 435 325 435 363 400 c 1,12,13
 352 455 352 455 331 492.5 c 128,-1,14
 310 530 310 530 266 575 c 1,15,-1
 143 510 l 1,16,-1
 110 540 l 1,17,-1
 231 604 l 1,18,19
 169 648 169 648 98 660 c 1,20,-1
 140 683 l 1,21,22
 189 679 189 679 221.5 669 c 128,-1,23
 254 659 254 659 292 636 c 1,24,-1
 387 686 l 1,25,-1
 420 656 l 1,26,-1
 329 608 l 1,27,28
 467 475 467 475 467 285 c 0,0,1
115 276 m 0,29,30
 115 170 115 170 154 94 c 128,-1,31
 193 18 193 18 257 18 c 0,32,33
 314 18 314 18 345.5 66.5 c 128,-1,34
 377 115 377 115 377 201 c 0,35,36
 377 303 377 303 337 367.5 c 128,-1,37
 297 432 297 432 233 432 c 0,38,39
 180 432 180 432 147.5 389 c 128,-1,40
 115 346 115 346 115 276 c 0,29,30
EndSplineSet
Validated: 1
EndChar

StartChar: divide
Encoding: 247 247 186
Width: 564
Flags: W
LayerCount: 2
Fore
SplineSet
30 220 m 1,0,-1
 30 286 l 1,1,-1
 534 286 l 1,2,-1
 534 220 l 1,3,-1
 30 220 l 1,0,-1
281 95 m 0,4,5
 302 95 302 95 317 80 c 128,-1,6
 332 65 332 65 332 45 c 128,-1,7
 332 25 332 25 317 10.5 c 128,-1,8
 302 -4 302 -4 281 -4 c 0,9,10
 261 -4 261 -4 247 10.5 c 128,-1,11
 233 25 233 25 233 46 c 0,12,13
 233 65 233 65 247.5 80 c 128,-1,14
 262 95 262 95 281 95 c 0,4,5
281 510 m 0,15,16
 302 510 302 510 317 495 c 128,-1,17
 332 480 332 480 332 460 c 128,-1,18
 332 440 332 440 317 425.5 c 128,-1,19
 302 411 302 411 281 411 c 0,20,21
 261 411 261 411 247 425.5 c 128,-1,22
 233 440 233 440 233 461 c 0,23,24
 233 480 233 480 247.5 495 c 128,-1,25
 262 510 262 510 281 510 c 0,15,16
EndSplineSet
Validated: 1
EndChar

StartChar: oslash
Encoding: 248 248 187
Width: 491
Flags: W
LayerCount: 2
Fore
SplineSet
121 28 m 1,0,1
 25 106 25 106 25 227 c 0,2,3
 25 329 25 329 86.5 394.5 c 128,-1,4
 148 460 148 460 245 460 c 0,5,6
 289 460 289 460 337 442 c 1,7,-1
 394 551 l 1,8,-1
 433 551 l 1,9,-1
 368 426 l 1,10,11
 466 356 466 356 466 234 c 0,12,13
 466 130 466 130 402 60 c 128,-1,14
 338 -10 338 -10 243 -10 c 0,15,16
 196 -10 196 -10 150 11 c 1,17,-1
 85 -112 l 1,18,-1
 48 -112 l 1,19,-1
 121 28 l 1,0,1
336 366 m 1,20,-1
 175 60 l 1,21,22
 210 18 210 18 257 18 c 0,23,24
 313 18 313 18 344.5 67 c 128,-1,25
 376 116 376 116 376 203 c 128,-1,26
 376 290 376 290 336 366 c 1,20,-1
154 92 m 1,27,-1
 313 396 l 1,28,29
 276 432 276 432 233 432 c 0,30,31
 180 432 180 432 147.5 389 c 128,-1,32
 115 346 115 346 115 276 c 0,33,34
 115 174 115 174 154 92 c 1,27,-1
EndSplineSet
Validated: 1
EndChar

StartChar: thorn
Encoding: 254 254 193
Width: 500
Flags: W
LayerCount: 2
Fore
SplineSet
14 623 m 1,0,-1
 14 639 l 1,1,2
 107 665 107 665 159 683 c 1,3,-1
 164 680 l 1,4,-1
 164 382 l 1,5,6
 229 460 229 460 308 460 c 0,7,8
 381 460 381 460 428 400 c 128,-1,9
 475 340 475 340 475 247 c 0,10,11
 475 138 475 138 414.5 64 c 128,-1,12
 354 -10 354 -10 265 -10 c 0,13,14
 233 -10 233 -10 211.5 -1 c 128,-1,15
 190 8 190 8 164 33 c 1,16,-1
 164 -124 l 2,17,18
 164 -171 164 -171 180 -184.5 c 128,-1,19
 196 -198 196 -198 252 -199 c 1,20,-1
 252 -217 l 1,21,-1
 10 -217 l 1,22,-1
 10 -199 l 1,23,24
 54 -195 54 -195 67 -182.5 c 128,-1,25
 80 -170 80 -170 80 -131 c 2,26,-1
 80 573 l 2,27,28
 80 604 80 604 70.5 614 c 128,-1,29
 61 624 61 624 31 624 c 0,30,31
 20 624 20 624 14 623 c 1,0,-1
164 334 m 2,32,-1
 164 88 l 2,33,34
 164 66 164 66 198.5 44 c 128,-1,35
 233 22 233 22 268 22 c 0,36,37
 322 22 322 22 355.5 73.5 c 128,-1,38
 389 125 389 125 389 208 c 0,39,40
 389 295 389 295 355.5 347.5 c 128,-1,41
 322 400 322 400 266 400 c 0,42,43
 231 400 231 400 197.5 378 c 128,-1,44
 164 356 164 356 164 334 c 2,32,-1
EndSplineSet
Validated: 1
EndChar

StartChar: Aogonek
Encoding: 260 260 199
Width: 717
Flags: W
LayerCount: 2
Fore
SplineSet
762 -73 m 1,0,-1
 782 -89 l 1,1,2
 729 -165 729 -165 670 -165 c 0,3,4
 639 -165 639 -165 618 -143 c 128,-1,5
 597 -121 597 -121 597 -89 c 0,6,7
 597 -43 597 -43 651 0 c 1,8,-1
 446 0 l 1,9,-1
 446 19 l 1,10,11
 486 20 486 20 501 27 c 128,-1,12
 516 34 516 34 516 53 c 0,13,14
 516 77 516 77 497 120 c 2,15,-1
 456 216 l 1,16,-1
 194 216 l 1,17,-1
 148 99 l 2,18,19
 140 78 140 78 140 60 c 0,20,21
 140 19 140 19 208 19 c 1,22,-1
 208 0 l 1,23,-1
 10 0 l 1,24,-1
 10 19 l 1,25,26
 47 21 47 21 67.5 47.5 c 128,-1,27
 88 74 88 74 134 183 c 2,28,-1
 342 674 l 1,29,-1
 362 674 l 1,30,-1
 611 106 l 1,31,32
 637 50 637 50 652 35.5 c 128,-1,33
 667 21 667 21 701 19 c 1,34,-1
 701 0 l 1,35,-1
 697 0 l 1,36,37
 653 -35 653 -35 653 -69 c 0,38,39
 653 -86 653 -86 664 -97.5 c 128,-1,40
 675 -109 675 -109 691 -109 c 0,41,42
 719 -109 719 -109 762 -73 c 1,0,-1
211 257 m 1,43,-1
 442 257 l 1,44,-1
 326 532 l 1,45,-1
 211 257 l 1,43,-1
EndSplineSet
Validated: 1
EndChar

StartChar: aogonek
Encoding: 261 261 200
Width: 437
Flags: W
LayerCount: 2
Fore
SplineSet
212 460 m 0,0,1
 294 460 294 460 325 420.5 c 128,-1,2
 356 381 356 381 356 300 c 2,3,-1
 356 105 l 2,4,5
 356 72 356 72 362.5 59.5 c 128,-1,6
 369 47 369 47 386 47 c 0,7,8
 407 47 407 47 430 66 c 1,9,-1
 430 40 l 1,10,11
 404 12 404 12 389 3 c 128,-1,12
 374 -6 374 -6 343 -11 c 1,13,14
 325 -15 325 -15 314 -30 c 128,-1,15
 303 -45 303 -45 303 -66 c 0,16,17
 303 -86 303 -86 313.5 -97.5 c 128,-1,18
 324 -109 324 -109 341 -109 c 0,19,20
 369 -109 369 -109 412 -73 c 1,21,-1
 432 -89 l 1,22,23
 379 -165 379 -165 320 -165 c 0,24,25
 289 -165 289 -165 268 -143 c 128,-1,26
 247 -121 247 -121 247 -89 c 0,27,28
 247 -43 247 -43 301 0 c 1,29,30
 280 20 280 20 276 63 c 1,31,32
 190 -10 190 -10 130 -10 c 0,33,34
 84 -10 84 -10 54.5 20 c 128,-1,35
 25 50 25 50 25 97 c 0,36,37
 25 115 25 115 29 130.5 c 128,-1,38
 33 146 33 146 43 159.5 c 128,-1,39
 53 173 53 173 62 184 c 128,-1,40
 71 195 71 195 89 206.5 c 128,-1,41
 107 218 107 218 119 225.5 c 128,-1,42
 131 233 131 233 155.5 243.5 c 128,-1,43
 180 254 180 254 193 259.5 c 128,-1,44
 206 265 206 265 234 276 c 128,-1,45
 262 287 262 287 275 292 c 1,46,-1
 275 353 l 2,47,48
 275 436 275 436 199 436 c 0,49,50
 169 436 169 436 148 421.5 c 128,-1,51
 127 407 127 407 127 387 c 0,52,53
 127 379 127 379 129.5 365 c 128,-1,54
 132 351 132 351 132 347 c 0,55,56
 132 330 132 330 118.5 317.5 c 128,-1,57
 105 305 105 305 87 305 c 0,58,59
 70 305 70 305 57 318 c 128,-1,60
 44 331 44 331 44 348 c 0,61,62
 44 395 44 395 92.5 427.5 c 128,-1,63
 141 460 141 460 212 460 c 0,0,1
275 123 m 2,64,-1
 275 268 l 1,65,66
 185 235 185 235 149 204 c 128,-1,67
 113 173 113 173 113 129 c 0,68,69
 113 88 113 88 133 68 c 128,-1,70
 153 48 153 48 176 48 c 0,71,72
 210 48 210 48 249 71 c 0,73,74
 265 80 265 80 270 90 c 128,-1,75
 275 100 275 100 275 123 c 2,64,-1
EndSplineSet
Validated: 1
EndChar

StartChar: dcaron
Encoding: 271 271 210
Width: 635
Flags: W
LayerCount: 2
Fore
SplineSet
495 471 m 1,0,-1
 460 471 l 1,1,-1
 538 641 l 1,2,3
 549 661 549 661 558 668 c 128,-1,4
 567 675 567 675 582 675 c 0,5,6
 596 675 596 675 605.5 667 c 128,-1,7
 615 659 615 659 615 644 c 0,8,9
 615 627 615 627 597 604 c 2,10,-1
 495 471 l 1,0,-1
342 -10 m 1,11,-1
 338 -7 l 1,12,-1
 338 57 l 1,13,14
 290 -10 290 -10 210 -10 c 0,15,16
 127 -10 127 -10 76 49.5 c 128,-1,17
 25 109 25 109 25 205 c 0,18,19
 25 311 25 311 86 385.5 c 128,-1,20
 147 460 147 460 233 460 c 0,21,22
 287 460 287 460 338 417 c 1,23,-1
 338 573 l 2,24,25
 338 604 338 604 329 614 c 128,-1,26
 320 624 320 624 292 624 c 0,27,28
 278 624 278 624 270 623 c 1,29,-1
 270 639 l 1,30,31
 361 663 361 663 417 683 c 1,32,-1
 422 681 l 1,33,-1
 422 114 l 2,34,35
 422 79 422 79 430.5 68 c 128,-1,36
 439 57 439 57 466 57 c 0,37,38
 471 57 471 57 489 58 c 1,39,-1
 489 42 l 1,40,-1
 342 -10 l 1,11,-1
249 42 m 0,41,42
 287 42 287 42 312.5 63.5 c 128,-1,43
 338 85 338 85 338 102 c 2,44,-1
 338 332 l 2,45,46
 338 372 338 372 307 402 c 128,-1,47
 276 432 276 432 236 432 c 0,48,49
 179 432 179 432 145 381 c 128,-1,50
 111 330 111 330 111 245 c 0,51,52
 111 153 111 153 149 97.5 c 128,-1,53
 187 42 187 42 249 42 c 0,41,42
EndSplineSet
Validated: 1
EndChar

StartChar: dcroat
Encoding: 273 273 212
Width: 498
Flags: W
LayerCount: 2
Fore
SplineSet
338 527 m 1,0,-1
 217 527 l 1,1,-1
 217 561 l 1,2,-1
 338 561 l 1,3,-1
 338 573 l 2,4,5
 338 604 338 604 329 614 c 128,-1,6
 320 624 320 624 292 624 c 0,7,8
 278 624 278 624 270 623 c 1,9,-1
 270 639 l 1,10,11
 361 663 361 663 417 683 c 1,12,-1
 422 681 l 1,13,-1
 422 561 l 1,14,-1
 498 561 l 1,15,-1
 498 527 l 1,16,-1
 422 527 l 1,17,-1
 422 114 l 2,18,19
 422 79 422 79 430.5 68 c 128,-1,20
 439 57 439 57 466 57 c 0,21,22
 471 57 471 57 489 58 c 1,23,-1
 489 42 l 1,24,-1
 342 -10 l 1,25,-1
 338 -7 l 1,26,-1
 338 57 l 1,27,28
 290 -10 290 -10 210 -10 c 0,29,30
 127 -10 127 -10 76 49.5 c 128,-1,31
 25 109 25 109 25 205 c 0,32,33
 25 311 25 311 86 385.5 c 128,-1,34
 147 460 147 460 233 460 c 0,35,36
 287 460 287 460 338 417 c 1,37,-1
 338 527 l 1,0,-1
338 102 m 2,38,-1
 338 332 l 2,39,40
 338 372 338 372 307 402 c 128,-1,41
 276 432 276 432 236 432 c 0,42,43
 179 432 179 432 145 381 c 128,-1,44
 111 330 111 330 111 245 c 0,45,46
 111 153 111 153 149 97.5 c 128,-1,47
 187 42 187 42 249 42 c 0,48,49
 289 42 289 42 313.5 64.5 c 128,-1,50
 338 87 338 87 338 102 c 2,38,-1
EndSplineSet
Validated: 1
EndChar

StartChar: Eogonek
Encoding: 280 280 219
Width: 611
Flags: W
LayerCount: 2
Fore
SplineSet
593 -73 m 1,0,-1
 613 -89 l 1,1,2
 560 -165 560 -165 501 -165 c 0,3,4
 470 -165 470 -165 449 -143 c 128,-1,5
 428 -121 428 -121 428 -89 c 0,6,7
 428 -43 428 -43 482 0 c 1,8,-1
 12 0 l 1,9,-1
 12 19 l 1,10,11
 67 23 67 23 83 39.5 c 128,-1,12
 99 56 99 56 99 109 c 2,13,-1
 99 553 l 2,14,15
 99 606 99 606 83 622.5 c 128,-1,16
 67 639 67 639 12 643 c 1,17,-1
 12 662 l 1,18,-1
 543 662 l 1,19,-1
 546 519 l 1,20,-1
 521 519 l 1,21,22
 508 586 508 586 481 605 c 128,-1,23
 454 624 454 624 369 624 c 2,24,-1
 234 624 l 2,25,26
 214 624 214 624 207.5 617.5 c 128,-1,27
 201 611 201 611 201 590 c 2,28,-1
 201 368 l 1,29,-1
 355 368 l 2,30,31
 419 368 419 368 437.5 387.5 c 128,-1,32
 456 407 456 407 465 463 c 1,33,-1
 488 463 l 1,34,-1
 488 231 l 1,35,-1
 465 231 l 1,36,37
 455 293 455 293 436 310 c 128,-1,38
 417 327 417 327 355 327 c 2,39,-1
 201 327 l 1,40,-1
 201 80 l 2,41,42
 201 51 201 51 217.5 44 c 128,-1,43
 234 37 234 37 306 37 c 2,44,-1
 333 37 l 2,45,46
 440 37 440 37 486 62.5 c 128,-1,47
 532 88 532 88 569 169 c 1,48,-1
 597 169 l 1,49,-1
 552 0 l 1,50,-1
 528 0 l 1,51,52
 484 -35 484 -35 484 -69 c 0,53,54
 484 -86 484 -86 495 -97.5 c 128,-1,55
 506 -109 506 -109 522 -109 c 0,56,57
 550 -109 550 -109 593 -73 c 1,0,-1
EndSplineSet
Validated: 1
EndChar

StartChar: eogonek
Encoding: 281 281 220
Width: 444
Flags: W
LayerCount: 2
Fore
SplineSet
97 277 m 1,0,1
 99 214 99 214 114 168.5 c 128,-1,2
 129 123 129 123 153 100.5 c 128,-1,3
 177 78 177 78 201.5 68.5 c 128,-1,4
 226 59 226 59 253 59 c 0,5,6
 301 59 301 59 336.5 83 c 128,-1,7
 372 107 372 107 408 164 c 1,8,-1
 424 157 l 1,9,10
 409 115 409 115 382 79.5 c 128,-1,11
 355 44 355 44 332 24.5 c 128,-1,12
 309 5 309 5 292 -19.5 c 128,-1,13
 275 -44 275 -44 275 -70 c 0,14,15
 275 -87 275 -87 285.5 -98 c 128,-1,16
 296 -109 296 -109 313 -109 c 0,17,18
 342 -109 342 -109 385 -73 c 1,19,-1
 405 -89 l 1,20,21
 351 -165 351 -165 292 -165 c 0,22,23
 261 -165 261 -165 240 -143 c 128,-1,24
 219 -121 219 -121 219 -89 c 0,25,26
 219 -43 219 -43 272 -1 c 1,27,28
 242 -10 242 -10 213 -10 c 0,29,30
 126 -10 126 -10 75.5 50 c 128,-1,31
 25 110 25 110 25 214 c 0,32,33
 25 325 25 325 83.5 392.5 c 128,-1,34
 142 460 142 460 234 460 c 0,35,36
 310 460 310 460 352 414.5 c 128,-1,37
 394 369 394 369 405 277 c 1,38,-1
 97 277 l 1,0,1
99 309 m 1,39,-1
 303 309 l 1,40,41
 293 374 293 374 272 399 c 128,-1,42
 251 424 251 424 205 424 c 0,43,44
 115 424 115 424 99 309 c 1,39,-1
EndSplineSet
Validated: 1
EndChar

StartChar: Hbar
Encoding: 294 294 233
Width: 711
Flags: W
LayerCount: 2
Fore
SplineSet
203 513 m 1,0,-1
 203 359 l 1,1,-1
 506 359 l 1,2,-1
 506 513 l 1,3,-1
 203 513 l 1,0,-1
101 513 m 1,4,-1
 14 513 l 1,5,-1
 14 552 l 1,6,-1
 101 552 l 1,7,8
 101 606 101 606 86 622 c 128,-1,9
 71 638 71 638 13 643 c 1,10,-1
 13 662 l 1,11,-1
 291 662 l 1,12,-1
 291 643 l 1,13,14
 233 638 233 638 218 622 c 128,-1,15
 203 606 203 606 203 552 c 1,16,-1
 506 552 l 1,17,18
 506 606 506 606 491 622 c 128,-1,19
 476 638 476 638 418 643 c 1,20,-1
 418 662 l 1,21,-1
 696 662 l 1,22,-1
 696 643 l 1,23,24
 638 638 638 638 623 622 c 128,-1,25
 608 606 608 606 608 552 c 1,26,-1
 695 552 l 1,27,-1
 695 513 l 1,28,-1
 608 513 l 1,29,-1
 608 109 l 2,30,31
 608 56 608 56 624 40 c 128,-1,32
 640 24 640 24 696 19 c 1,33,-1
 696 0 l 1,34,-1
 418 0 l 1,35,-1
 418 19 l 1,36,37
 476 23 476 23 491 40 c 128,-1,38
 506 57 506 57 506 120 c 2,39,-1
 506 315 l 1,40,-1
 203 315 l 1,41,-1
 203 109 l 2,42,43
 203 56 203 56 219 40 c 128,-1,44
 235 24 235 24 291 19 c 1,45,-1
 291 0 l 1,46,-1
 13 0 l 1,47,-1
 13 19 l 1,48,49
 71 23 71 23 86 40 c 128,-1,50
 101 57 101 57 101 120 c 2,51,-1
 101 513 l 1,4,-1
EndSplineSet
Validated: 1
EndChar

StartChar: hbar
Encoding: 295 295 234
Width: 498
Flags: W
LayerCount: 2
Fore
SplineSet
344 300 m 2,0,1
 344 406 344 406 269 406 c 0,2,3
 240 406 240 406 214.5 391.5 c 128,-1,4
 189 377 189 377 158 343 c 1,5,-1
 158 102 l 2,6,7
 158 50 158 50 170 35 c 128,-1,8
 182 20 182 20 226 15 c 1,9,-1
 226 0 l 1,10,-1
 10 0 l 1,11,-1
 10 15 l 1,12,13
 53 21 53 21 63.5 35 c 128,-1,14
 74 49 74 49 74 102 c 2,15,-1
 74 532 l 1,16,-1
 10 532 l 1,17,-1
 10 571 l 1,18,-1
 74 571 l 1,19,-1
 74 573 l 2,20,21
 74 605 74 605 64.5 614.5 c 128,-1,22
 55 624 55 624 23 624 c 0,23,24
 17 624 17 624 11 623 c 1,25,-1
 11 639 l 1,26,27
 119 671 119 671 153 683 c 1,28,-1
 158 680 l 1,29,-1
 158 571 l 1,30,-1
 370 571 l 1,31,-1
 370 532 l 1,32,-1
 158 532 l 1,33,-1
 158 376 l 1,34,35
 192 421 192 421 226.5 440.5 c 128,-1,36
 261 460 261 460 305 460 c 0,37,38
 428 460 428 460 428 301 c 2,39,-1
 428 102 l 2,40,41
 428 50 428 50 437.5 36.5 c 128,-1,42
 447 23 447 23 488 15 c 1,43,-1
 488 0 l 1,44,-1
 276 0 l 1,45,-1
 276 15 l 1,46,47
 319 19 319 19 331.5 35 c 128,-1,48
 344 51 344 51 344 102 c 2,49,-1
 344 300 l 2,0,1
EndSplineSet
Validated: 1
EndChar

StartChar: Iogonek
Encoding: 302 302 241
Width: 325
Flags: W
LayerCount: 2
Fore
SplineSet
307 0 m 1,0,1
 296 -2 296 -2 278 -25 c 128,-1,2
 260 -48 260 -48 260 -70 c 0,3,4
 260 -87 260 -87 271 -98 c 128,-1,5
 282 -109 282 -109 298 -109 c 0,6,7
 326 -109 326 -109 369 -73 c 1,8,-1
 389 -89 l 1,9,10
 336 -165 336 -165 277 -165 c 0,11,12
 246 -165 246 -165 225 -143 c 128,-1,13
 204 -121 204 -121 204 -89 c 0,14,15
 204 -43 204 -43 258 0 c 1,16,-1
 10 0 l 1,17,-1
 10 19 l 1,18,19
 73 21 73 21 90 37 c 128,-1,20
 107 53 107 53 107 109 c 2,21,-1
 107 553 l 2,22,23
 107 608 107 608 90.5 623.5 c 128,-1,24
 74 639 74 639 10 643 c 1,25,-1
 10 662 l 1,26,-1
 307 662 l 1,27,-1
 307 643 l 1,28,29
 244 640 244 640 226.5 624 c 128,-1,30
 209 608 209 608 209 553 c 2,31,-1
 209 109 l 2,32,33
 209 54 209 54 227 37.5 c 128,-1,34
 245 21 245 21 307 19 c 1,35,-1
 307 0 l 1,0,1
EndSplineSet
Validated: 1
EndChar

StartChar: iogonek
Encoding: 303 303 242
Width: 278
Flags: W
LayerCount: 2
Fore
SplineSet
62 394 m 0,0,1
 50 394 50 394 20 390 c 1,2,-1
 20 405 l 1,3,-1
 175 460 l 1,4,-1
 179 457 l 1,5,-1
 179 102 l 2,6,7
 179 48 179 48 191.5 33.5 c 128,-1,8
 204 19 204 19 253 15 c 1,9,-1
 253 0 l 1,10,-1
 220 0 l 2,11,12
 192 0 192 0 170.5 -21 c 128,-1,13
 149 -42 149 -42 149 -70 c 0,14,15
 149 -87 149 -87 160 -98 c 128,-1,16
 171 -109 171 -109 187 -109 c 0,17,18
 215 -109 215 -109 258 -73 c 1,19,-1
 278 -89 l 1,20,21
 225 -165 225 -165 166 -165 c 0,22,23
 135 -165 135 -165 114 -143 c 128,-1,24
 93 -121 93 -121 93 -89 c 0,25,26
 93 -43 93 -43 147 0 c 1,27,-1
 16 0 l 1,28,-1
 16 15 l 1,29,30
 68 18 68 18 81.5 33 c 128,-1,31
 95 48 95 48 95 102 c 2,32,-1
 95 334 l 2,33,34
 95 367 95 367 87.5 380.5 c 128,-1,35
 80 394 80 394 62 394 c 0,0,1
128 683 m 0,36,37
 150 683 150 683 165 668 c 128,-1,38
 180 653 180 653 180 632 c 0,39,40
 180 610 180 610 165 595.5 c 128,-1,41
 150 581 150 581 128 581 c 0,42,43
 107 581 107 581 92.5 596 c 128,-1,44
 78 611 78 611 78 632 c 128,-1,45
 78 653 78 653 93 668 c 128,-1,46
 108 683 108 683 128 683 c 0,36,37
EndSplineSet
Validated: 1
EndChar

StartChar: dotlessi
Encoding: 305 305 244
Width: 278
Flags: W
LayerCount: 2
Fore
SplineSet
62 394 m 0,0,1
 50 394 50 394 20 390 c 1,2,-1
 20 405 l 1,3,-1
 175 460 l 1,4,-1
 179 457 l 1,5,-1
 179 102 l 2,6,7
 179 48 179 48 191.5 33.5 c 128,-1,8
 204 19 204 19 253 15 c 1,9,-1
 253 0 l 1,10,-1
 16 0 l 1,11,-1
 16 15 l 1,12,13
 68 18 68 18 81.5 33 c 128,-1,14
 95 48 95 48 95 102 c 2,15,-1
 95 334 l 2,16,17
 95 367 95 367 87.5 380.5 c 128,-1,18
 80 394 80 394 62 394 c 0,0,1
EndSplineSet
Validated: 1
EndChar

StartChar: kgreenlandic
Encoding: 312 312 251
Width: 503
Flags: W
LayerCount: 2
Fore
SplineSet
470 408 m 0,0,1
 470 392 470 392 457.5 382 c 128,-1,2
 445 372 445 372 426 372 c 0,3,4
 410 372 410 372 389.5 383 c 128,-1,5
 369 394 369 394 357 394 c 0,6,7
 351 394 351 394 343.5 372.5 c 128,-1,8
 336 351 336 351 328.5 324.5 c 128,-1,9
 321 298 321 298 302.5 273.5 c 128,-1,10
 284 249 284 249 259 244 c 1,11,12
 293 234 293 234 318 205.5 c 128,-1,13
 343 177 343 177 370 128 c 128,-1,14
 397 79 397 79 415 56 c 0,15,16
 435 29 435 29 447 23 c 128,-1,17
 459 17 459 17 493 15 c 1,18,-1
 493 0 l 1,19,-1
 355 0 l 1,20,-1
 230 200 l 2,21,22
 216 224 216 224 182 224 c 2,23,-1
 169 224 l 1,24,-1
 169 81 l 2,25,26
 169 43 169 43 181 32 c 128,-1,27
 193 21 193 21 244 15 c 1,28,-1
 244 0 l 1,29,-1
 10 0 l 1,30,-1
 10 15 l 1,31,32
 64 24 64 24 74.5 33.5 c 128,-1,33
 85 43 85 43 85 82 c 2,34,-1
 85 368 l 2,35,36
 85 407 85 407 74.5 416.5 c 128,-1,37
 64 426 64 426 10 435 c 1,38,-1
 10 450 l 1,39,-1
 244 450 l 1,40,-1
 244 435 l 1,41,42
 191 427 191 427 180 417.5 c 128,-1,43
 169 408 169 408 169 371 c 2,44,-1
 169 252 l 1,45,-1
 198 252 l 2,46,47
 227 252 227 252 260.5 288 c 128,-1,48
 294 324 294 324 301 352 c 0,49,50
 318 422 318 422 338.5 441 c 128,-1,51
 359 460 359 460 407 460 c 0,52,53
 434 460 434 460 452 445.5 c 128,-1,54
 470 431 470 431 470 408 c 0,0,1
EndSplineSet
Validated: 1
EndChar

StartChar: Lcaron
Encoding: 317 317 256
Width: 611
Flags: W
LayerCount: 2
Fore
SplineSet
385 471 m 1,0,-1
 350 471 l 1,1,-1
 428 641 l 1,2,3
 439 661 439 661 448 668 c 128,-1,4
 457 675 457 675 472 675 c 0,5,6
 486 675 486 675 495.5 667 c 128,-1,7
 505 659 505 659 505 644 c 0,8,9
 505 627 505 627 487 604 c 2,10,-1
 385 471 l 1,0,-1
357 39 m 2,11,12
 383 39 383 39 405.5 42 c 128,-1,13
 428 45 428 45 445 48.5 c 128,-1,14
 462 52 462 52 478 60 c 128,-1,15
 494 68 494 68 504 73 c 128,-1,16
 514 78 514 78 524.5 89.5 c 128,-1,17
 535 101 535 101 540.5 106 c 128,-1,18
 546 111 546 111 553 124.5 c 128,-1,19
 560 138 560 138 562 142 c 128,-1,20
 564 146 564 146 570 159.5 c 128,-1,21
 576 173 576 173 576 174 c 1,22,-1
 601 174 l 1,23,-1
 553 0 l 1,24,-1
 15 0 l 1,25,-1
 15 19 l 1,26,27
 70 23 70 23 86 39.5 c 128,-1,28
 102 56 102 56 102 109 c 2,29,-1
 102 553 l 2,30,31
 102 606 102 606 86 622.5 c 128,-1,32
 70 639 70 639 15 643 c 1,33,-1
 15 662 l 1,34,-1
 297 662 l 1,35,-1
 297 643 l 1,36,37
 238 639 238 639 221 622.5 c 128,-1,38
 204 606 204 606 204 553 c 2,39,-1
 204 80 l 2,40,41
 204 54 204 54 219.5 46.5 c 128,-1,42
 235 39 235 39 290 39 c 2,43,-1
 357 39 l 2,11,12
EndSplineSet
Validated: 1
EndChar

StartChar: lcaron
Encoding: 318 318 257
Width: 390
Flags: W
LayerCount: 2
Fore
SplineSet
250 471 m 1,0,-1
 215 471 l 1,1,-1
 293 641 l 1,2,3
 304 661 304 661 313 668 c 128,-1,4
 322 675 322 675 337 675 c 0,5,6
 351 675 351 675 360.5 667 c 128,-1,7
 370 659 370 659 370 644 c 0,8,9
 370 627 370 627 352 604 c 2,10,-1
 250 471 l 1,0,-1
10 623 m 1,11,-1
 10 639 l 1,12,13
 109 663 109 663 169 683 c 1,14,-1
 173 681 l 1,15,-1
 173 84 l 2,16,17
 173 43 173 43 186.5 30.5 c 128,-1,18
 200 18 200 18 248 15 c 1,19,-1
 248 0 l 1,20,-1
 12 0 l 1,21,-1
 12 15 l 1,22,23
 59 19 59 19 74 33 c 128,-1,24
 89 47 89 47 89 87 c 2,25,-1
 89 564 l 2,26,27
 89 599 89 599 80 612 c 128,-1,28
 71 625 71 625 47 625 c 0,29,30
 27 625 27 625 10 623 c 1,11,-1
EndSplineSet
Validated: 1
EndChar

StartChar: Lslash
Encoding: 321 321 260
Width: 606
Flags: W
LayerCount: 2
Fore
SplineSet
352 39 m 2,0,1
 378 39 378 39 400.5 42 c 128,-1,2
 423 45 423 45 440 48.5 c 128,-1,3
 457 52 457 52 473 60 c 128,-1,4
 489 68 489 68 499 73 c 128,-1,5
 509 78 509 78 519.5 89.5 c 128,-1,6
 530 101 530 101 535.5 106 c 128,-1,7
 541 111 541 111 548 124.5 c 128,-1,8
 555 138 555 138 557 142 c 128,-1,9
 559 146 559 146 565 159.5 c 128,-1,10
 571 173 571 173 571 174 c 1,11,-1
 596 174 l 1,12,-1
 548 0 l 1,13,-1
 10 0 l 1,14,-1
 10 19 l 1,15,16
 65 23 65 23 81 39.5 c 128,-1,17
 97 56 97 56 97 109 c 2,18,-1
 97 276 l 1,19,-1
 10 226 l 1,20,-1
 10 275 l 1,21,-1
 97 325 l 1,22,-1
 97 553 l 2,23,24
 97 606 97 606 81 622.5 c 128,-1,25
 65 639 65 639 10 643 c 1,26,-1
 10 662 l 1,27,-1
 292 662 l 1,28,-1
 292 643 l 1,29,30
 233 639 233 639 216 622.5 c 128,-1,31
 199 606 199 606 199 553 c 2,32,-1
 199 384 l 1,33,-1
 354 473 l 1,34,-1
 354 424 l 1,35,-1
 199 335 l 1,36,-1
 199 80 l 2,37,38
 199 54 199 54 214.5 46.5 c 128,-1,39
 230 39 230 39 285 39 c 2,40,-1
 352 39 l 2,0,1
EndSplineSet
Validated: 1
EndChar

StartChar: lslash
Encoding: 322 322 261
Width: 278
Flags: W
LayerCount: 2
Fore
SplineSet
98 362 m 1,0,-1
 98 564 l 2,1,2
 98 599 98 599 89 612 c 128,-1,3
 80 625 80 625 56 625 c 0,4,5
 37 625 37 625 19 623 c 1,6,-1
 19 639 l 1,7,8
 118 663 118 663 178 683 c 1,9,-1
 182 681 l 1,10,-1
 182 419 l 1,11,-1
 259 472 l 1,12,-1
 259 428 l 1,13,-1
 182 375 l 1,14,-1
 182 84 l 2,15,16
 182 43 182 43 195.5 30.5 c 128,-1,17
 209 18 209 18 257 15 c 1,18,-1
 257 0 l 1,19,-1
 21 0 l 1,20,-1
 21 15 l 1,21,22
 68 19 68 19 83 33 c 128,-1,23
 98 47 98 47 98 87 c 2,24,-1
 98 318 l 1,25,-1
 20 264 l 1,26,-1
 20 308 l 1,27,-1
 98 362 l 1,0,-1
EndSplineSet
Validated: 1
EndChar

StartChar: Eng
Encoding: 330 330 269
Width: 701
Flags: W
LayerCount: 2
Fore
SplineSet
566 277 m 0,0,1
 566 366 566 366 556 429.5 c 128,-1,2
 546 493 546 493 532 526.5 c 128,-1,3
 518 560 518 560 495 579 c 128,-1,4
 472 598 472 598 454 602 c 128,-1,5
 436 606 436 606 410 606 c 0,6,7
 297 606 297 606 218 468 c 1,8,-1
 218 98 l 2,9,10
 218 57 218 57 236 40 c 128,-1,11
 254 23 254 23 309 19 c 1,12,-1
 309 0 l 1,13,-1
 33 0 l 1,14,-1
 33 19 l 1,15,16
 87 23 87 23 101.5 44.5 c 128,-1,17
 116 66 116 66 116 131 c 2,18,-1
 116 493 l 2,19,20
 116 545 116 545 101.5 566 c 128,-1,21
 87 587 87 587 55 587 c 0,22,23
 28 587 28 587 15 581 c 1,24,-1
 15 606 l 1,25,26
 69 621 69 621 204 672 c 1,27,-1
 214 669 l 1,28,-1
 214 513 l 1,29,30
 317 672 317 672 449 672 c 0,31,32
 485 672 485 672 513.5 665 c 128,-1,33
 542 658 542 658 572 635.5 c 128,-1,34
 602 613 602 613 621.5 575 c 128,-1,35
 641 537 641 537 653.5 470.5 c 128,-1,36
 666 404 666 404 666 314 c 0,37,38
 666 153 666 153 607 69.5 c 128,-1,39
 548 -14 548 -14 443 -14 c 0,40,41
 400 -14 400 -14 372 6 c 128,-1,42
 344 26 344 26 344 58 c 0,43,44
 344 78 344 78 358.5 93 c 128,-1,45
 373 108 373 108 393 108 c 0,46,47
 414 108 414 108 426 95 c 128,-1,48
 438 82 438 82 442 66 c 128,-1,49
 446 50 446 50 453 37 c 128,-1,50
 460 24 460 24 472 24 c 0,51,52
 483 24 483 24 493.5 28 c 128,-1,53
 504 32 504 32 518 47.5 c 128,-1,54
 532 63 532 63 542 88.5 c 128,-1,55
 552 114 552 114 559 163 c 128,-1,56
 566 212 566 212 566 277 c 0,0,1
EndSplineSet
Validated: 1
EndChar

StartChar: eng
Encoding: 331 331 270
Width: 500
Flags: W
LayerCount: 2
Fore
SplineSet
292 -184 m 0,0,1
 322 -184 322 -184 331 -153 c 128,-1,2
 340 -122 340 -122 340 -45 c 2,3,-1
 340 308 l 2,4,5
 340 405 340 405 267 405 c 0,6,7
 242 405 242 405 221 393.5 c 128,-1,8
 200 382 200 382 164 348 c 1,9,-1
 164 67 l 2,10,11
 164 40 164 40 178 29 c 128,-1,12
 192 18 192 18 230 15 c 1,13,-1
 230 0 l 1,14,-1
 18 0 l 1,15,-1
 18 15 l 1,16,17
 56 18 56 18 68 32.5 c 128,-1,18
 80 47 80 47 80 90 c 2,19,-1
 80 338 l 2,20,21
 80 375 80 375 72 388.5 c 128,-1,22
 64 402 64 402 43 402 c 0,23,24
 24 402 24 402 16 398 c 1,25,-1
 16 415 l 1,26,27
 90 437 90 437 154 460 c 1,28,-1
 161 458 l 1,29,-1
 161 379 l 1,30,31
 212 427 212 427 241.5 443.5 c 128,-1,32
 271 460 271 460 306 460 c 0,33,34
 361 460 361 460 392.5 420.5 c 128,-1,35
 424 381 424 381 424 310 c 2,36,-1
 424 0 l 2,37,38
 424 -106 424 -106 381 -162 c 128,-1,39
 338 -218 338 -218 255 -218 c 0,40,41
 214 -218 214 -218 187.5 -202.5 c 128,-1,42
 161 -187 161 -187 161 -163 c 0,43,44
 161 -147 161 -147 173 -135.5 c 128,-1,45
 185 -124 185 -124 202 -124 c 0,46,47
 223 -124 223 -124 248 -154 c 128,-1,48
 273 -184 273 -184 292 -184 c 0,0,1
EndSplineSet
Validated: 1
EndChar

StartChar: OE
Encoding: 338 338 277
Width: 900
Flags: W
LayerCount: 2
Fore
SplineSet
347 668 m 0,0,1
 358 668 358 668 416 665 c 128,-1,2
 474 662 474 662 517 662 c 2,3,-1
 843 662 l 1,4,-1
 843 521 l 1,5,-1
 820 521 l 1,6,7
 811 588 811 588 780.5 607 c 128,-1,8
 750 626 750 626 652 626 c 2,9,-1
 601 626 l 2,10,11
 559 626 559 626 547.5 622 c 128,-1,12
 536 618 536 618 536 602 c 2,13,-1
 536 366 l 1,14,-1
 640 366 l 2,15,16
 710 366 710 366 738.5 384.5 c 128,-1,17
 767 403 767 403 772 464 c 1,18,-1
 793 464 l 1,19,-1
 793 230 l 1,20,-1
 772 230 l 1,21,22
 765 289 765 289 745.5 309 c 128,-1,23
 726 329 726 329 674 329 c 2,24,-1
 536 329 l 1,25,-1
 536 84 l 2,26,27
 536 58 536 58 546.5 49 c 128,-1,28
 557 40 557 40 586 40 c 2,29,-1
 716 40 l 2,30,31
 763 40 763 40 795 68 c 128,-1,32
 827 96 827 96 866 168 c 1,33,-1
 890 168 l 1,34,-1
 846 0 l 1,35,-1
 496 0 l 2,36,37
 468 0 468 0 398.5 -3 c 128,-1,38
 329 -6 329 -6 317 -6 c 0,39,40
 190 -6 190 -6 112.5 83.5 c 128,-1,41
 35 173 35 173 35 322 c 0,42,43
 35 401 35 401 55 463 c 128,-1,44
 75 525 75 525 106.5 562.5 c 128,-1,45
 138 600 138 600 180.5 624.5 c 128,-1,46
 223 649 223 649 264 658.5 c 128,-1,47
 305 668 305 668 347 668 c 0,0,1
436 131 m 2,48,-1
 436 527 l 2,49,50
 436 582 436 582 412.5 607 c 128,-1,51
 389 632 389 632 337 632 c 0,52,53
 246 632 246 632 196.5 552 c 128,-1,54
 147 472 147 472 147 325 c 0,55,56
 147 183 147 183 195.5 107 c 128,-1,57
 244 31 244 31 336 31 c 0,58,59
 389 31 389 31 412.5 54.5 c 128,-1,60
 436 78 436 78 436 131 c 2,48,-1
EndSplineSet
Validated: 1
EndChar

StartChar: oe
Encoding: 339 339 278
Width: 705
Flags: W
LayerCount: 2
Fore
SplineSet
415 277 m 1,0,1
 417 235 417 235 422 203.5 c 128,-1,2
 427 172 427 172 439.5 135 c 128,-1,3
 452 98 452 98 478.5 77.5 c 128,-1,4
 505 57 505 57 544 57 c 0,5,6
 580 57 580 57 609.5 77 c 128,-1,7
 639 97 639 97 674 145 c 1,8,-1
 685 139 l 1,9,10
 646 58 646 58 605 24 c 128,-1,11
 564 -10 564 -10 506 -10 c 0,12,13
 460 -10 460 -10 430.5 12 c 128,-1,14
 401 34 401 34 378 85 c 1,15,16
 349 34 349 34 315.5 12 c 128,-1,17
 282 -10 282 -10 231 -10 c 0,18,19
 140 -10 140 -10 82.5 54 c 128,-1,20
 25 118 25 118 25 218 c 0,21,22
 25 321 25 321 81.5 390.5 c 128,-1,23
 138 460 138 460 227 460 c 0,24,25
 274 460 274 460 308 443 c 128,-1,26
 342 426 342 426 379 384 c 1,27,28
 410 426 410 426 439 443 c 128,-1,29
 468 460 468 460 509 460 c 0,30,31
 570 460 570 460 617 419.5 c 128,-1,32
 664 379 664 379 669 277 c 1,33,-1
 415 277 l 1,0,1
224 431 m 0,34,35
 179 431 179 431 147 394.5 c 128,-1,36
 115 358 115 358 115 271 c 0,37,38
 115 16 115 16 235 16 c 0,39,40
 338 16 338 16 338 199 c 0,41,42
 338 311 338 311 308.5 371 c 128,-1,43
 279 431 279 431 224 431 c 0,34,35
414 307 m 1,44,-1
 574 307 l 1,45,46
 574 328 574 328 573 341.5 c 128,-1,47
 572 355 572 355 568 374 c 128,-1,48
 564 393 564 393 556 404 c 128,-1,49
 548 415 548 415 532.5 423 c 128,-1,50
 517 431 517 431 495 431 c 0,51,52
 415 431 415 431 414 307 c 1,44,-1
EndSplineSet
Validated: 1
EndChar

StartChar: Scedilla
Encoding: 350 350 289
Width: 549
Flags: W
LayerCount: 2
Fore
SplineSet
442 463 m 1,0,1
 418 551 418 551 368.5 593 c 128,-1,2
 319 635 319 635 259 635 c 0,3,4
 213 635 213 635 184 609 c 128,-1,5
 155 583 155 583 155 542 c 0,6,7
 155 502 155 502 189 466 c 128,-1,8
 223 430 223 430 302 386 c 1,9,10
 401 333 401 333 445 281.5 c 128,-1,11
 489 230 489 230 489 168 c 0,12,13
 489 91 489 91 430.5 38.5 c 128,-1,14
 372 -14 372 -14 287 -14 c 2,15,-1
 278 -14 l 1,16,-1
 259 -65 l 1,17,18
 272 -62 272 -62 285 -62 c 0,19,20
 325 -62 325 -62 348 -80.5 c 128,-1,21
 371 -99 371 -99 371 -131 c 0,22,23
 371 -170 371 -170 337.5 -192.5 c 128,-1,24
 304 -215 304 -215 246 -215 c 0,25,26
 201 -215 201 -215 162 -199 c 1,27,-1
 176 -168 l 1,28,29
 212 -180 212 -180 241 -180 c 0,30,31
 266 -180 266 -180 281 -168 c 128,-1,32
 296 -156 296 -156 296 -136 c 0,33,34
 296 -117 296 -117 284 -108.5 c 128,-1,35
 272 -100 272 -100 243 -100 c 0,36,37
 226 -100 226 -100 215 -104 c 1,38,-1
 208 -99 l 1,39,-1
 244 -11 l 1,40,41
 211 -6 211 -6 171.5 7 c 128,-1,42
 132 20 132 20 120 20 c 0,43,44
 109 20 109 20 101 10.5 c 128,-1,45
 93 1 93 1 92 -13 c 1,46,-1
 70 -13 l 1,47,-1
 40 199 l 1,48,-1
 63 199 l 1,49,50
 100 108 100 108 149 65 c 128,-1,51
 198 22 198 22 265 22 c 0,52,53
 320 22 320 22 354 53.5 c 128,-1,54
 388 85 388 85 388 135 c 0,55,56
 388 182 388 182 355 218.5 c 128,-1,57
 322 255 322 255 275 281 c 128,-1,58
 228 307 228 307 181.5 334.5 c 128,-1,59
 135 362 135 362 102 405 c 128,-1,60
 69 448 69 448 69 505 c 0,61,62
 69 581 69 581 120.5 628.5 c 128,-1,63
 172 676 172 676 242 676 c 0,64,65
 284 676 284 676 333 659 c 128,-1,66
 382 642 382 642 392 642 c 0,67,68
 418 642 418 642 424 676 c 1,69,-1
 445 676 l 1,70,-1
 467 463 l 1,71,-1
 442 463 l 1,0,1
EndSplineSet
Validated: 1
EndChar

StartChar: scedilla
Encoding: 351 351 290
Width: 367
Flags: W
LayerCount: 2
Fore
SplineSet
268 440 m 0,0,1
 269 440 269 440 284 450 c 1,2,-1
 295 450 l 1,3,-1
 299 314 l 1,4,-1
 284 314 l 1,5,6
 267 381 267 381 242 409 c 128,-1,7
 217 437 217 437 174 437 c 0,8,9
 140 437 140 437 118.5 418 c 128,-1,10
 97 399 97 399 97 369 c 0,11,12
 97 326 97 326 140 301 c 2,13,-1
 248 237 l 2,14,15
 293 210 293 210 312.5 182.5 c 128,-1,16
 332 155 332 155 332 118 c 0,17,18
 332 66 332 66 290.5 28 c 128,-1,19
 249 -10 249 -10 193 -10 c 2,20,-1
 182 -10 l 1,21,-1
 161 -65 l 1,22,23
 176 -62 176 -62 187 -62 c 0,24,25
 227 -62 227 -62 250 -80.5 c 128,-1,26
 273 -99 273 -99 273 -131 c 0,27,28
 273 -170 273 -170 239.5 -192.5 c 128,-1,29
 206 -215 206 -215 148 -215 c 0,30,31
 103 -215 103 -215 64 -199 c 1,32,-1
 78 -168 l 1,33,34
 115 -180 115 -180 143 -180 c 0,35,36
 168 -180 168 -180 183 -168 c 128,-1,37
 198 -156 198 -156 198 -136 c 0,38,39
 198 -117 198 -117 186 -108.5 c 128,-1,40
 174 -100 174 -100 145 -100 c 0,41,42
 128 -100 128 -100 117 -104 c 1,43,-1
 110 -99 l 1,44,-1
 149 -6 l 1,45,46
 135 -4 135 -4 118.5 0 c 128,-1,47
 102 4 102 4 91 6 c 128,-1,48
 80 8 80 8 72 8 c 0,49,50
 57 8 57 8 49 -4 c 1,51,-1
 36 -4 l 1,52,-1
 36 152 l 1,53,-1
 52 152 l 1,54,55
 68 82 68 82 90 53 c 0,56,57
 122 12 122 12 179 12 c 0,58,59
 217 12 217 12 239.5 31.5 c 128,-1,60
 262 51 262 51 262 84 c 0,61,62
 262 129 262 129 210 159 c 2,63,-1
 152 192 l 2,64,65
 88 228 88 228 61.5 261 c 128,-1,66
 35 294 35 294 35 336 c 0,67,68
 35 390 35 390 73.5 424.5 c 128,-1,69
 112 459 112 459 171 459 c 0,70,71
 204 459 204 459 233 449.5 c 128,-1,72
 262 440 262 440 268 440 c 0,0,1
EndSplineSet
Validated: 1
EndChar

StartChar: Tcedilla
Encoding: 354 354 293
Width: 596
Flags: W
LayerCount: 2
Fore
SplineSet
315 0 m 1,0,-1
 290 -65 l 1,1,2
 305 -62 305 -62 316 -62 c 0,3,4
 356 -62 356 -62 379 -80.5 c 128,-1,5
 402 -99 402 -99 402 -131 c 0,6,7
 402 -170 402 -170 368.5 -192.5 c 128,-1,8
 335 -215 335 -215 277 -215 c 0,9,10
 232 -215 232 -215 193 -199 c 1,11,-1
 207 -168 l 1,12,13
 244 -180 244 -180 272 -180 c 0,14,15
 297 -180 297 -180 312 -168 c 128,-1,16
 327 -156 327 -156 327 -136 c 0,17,18
 327 -117 327 -117 315 -108.5 c 128,-1,19
 303 -100 303 -100 274 -100 c 0,20,21
 257 -100 257 -100 246 -104 c 1,22,-1
 239 -99 l 1,23,-1
 280 0 l 1,24,-1
 153 0 l 1,25,-1
 153 19 l 1,26,27
 215 23 215 23 231 39.5 c 128,-1,28
 247 56 247 56 247 120 c 2,29,-1
 247 620 l 1,30,-1
 193 620 l 2,31,32
 109 620 109 620 80.5 597 c 128,-1,33
 52 574 52 574 34 492 c 1,34,-1
 10 492 l 1,35,-1
 16 662 l 1,36,-1
 580 662 l 1,37,-1
 586 492 l 1,38,-1
 562 492 l 1,39,40
 545 575 545 575 516.5 597.5 c 128,-1,41
 488 620 488 620 403 620 c 2,42,-1
 349 620 l 1,43,-1
 349 109 l 2,44,45
 349 54 349 54 366 38 c 128,-1,46
 383 22 383 22 445 19 c 1,47,-1
 445 0 l 1,48,-1
 315 0 l 1,0,-1
EndSplineSet
Validated: 1
EndChar

StartChar: tcedilla
Encoding: 355 355 294
Width: 283
Flags: W
LayerCount: 2
Fore
SplineSet
174 -10 m 1,0,-1
 153 -65 l 1,1,2
 168 -62 168 -62 179 -62 c 0,3,4
 219 -62 219 -62 242 -80.5 c 128,-1,5
 265 -99 265 -99 265 -131 c 0,6,7
 265 -170 265 -170 231.5 -192.5 c 128,-1,8
 198 -215 198 -215 140 -215 c 0,9,10
 95 -215 95 -215 56 -199 c 1,11,-1
 70 -168 l 1,12,13
 107 -180 107 -180 135 -180 c 0,14,15
 160 -180 160 -180 175 -168 c 128,-1,16
 190 -156 190 -156 190 -136 c 0,17,18
 190 -117 190 -117 178 -108.5 c 128,-1,19
 166 -100 166 -100 137 -100 c 0,20,21
 120 -100 120 -100 109 -104 c 1,22,-1
 102 -99 l 1,23,-1
 140 -7 l 1,24,25
 74 8 74 8 74 117 c 2,26,-1
 74 418 l 1,27,-1
 21 418 l 1,28,29
 17 421 17 421 17 425 c 0,30,31
 17 430 17 430 20 433 c 128,-1,32
 23 436 23 436 31.5 441.5 c 128,-1,33
 40 447 40 447 52 456.5 c 128,-1,34
 64 466 64 466 85 491 c 128,-1,35
 106 516 106 516 131 551 c 0,36,37
 147 574 147 574 151 579 c 1,38,39
 158 579 158 579 158 566 c 2,40,-1
 158 450 l 1,41,-1
 259 450 l 1,42,-1
 259 418 l 1,43,-1
 158 418 l 1,44,-1
 158 132 l 2,45,46
 158 85 158 85 170 63.5 c 128,-1,47
 182 42 182 42 210 42 c 0,48,49
 241 42 241 42 270 77 c 1,50,-1
 283 66 l 1,51,52
 239 -4 239 -4 174 -10 c 1,0,-1
EndSplineSet
Validated: 1
EndChar

StartChar: tcaron
Encoding: 357 357 296
Width: 410
Flags: W
LayerCount: 2
Fore
SplineSet
270 471 m 1,0,-1
 235 471 l 1,1,-1
 313 641 l 1,2,3
 324 661 324 661 333 668 c 128,-1,4
 342 675 342 675 357 675 c 0,5,6
 371 675 371 675 380.5 667 c 128,-1,7
 390 659 390 659 390 644 c 0,8,9
 390 627 390 627 372 604 c 2,10,-1
 270 471 l 1,0,-1
259 450 m 1,11,-1
 259 418 l 1,12,-1
 158 418 l 1,13,-1
 158 132 l 2,14,15
 158 85 158 85 170 63.5 c 128,-1,16
 182 42 182 42 210 42 c 0,17,18
 241 42 241 42 270 77 c 1,19,-1
 283 66 l 1,20,21
 235 -10 235 -10 163 -10 c 0,22,23
 74 -10 74 -10 74 117 c 2,24,-1
 74 418 l 1,25,-1
 21 418 l 1,26,27
 17 421 17 421 17 425 c 0,28,29
 17 430 17 430 20 433 c 128,-1,30
 23 436 23 436 31.5 441.5 c 128,-1,31
 40 447 40 447 52 456.5 c 128,-1,32
 64 466 64 466 85 491 c 128,-1,33
 106 516 106 516 131 551 c 0,34,35
 147 574 147 574 151 579 c 1,36,37
 158 579 158 579 158 566 c 2,38,-1
 158 450 l 1,39,-1
 259 450 l 1,11,-1
EndSplineSet
Validated: 1
EndChar

StartChar: Tbar
Encoding: 358 358 297
Width: 596
Flags: W
LayerCount: 2
Fore
SplineSet
247 314 m 1,0,-1
 133 314 l 1,1,-1
 133 359 l 1,2,-1
 247 359 l 1,3,-1
 247 620 l 1,4,-1
 193 620 l 2,5,6
 109 620 109 620 80.5 597 c 128,-1,7
 52 574 52 574 34 492 c 1,8,-1
 10 492 l 1,9,-1
 16 662 l 1,10,-1
 580 662 l 1,11,-1
 586 492 l 1,12,-1
 562 492 l 1,13,14
 545 575 545 575 516.5 597.5 c 128,-1,15
 488 620 488 620 403 620 c 2,16,-1
 349 620 l 1,17,-1
 349 359 l 1,18,-1
 463 359 l 1,19,-1
 463 314 l 1,20,-1
 349 314 l 1,21,-1
 349 109 l 2,22,23
 349 54 349 54 366 38 c 128,-1,24
 383 22 383 22 445 19 c 1,25,-1
 445 0 l 1,26,-1
 153 0 l 1,27,-1
 153 19 l 1,28,29
 215 23 215 23 231 39.5 c 128,-1,30
 247 56 247 56 247 120 c 2,31,-1
 247 314 l 1,0,-1
EndSplineSet
Validated: 1
EndChar

StartChar: tbar
Encoding: 359 359 298
Width: 283
Flags: W
LayerCount: 2
Fore
SplineSet
74 275 m 1,0,-1
 17 275 l 1,1,-1
 17 320 l 1,2,-1
 74 320 l 1,3,-1
 74 418 l 1,4,-1
 21 418 l 1,5,6
 17 421 17 421 17 425 c 0,7,8
 17 430 17 430 20 433 c 128,-1,9
 23 436 23 436 31.5 441.5 c 128,-1,10
 40 447 40 447 52 456.5 c 128,-1,11
 64 466 64 466 85 491 c 128,-1,12
 106 516 106 516 131 551 c 0,13,14
 147 574 147 574 151 579 c 1,15,16
 158 579 158 579 158 566 c 2,17,-1
 158 450 l 1,18,-1
 259 450 l 1,19,-1
 259 418 l 1,20,-1
 158 418 l 1,21,-1
 158 320 l 1,22,-1
 259 320 l 1,23,-1
 259 275 l 1,24,-1
 158 275 l 1,25,-1
 158 132 l 2,26,27
 158 85 158 85 170 63.5 c 128,-1,28
 182 42 182 42 210 42 c 0,29,30
 241 42 241 42 270 77 c 1,31,-1
 283 66 l 1,32,33
 235 -10 235 -10 163 -10 c 0,34,35
 74 -10 74 -10 74 117 c 2,36,-1
 74 275 l 1,0,-1
EndSplineSet
Validated: 1
EndChar

StartChar: Uogonek
Encoding: 370 370 309
Width: 711
Flags: W
LayerCount: 2
Fore
SplineSet
202 233 m 2,0,1
 202 134 202 134 242 82 c 128,-1,2
 282 30 282 30 380 30 c 0,3,4
 563 30 563 30 563 245 c 2,5,-1
 563 515 l 2,6,7
 563 590 563 590 545 614.5 c 128,-1,8
 527 639 527 639 469 643 c 1,9,-1
 469 662 l 1,10,-1
 701 662 l 1,11,-1
 701 643 l 1,12,13
 639 635 639 635 623 613 c 128,-1,14
 607 591 607 591 607 515 c 2,15,-1
 607 254 l 2,16,17
 607 163 607 163 588 117.5 c 128,-1,18
 569 72 569 72 510 23 c 0,19,20
 450 -27 450 -27 450 -71 c 0,21,22
 450 -87 450 -87 461 -98 c 128,-1,23
 472 -109 472 -109 488 -109 c 0,24,25
 517 -109 517 -109 560 -73 c 1,26,-1
 580 -89 l 1,27,28
 526 -165 526 -165 467 -165 c 0,29,30
 436 -165 436 -165 415 -143 c 128,-1,31
 394 -121 394 -121 394 -89 c 0,32,33
 394 -44 394 -44 445 -3 c 1,34,35
 393 -14 393 -14 349 -14 c 0,36,37
 223 -14 223 -14 161.5 49 c 128,-1,38
 100 112 100 112 100 241 c 2,39,-1
 100 553 l 2,40,41
 100 608 100 608 84.5 623 c 128,-1,42
 69 638 69 638 10 643 c 1,43,-1
 10 662 l 1,44,-1
 293 662 l 1,45,-1
 293 643 l 1,46,47
 233 638 233 638 217.5 622.5 c 128,-1,48
 202 607 202 607 202 553 c 2,49,-1
 202 233 l 2,0,1
EndSplineSet
Validated: 1
EndChar

StartChar: uogonek
Encoding: 371 371 310
Width: 501
Flags: W
LayerCount: 2
Fore
SplineSet
480 36 m 1,0,1
 448 28 448 28 410 0.5 c 128,-1,2
 372 -27 372 -27 372 -70 c 0,3,4
 372 -87 372 -87 382.5 -98 c 128,-1,5
 393 -109 393 -109 410 -109 c 0,6,7
 438 -109 438 -109 481 -73 c 1,8,-1
 501 -89 l 1,9,10
 448 -165 448 -165 389 -165 c 0,11,12
 358 -165 358 -165 337 -143 c 128,-1,13
 316 -121 316 -121 316 -89 c 0,14,15
 316 -60 316 -60 339 -29 c 1,16,-1
 339 76 l 1,17,18
 336 73 336 73 321.5 58 c 128,-1,19
 307 43 307 43 301 37.5 c 128,-1,20
 295 32 295 32 280.5 20.5 c 128,-1,21
 266 9 266 9 255 4 c 128,-1,22
 244 -1 244 -1 227 -5.5 c 128,-1,23
 210 -10 210 -10 193 -10 c 0,24,25
 138 -10 138 -10 105 25.5 c 128,-1,26
 72 61 72 61 72 120 c 2,27,-1
 72 372 l 2,28,29
 72 407 72 407 59 420.5 c 128,-1,30
 46 434 46 434 10 436 c 1,31,-1
 10 450 l 1,32,-1
 156 450 l 1,33,-1
 156 124 l 2,34,35
 156 93 156 93 177 70.5 c 128,-1,36
 198 48 198 48 227 48 c 0,37,38
 238 48 238 48 253 51 c 128,-1,39
 268 54 268 54 287.5 62.5 c 128,-1,40
 307 71 307 71 320.5 89.5 c 128,-1,41
 334 108 334 108 334 135 c 2,42,-1
 334 370 l 2,43,44
 334 407 334 407 320.5 419 c 128,-1,45
 307 431 307 431 260 433 c 1,46,-1
 260 450 l 1,47,-1
 418 450 l 1,48,-1
 418 107 l 2,49,50
 418 70 418 70 430.5 60 c 128,-1,51
 443 50 443 50 480 50 c 1,52,-1
 480 36 l 1,0,1
EndSplineSet
Validated: 1
EndChar

StartChar: longs
Encoding: 383 383 322
Width: 373
Flags: W
LayerCount: 2
Fore
SplineSet
331 580 m 0,0,1
 315 580 315 580 303.5 591.5 c 128,-1,2
 292 603 292 603 285.5 617.5 c 128,-1,3
 279 632 279 632 265.5 643.5 c 128,-1,4
 252 655 252 655 233 655 c 0,5,6
 177 655 177 655 177 566 c 2,7,-1
 177 104 l 2,8,9
 177 48 177 48 193 32.5 c 128,-1,10
 209 17 209 17 270 15 c 1,11,-1
 270 0 l 1,12,-1
 10 0 l 1,13,-1
 10 15 l 1,14,15
 64 18 64 18 78.5 33.5 c 128,-1,16
 93 49 93 49 93 104 c 2,17,-1
 93 418 l 1,18,-1
 11 418 l 1,19,-1
 11 450 l 1,20,-1
 93 450 l 1,21,22
 95 562 95 562 135 622.5 c 128,-1,23
 175 683 175 683 269 683 c 0,24,25
 314 683 314 683 343.5 665.5 c 128,-1,26
 373 648 373 648 373 621 c 0,27,28
 373 604 373 604 360.5 592 c 128,-1,29
 348 580 348 580 331 580 c 0,0,1
EndSplineSet
Validated: 1
EndChar

StartChar: bbar
Encoding: 384 384 323
Width: 504
Flags: W
LayerCount: 2
Fore
SplineSet
10 527 m 1,0,-1
 10 561 l 1,1,-1
 80 561 l 1,2,-1
 80 573 l 2,3,4
 80 604 80 604 70.5 614 c 128,-1,5
 61 624 61 624 31 624 c 0,6,7
 20 624 20 624 14 623 c 1,8,-1
 14 639 l 1,9,-1
 43 647 l 2,10,11
 110 666 110 666 159 683 c 1,12,-1
 164 681 l 1,13,-1
 164 561 l 1,14,-1
 291 561 l 1,15,-1
 291 527 l 1,16,-1
 164 527 l 1,17,-1
 164 375 l 1,18,19
 179 412 179 412 218 436 c 128,-1,20
 257 460 257 460 303 460 c 0,21,22
 378 460 378 460 428.5 397.5 c 128,-1,23
 479 335 479 335 479 243 c 0,24,25
 479 136 479 136 411.5 63 c 128,-1,26
 344 -10 344 -10 245 -10 c 0,27,28
 185 -10 185 -10 132.5 10.5 c 128,-1,29
 80 31 80 31 80 54 c 2,30,-1
 80 527 l 1,31,-1
 10 527 l 1,0,-1
164 322 m 2,32,-1
 164 70 l 2,33,34
 164 51 164 51 193 36.5 c 128,-1,35
 222 22 222 22 261 22 c 0,36,37
 323 22 323 22 357 68 c 128,-1,38
 391 114 391 114 391 197 c 0,39,40
 391 288 391 288 356.5 342.5 c 128,-1,41
 322 397 322 397 263 397 c 0,42,43
 224 397 224 397 194 374 c 128,-1,44
 164 351 164 351 164 322 c 2,32,-1
EndSplineSet
Validated: 1
EndChar

StartChar: Bhook
Encoding: 385 385 324
Width: 737
Flags: W
LayerCount: 2
Fore
SplineSet
702 180 m 0,0,1
 702 150 702 150 691 121 c 128,-1,2
 680 92 680 92 654.5 63.5 c 128,-1,3
 629 35 629 35 579 17.5 c 128,-1,4
 529 0 529 0 460 0 c 2,5,-1
 126 0 l 1,6,-1
 126 19 l 1,7,8
 188 21 188 21 205 37 c 128,-1,9
 222 53 222 53 222 109 c 2,10,-1
 222 553 l 2,11,12
 222 604 222 604 209 614.5 c 128,-1,13
 196 625 196 625 139 625 c 2,14,-1
 126 625 l 2,15,16
 90 625 90 625 64.5 607.5 c 128,-1,17
 39 590 39 590 39 570 c 0,18,19
 39 551 39 551 69 526 c 128,-1,20
 99 501 99 501 99 480 c 0,21,22
 99 463 99 463 87.5 451 c 128,-1,23
 76 439 76 439 60 439 c 0,24,25
 36 439 36 439 20.5 465.5 c 128,-1,26
 5 492 5 492 5 533 c 0,27,28
 5 662 5 662 151 662 c 2,29,-1
 406 662 l 2,30,31
 668 662 668 662 668 492 c 0,32,33
 668 459 668 459 656 433.5 c 128,-1,34
 644 408 644 408 631.5 394.5 c 128,-1,35
 619 381 619 381 593 369 c 128,-1,36
 567 357 567 357 560 355.5 c 128,-1,37
 553 354 553 354 531 348 c 1,38,39
 554 342 554 342 565.5 339 c 128,-1,40
 577 336 577 336 607.5 322 c 128,-1,41
 638 308 638 308 655 292 c 128,-1,42
 672 276 672 276 687 246.5 c 128,-1,43
 702 217 702 217 702 180 c 0,0,1
387 37 m 0,44,45
 432 37 432 37 465 43 c 128,-1,46
 498 49 498 49 527 63.5 c 128,-1,47
 556 78 556 78 571.5 107 c 128,-1,48
 587 136 587 136 587 179 c 0,49,50
 587 213 587 213 578.5 238 c 128,-1,51
 570 263 570 263 551 279 c 128,-1,52
 532 295 532 295 511.5 304.5 c 128,-1,53
 491 314 491 314 457 318.5 c 128,-1,54
 423 323 423 323 395 324.5 c 128,-1,55
 367 326 367 326 324 326 c 1,56,-1
 324 78 l 2,57,58
 324 54 324 54 337 45.5 c 128,-1,59
 350 37 350 37 387 37 c 0,44,45
324 366 m 1,60,-1
 419 366 l 2,61,62
 489 366 489 366 527.5 397.5 c 128,-1,63
 566 429 566 429 566 488 c 0,64,65
 566 555 566 555 521 590 c 128,-1,66
 476 625 476 625 390 625 c 2,67,-1
 346 625 l 2,68,69
 324 625 324 625 324 595 c 2,70,-1
 324 366 l 1,60,-1
EndSplineSet
Validated: 1
EndChar

StartChar: Btopbar
Encoding: 386 386 325
Width: 624
Flags: W
LayerCount: 2
Fore
SplineSet
274 37 m 0,0,1
 319 37 319 37 352 43 c 128,-1,2
 385 49 385 49 414 63.5 c 128,-1,3
 443 78 443 78 458.5 107 c 128,-1,4
 474 136 474 136 474 179 c 0,5,6
 474 220 474 220 458.5 248.5 c 128,-1,7
 443 277 443 277 421.5 292 c 128,-1,8
 400 307 400 307 360.5 315 c 128,-1,9
 321 323 321 323 291 324.5 c 128,-1,10
 261 326 261 326 211 326 c 1,11,-1
 211 78 l 2,12,13
 211 54 211 54 224 45.5 c 128,-1,14
 237 37 237 37 274 37 c 0,0,1
503 662 m 1,15,-1
 509 492 l 1,16,-1
 485 492 l 1,17,18
 468 575 468 575 439.5 597.5 c 128,-1,19
 411 620 411 620 326 620 c 2,20,-1
 233 620 l 2,21,22
 211 620 211 620 211 590 c 2,23,-1
 211 366 l 1,24,-1
 306 366 l 2,25,26
 342 366 342 366 376 362.5 c 128,-1,27
 410 359 410 359 450.5 347 c 128,-1,28
 491 335 491 335 520 315.5 c 128,-1,29
 549 296 549 296 569 261 c 128,-1,30
 589 226 589 226 589 180 c 0,31,32
 589 150 589 150 578 121 c 128,-1,33
 567 92 567 92 541.5 63.5 c 128,-1,34
 516 35 516 35 466 17.5 c 128,-1,35
 416 0 416 0 347 0 c 2,36,-1
 13 0 l 1,37,-1
 13 19 l 1,38,39
 75 21 75 21 92 37 c 128,-1,40
 109 53 109 53 109 109 c 2,41,-1
 109 553 l 2,42,43
 109 608 109 608 92.5 623.5 c 128,-1,44
 76 639 76 639 13 643 c 1,45,-1
 13 662 l 1,46,-1
 503 662 l 1,15,-1
EndSplineSet
Validated: 1
EndChar

StartChar: btopbar
Encoding: 387 387 326
Width: 513
Flags: W
LayerCount: 2
Fore
SplineSet
173 322 m 2,0,-1
 173 70 l 2,1,2
 173 51 173 51 202 36.5 c 128,-1,3
 231 22 231 22 270 22 c 0,4,5
 332 22 332 22 366 68 c 128,-1,6
 400 114 400 114 400 197 c 0,7,8
 400 288 400 288 365.5 342.5 c 128,-1,9
 331 397 331 397 272 397 c 0,10,11
 233 397 233 397 203 374 c 128,-1,12
 173 351 173 351 173 322 c 2,0,-1
394 538 m 1,13,14
 381 592 381 592 367 608 c 0,15,16
 348 630 348 630 307 630 c 2,17,-1
 173 630 l 1,18,-1
 173 375 l 1,19,20
 188 412 188 412 227 436 c 128,-1,21
 266 460 266 460 312 460 c 0,22,23
 387 460 387 460 437.5 397.5 c 128,-1,24
 488 335 488 335 488 243 c 0,25,26
 488 136 488 136 420.5 63 c 128,-1,27
 353 -10 353 -10 254 -10 c 0,28,29
 194 -10 194 -10 141.5 10.5 c 128,-1,30
 89 31 89 31 89 54 c 2,31,-1
 89 580 l 2,32,33
 89 618 89 618 72.5 631 c 128,-1,34
 56 644 56 644 10 644 c 1,35,-1
 10 662 l 1,36,-1
 397 662 l 1,37,-1
 415 538 l 1,38,-1
 394 538 l 1,13,14
EndSplineSet
Validated: 1
EndChar

StartChar: Tonesix
Encoding: 388 388 327
Width: 641
Flags: W
LayerCount: 2
Fore
SplineSet
483 196 m 0,0,1
 483 240 483 240 464.5 271 c 128,-1,2
 446 302 446 302 415.5 316.5 c 128,-1,3
 385 331 385 331 356.5 337 c 128,-1,4
 328 343 328 343 296 343 c 0,5,6
 267 343 267 343 242 339 c 1,7,-1
 242 45 l 1,8,9
 277 37 277 37 315 37 c 0,10,11
 342 37 342 37 369 44.5 c 128,-1,12
 396 52 396 52 423 68.5 c 128,-1,13
 450 85 450 85 466.5 118 c 128,-1,14
 483 151 483 151 483 196 c 0,0,1
11 513 m 2,15,-1
 5 513 l 1,16,-1
 5 529 l 1,17,-1
 106 601 l 2,18,19
 207 673 207 673 238 683 c 1,20,-1
 242 681 l 1,21,-1
 242 380 l 1,22,-1
 300 380 l 2,23,24
 375 380 375 380 431.5 367.5 c 128,-1,25
 488 355 488 355 520.5 336 c 128,-1,26
 553 317 553 317 573 290.5 c 128,-1,27
 593 264 593 264 599.5 239.5 c 128,-1,28
 606 215 606 215 606 188 c 0,29,30
 606 158 606 158 594.5 128 c 128,-1,31
 583 98 583 98 557.5 67.5 c 128,-1,32
 532 37 532 37 480.5 18.5 c 128,-1,33
 429 0 429 0 359 0 c 2,34,-1
 37 0 l 1,35,-1
 37 18 l 1,36,37
 62 20 62 20 76 23 c 128,-1,38
 90 26 90 26 105 35 c 128,-1,39
 120 44 120 44 127 61.5 c 128,-1,40
 134 79 134 79 134 107 c 2,41,-1
 134 384 l 2,42,43
 134 424 134 424 82.5 468.5 c 128,-1,44
 31 513 31 513 11 513 c 2,15,-1
EndSplineSet
Validated: 1
EndChar

StartChar: tonesix
Encoding: 389 389 328
Width: 515
Flags: W
LayerCount: 2
Fore
SplineSet
170 683 m 1,0,-1
 175 681 l 1,1,-1
 175 375 l 1,2,3
 190 412 190 412 229 436 c 128,-1,4
 268 460 268 460 314 460 c 0,5,6
 389 460 389 460 439.5 397.5 c 128,-1,7
 490 335 490 335 490 243 c 0,8,9
 490 136 490 136 422.5 63 c 128,-1,10
 355 -10 355 -10 256 -10 c 0,11,12
 196 -10 196 -10 143.5 10.5 c 128,-1,13
 91 31 91 31 91 54 c 2,14,-1
 91 383 l 2,15,16
 91 410 91 410 59 466.5 c 128,-1,17
 27 523 27 523 10 523 c 2,18,-1
 5 523 l 1,19,-1
 5 539 l 1,20,21
 142 665 142 665 170 683 c 1,0,-1
175 322 m 2,22,-1
 175 70 l 2,23,24
 175 51 175 51 204 36.5 c 128,-1,25
 233 22 233 22 272 22 c 0,26,27
 334 22 334 22 368 68 c 128,-1,28
 402 114 402 114 402 197 c 0,29,30
 402 288 402 288 367.5 342.5 c 128,-1,31
 333 397 333 397 274 397 c 0,32,33
 235 397 235 397 205 374 c 128,-1,34
 175 351 175 351 175 322 c 2,22,-1
EndSplineSet
Validated: 1
EndChar

StartChar: Chook
Encoding: 391 391 330
Width: 813
Flags: W
LayerCount: 2
Fore
SplineSet
370 676 m 0,0,1
 433 676 433 676 490 659.5 c 128,-1,2
 547 643 547 643 556 643 c 0,3,4
 580 643 580 643 589 676 c 1,5,6
 589 822 589 822 719 822 c 0,7,8
 760 822 760 822 786.5 806.5 c 128,-1,9
 813 791 813 791 813 767 c 0,10,11
 813 751 813 751 801 739.5 c 128,-1,12
 789 728 789 728 772 728 c 0,13,14
 751 728 751 728 726 758 c 128,-1,15
 701 788 701 788 682 788 c 0,16,17
 662 788 662 788 644.5 762.5 c 128,-1,18
 627 737 627 737 627 701 c 2,19,-1
 627 450 l 1,20,-1
 604 450 l 1,21,22
 549 636 549 636 389 636 c 0,23,24
 280 636 280 636 215.5 555 c 128,-1,25
 151 474 151 474 151 338 c 0,26,27
 151 251 151 251 173.5 187.5 c 128,-1,28
 196 124 196 124 234 91.5 c 128,-1,29
 272 59 272 59 312.5 44.5 c 128,-1,30
 353 30 353 30 399 30 c 0,31,32
 517 30 517 30 622 131 c 1,33,-1
 640 113 l 1,34,35
 594 52 594 52 523 19 c 128,-1,36
 452 -14 452 -14 367 -14 c 0,37,38
 219 -14 219 -14 127 79 c 128,-1,39
 35 172 35 172 35 325 c 0,40,41
 35 481 35 481 131 578.5 c 128,-1,42
 227 676 227 676 370 676 c 0,0,1
EndSplineSet
Validated: 1
EndChar

StartChar: chook
Encoding: 392 392 331
Width: 554
Flags: W
LayerCount: 2
Fore
SplineSet
25 213 m 0,0,1
 25 324 25 324 90.5 392 c 128,-1,2
 156 460 156 460 244 460 c 0,3,4
 292 460 292 460 328 442 c 1,5,6
 341 568 341 568 366.5 624 c 128,-1,7
 392 680 392 680 440 680 c 0,8,9
 554 680 554 680 554 625 c 0,10,11
 554 609 554 609 542 597.5 c 128,-1,12
 530 586 530 586 513 586 c 0,13,14
 492 586 492 586 472 616 c 128,-1,15
 452 646 452 646 433 646 c 0,16,17
 405 646 405 646 386.5 578.5 c 128,-1,18
 368 511 368 511 368 449 c 0,19,20
 368 427 368 427 383 401.5 c 128,-1,21
 398 376 398 376 398 357 c 0,22,23
 398 339 398 339 384 327 c 128,-1,24
 370 315 370 315 350 315 c 0,25,26
 316 315 316 315 303 361 c 2,27,-1
 297 383 l 2,28,29
 289 411 289 411 277 421 c 128,-1,30
 265 431 265 431 238 431 c 0,31,32
 177 431 177 431 139.5 382.5 c 128,-1,33
 102 334 102 334 102 257 c 0,34,35
 102 171 102 171 145.5 116.5 c 128,-1,36
 189 62 189 62 257 62 c 0,37,38
 300 62 300 62 331 83 c 128,-1,39
 362 104 362 104 398 156 c 1,40,-1
 412 147 l 1,41,42
 402 127 402 127 394.5 114 c 128,-1,43
 387 101 387 101 367.5 75 c 128,-1,44
 348 49 348 49 329 33 c 128,-1,45
 310 17 310 17 279 3.5 c 128,-1,46
 248 -10 248 -10 215 -10 c 0,47,48
 132 -10 132 -10 78.5 52.5 c 128,-1,49
 25 115 25 115 25 213 c 0,0,1
EndSplineSet
Validated: 1
EndChar

StartChar: Dhook
Encoding: 394 394 333
Width: 830
Flags: W
LayerCount: 2
Fore
SplineSet
686 327 m 0,0,1
 686 370 686 370 677.5 409.5 c 128,-1,2
 669 449 669 449 647 489.5 c 128,-1,3
 625 530 625 530 590 559 c 128,-1,4
 555 588 555 588 498 606.5 c 128,-1,5
 441 625 441 625 368 625 c 0,6,7
 337 625 337 625 326.5 617 c 128,-1,8
 316 609 316 609 316 586 c 2,9,-1
 316 78 l 2,10,11
 316 54 316 54 327 45.5 c 128,-1,12
 338 37 338 37 368 37 c 0,13,14
 686 37 686 37 686 327 c 0,0,1
795 334 m 0,15,16
 795 289 795 289 785 246 c 128,-1,17
 775 203 775 203 748 157 c 128,-1,18
 721 111 721 111 679 77.5 c 128,-1,19
 637 44 637 44 567.5 22 c 128,-1,20
 498 0 498 0 410 0 c 2,21,-1
 126 0 l 1,22,-1
 126 19 l 1,23,24
 183 23 183 23 198.5 39 c 128,-1,25
 214 55 214 55 214 109 c 2,26,-1
 214 553 l 2,27,28
 214 602 214 602 201.5 613.5 c 128,-1,29
 189 625 189 625 142 625 c 2,30,-1
 131 625 l 2,31,32
 95 625 95 625 69.5 607.5 c 128,-1,33
 44 590 44 590 44 570 c 0,34,35
 44 551 44 551 74 526 c 128,-1,36
 104 501 104 501 104 480 c 0,37,38
 104 463 104 463 92.5 451 c 128,-1,39
 81 439 81 439 65 439 c 0,40,41
 41 439 41 439 25.5 465.5 c 128,-1,42
 10 492 10 492 10 533 c 0,43,44
 10 662 10 662 156 662 c 2,45,-1
 396 662 l 2,46,47
 487 662 487 662 558.5 641.5 c 128,-1,48
 630 621 630 621 673.5 588.5 c 128,-1,49
 717 556 717 556 745.5 511.5 c 128,-1,50
 774 467 774 467 784.5 424 c 128,-1,51
 795 381 795 381 795 334 c 0,15,16
EndSplineSet
Validated: 1
EndChar

StartChar: Dtopbar
Encoding: 395 395 334
Width: 582
Flags: W
LayerCount: 2
Fore
SplineSet
367 422 m 1,0,1
 320 421 320 421 279.5 410.5 c 128,-1,2
 239 400 239 400 204.5 378 c 128,-1,3
 170 356 170 356 150 317.5 c 128,-1,4
 130 279 130 279 130 227 c 0,5,6
 130 190 130 190 140 157 c 128,-1,7
 150 124 150 124 172 94 c 128,-1,8
 194 64 194 64 236 46 c 128,-1,9
 278 28 278 28 337 28 c 0,10,11
 354 28 354 28 360.5 36.5 c 128,-1,12
 367 45 367 45 367 74 c 2,13,-1
 367 422 l 1,0,1
35 222 m 0,14,15
 35 260 35 260 49 297.5 c 128,-1,16
 63 335 63 335 92.5 370.5 c 128,-1,17
 122 406 122 406 177.5 428 c 128,-1,18
 233 450 233 450 308 450 c 2,19,-1
 367 450 l 1,20,-1
 367 620 l 1,21,-1
 234 620 l 2,22,23
 150 620 150 620 121.5 597 c 128,-1,24
 93 574 93 574 75 492 c 1,25,-1
 51 492 l 1,26,-1
 57 662 l 1,27,-1
 567 662 l 1,28,-1
 567 643 l 1,29,30
 501 640 501 640 485 623 c 128,-1,31
 469 606 469 606 469 547 c 2,32,-1
 469 116 l 2,33,34
 469 57 469 57 486 40.5 c 128,-1,35
 503 24 503 24 567 18 c 1,36,-1
 567 0 l 1,37,-1
 318 0 l 2,38,39
 241 0 241 0 183.5 20.5 c 128,-1,40
 126 41 126 41 95 74.5 c 128,-1,41
 64 108 64 108 49.5 145 c 128,-1,42
 35 182 35 182 35 222 c 0,14,15
EndSplineSet
Validated: 1
EndChar

StartChar: dtopbar
Encoding: 396 396 335
Width: 511
Flags: W
LayerCount: 2
Fore
SplineSet
249 42 m 0,0,1
 286 42 286 42 312 63 c 128,-1,2
 338 84 338 84 338 102 c 2,3,-1
 338 332 l 2,4,5
 338 372 338 372 307 402 c 128,-1,6
 276 432 276 432 236 432 c 0,7,8
 179 432 179 432 145 381 c 128,-1,9
 111 330 111 330 111 245 c 0,10,11
 111 153 111 153 149 97.5 c 128,-1,12
 187 42 187 42 249 42 c 0,0,1
204 630 m 2,13,14
 179 630 179 630 163 623.5 c 128,-1,15
 147 617 147 617 138 600 c 128,-1,16
 129 583 129 583 126 574 c 128,-1,17
 123 565 123 565 117 538 c 1,18,-1
 96 538 l 1,19,-1
 114 662 l 1,20,-1
 501 662 l 1,21,-1
 501 644 l 1,22,23
 455 644 455 644 438.5 631 c 128,-1,24
 422 618 422 618 422 580 c 2,25,-1
 422 114 l 2,26,27
 422 79 422 79 430.5 68 c 128,-1,28
 439 57 439 57 466 57 c 0,29,30
 471 57 471 57 489 58 c 1,31,-1
 489 42 l 1,32,-1
 342 -10 l 1,33,-1
 338 -7 l 1,34,-1
 338 57 l 1,35,36
 290 -10 290 -10 210 -10 c 0,37,38
 127 -10 127 -10 76 49.5 c 128,-1,39
 25 109 25 109 25 205 c 0,40,41
 25 311 25 311 86 385.5 c 128,-1,42
 147 460 147 460 233 460 c 0,43,44
 287 460 287 460 338 417 c 1,45,-1
 338 630 l 1,46,-1
 204 630 l 2,13,14
EndSplineSet
Validated: 1
EndChar

StartChar: deltaturn
Encoding: 397 397 336
Width: 496
Flags: W
LayerCount: 2
Fore
SplineSet
25 232 m 0,0,1
 25 329 25 329 87.5 394 c 128,-1,2
 150 459 150 459 250 459 c 0,3,4
 348 459 348 459 409.5 396.5 c 128,-1,5
 471 334 471 334 471 240 c 0,6,7
 471 158 471 158 411 100.5 c 128,-1,8
 351 43 351 43 266 43 c 0,9,10
 246 43 246 43 206 51 c 1,11,-1
 204 49 l 1,12,13
 217 41 217 41 247.5 25 c 128,-1,14
 278 9 278 9 300 -4 c 128,-1,15
 322 -17 322 -17 345.5 -35 c 128,-1,16
 369 -53 369 -53 382 -75 c 128,-1,17
 395 -97 395 -97 395 -121 c 0,18,19
 395 -168 395 -168 364 -196 c 128,-1,20
 333 -224 333 -224 284 -224 c 0,21,22
 231 -224 231 -224 186.5 -190.5 c 128,-1,23
 142 -157 142 -157 124 -107 c 1,24,-1
 150 -107 l 1,25,26
 167 -147 167 -147 202.5 -174 c 128,-1,27
 238 -201 238 -201 280 -201 c 0,28,29
 307 -201 307 -201 327 -186.5 c 128,-1,30
 347 -172 347 -172 347 -147 c 0,31,32
 347 -129 347 -129 323 -108.5 c 128,-1,33
 299 -88 299 -88 263.5 -69 c 128,-1,34
 228 -50 228 -50 186 -20.5 c 128,-1,35
 144 9 144 9 108.5 41.5 c 128,-1,36
 73 74 73 74 49 124 c 128,-1,37
 25 174 25 174 25 232 c 0,0,1
118 251 m 0,38,39
 118 206 118 206 129.5 167.5 c 128,-1,40
 141 129 141 129 173 100 c 128,-1,41
 205 71 205 71 253 71 c 0,42,43
 317 71 317 71 348 113 c 128,-1,44
 379 155 379 155 379 219 c 0,45,46
 379 254 379 254 372.5 288.5 c 128,-1,47
 366 323 366 323 351 356.5 c 128,-1,48
 336 390 336 390 307 410.5 c 128,-1,49
 278 431 278 431 239 431 c 0,50,51
 118 431 118 431 118 251 c 0,38,39
EndSplineSet
Validated: 1
EndChar

StartChar: Ereversed
Encoding: 398 398 337
Width: 610
Flags: W
LayerCount: 2
Fore
SplineSet
142 463 m 1,0,1
 151 406 151 406 169 387 c 128,-1,2
 187 368 187 368 252 368 c 2,3,-1
 406 368 l 1,4,-1
 406 590 l 2,5,6
 406 611 406 611 399.5 617.5 c 128,-1,7
 393 624 393 624 373 624 c 2,8,-1
 238 624 l 2,9,10
 153 624 153 624 126 605 c 128,-1,11
 99 586 99 586 86 519 c 1,12,-1
 61 519 l 1,13,-1
 64 662 l 1,14,-1
 595 662 l 1,15,-1
 595 643 l 1,16,17
 540 639 540 639 524 622.5 c 128,-1,18
 508 606 508 606 508 553 c 2,19,-1
 508 109 l 2,20,21
 508 56 508 56 524 39.5 c 128,-1,22
 540 23 540 23 595 19 c 1,23,-1
 595 0 l 1,24,-1
 55 0 l 1,25,-1
 10 169 l 1,26,-1
 38 169 l 1,27,28
 75 88 75 88 121 62.5 c 128,-1,29
 167 37 167 37 274 37 c 2,30,-1
 301 37 l 2,31,32
 353 37 353 37 375 41.5 c 128,-1,33
 397 46 397 46 401.5 53 c 128,-1,34
 406 60 406 60 406 80 c 2,35,-1
 406 327 l 1,36,-1
 252 327 l 2,37,38
 190 327 190 327 171 310 c 128,-1,39
 152 293 152 293 142 231 c 1,40,-1
 119 231 l 1,41,-1
 119 463 l 1,42,-1
 142 463 l 1,0,1
EndSplineSet
Validated: 1
EndChar

StartChar: Schwa
Encoding: 399 399 338
Width: 711
Flags: W
LayerCount: 2
Fore
SplineSet
676 330 m 128,-1,1
 676 182 676 182 586 84 c 128,-1,2
 496 -14 496 -14 349 -14 c 0,3,4
 219 -14 219 -14 130.5 66 c 128,-1,5
 42 146 42 146 25 276 c 1,6,-1
 560 276 l 1,7,8
 562 312 562 312 562 331 c 0,9,10
 562 412 562 412 537 478 c 128,-1,11
 512 544 512 544 454.5 587.5 c 128,-1,12
 397 631 397 631 315 631 c 0,13,14
 192 631 192 631 89 530 c 1,15,-1
 71 548 l 1,16,17
 113 608 113 608 192 642 c 128,-1,18
 271 676 271 676 349 676 c 0,19,20
 496 676 496 676 586 577 c 128,-1,0
 676 478 676 478 676 330 c 128,-1,1
557 244 m 1,21,-1
 142 244 l 1,22,23
 156 149 156 149 208 85.5 c 128,-1,24
 260 22 260 22 349 22 c 0,25,26
 439 22 439 22 491 85.5 c 128,-1,27
 543 149 543 149 557 244 c 1,21,-1
EndSplineSet
Validated: 1
EndChar

StartChar: Epsilonlatin
Encoding: 400 400 339
Width: 525
Flags: W
LayerCount: 2
Fore
SplineSet
165 530 m 0,0,1
 165 452 165 452 212 413.5 c 128,-1,2
 259 375 259 375 362 375 c 1,3,-1
 362 342 l 1,4,5
 267 342 267 342 212.5 308.5 c 128,-1,6
 158 275 158 275 158 191 c 0,7,8
 158 164 158 164 164 139.5 c 128,-1,9
 170 115 170 115 184.5 89 c 128,-1,10
 199 63 199 63 229.5 47.5 c 128,-1,11
 260 32 260 32 304 32 c 0,12,13
 407 32 407 32 476 129 c 1,14,-1
 491 120 l 1,15,16
 418 -15 418 -15 278 -15 c 0,17,18
 173 -15 173 -15 104 39.5 c 128,-1,19
 35 94 35 94 35 182 c 0,20,21
 35 221 35 221 47.5 252.5 c 128,-1,22
 60 284 60 284 78 302 c 128,-1,23
 96 320 96 320 119.5 333 c 128,-1,24
 143 346 143 346 159.5 350.5 c 128,-1,25
 176 355 176 355 192 357 c 1,26,27
 57 390 57 390 57 523 c 0,28,29
 57 602 57 602 112.5 652 c 128,-1,30
 168 702 168 702 250 702 c 0,31,32
 299 702 299 702 351.5 687 c 128,-1,33
 404 672 404 672 412 672 c 0,34,35
 438 672 438 672 444 702 c 1,36,-1
 463 702 l 1,37,-1
 463 498 l 1,38,-1
 446 498 l 1,39,40
 419 663 419 663 283 663 c 0,41,42
 239 663 239 663 211 640.5 c 128,-1,43
 183 618 183 618 174 590.5 c 128,-1,44
 165 563 165 563 165 530 c 0,0,1
EndSplineSet
Validated: 1
EndChar

StartChar: Fhook
Encoding: 401 401 340
Width: 629
Flags: W
LayerCount: 2
Fore
SplineSet
55 -82 m 0,0,1
 76 -82 76 -82 88 -95 c 128,-1,2
 100 -108 100 -108 104 -124 c 128,-1,3
 108 -140 108 -140 115 -153 c 128,-1,4
 122 -166 122 -166 134 -166 c 0,5,6
 172 -166 172 -166 172 -100 c 2,7,-1
 172 553 l 2,8,9
 172 606 172 606 156 622.5 c 128,-1,10
 140 639 140 639 85 643 c 1,11,-1
 85 662 l 1,12,-1
 616 662 l 1,13,-1
 619 519 l 1,14,-1
 594 519 l 1,15,16
 581 586 581 586 554 605 c 128,-1,17
 527 624 527 624 442 624 c 2,18,-1
 306 624 l 2,19,20
 286 624 286 624 280 617.5 c 128,-1,21
 274 611 274 611 274 590 c 2,22,-1
 274 368 l 1,23,-1
 419 368 l 2,24,25
 479 368 479 368 499.5 385.5 c 128,-1,26
 520 403 520 403 529 463 c 1,27,-1
 552 463 l 1,28,-1
 552 231 l 1,29,-1
 529 231 l 1,30,31
 520 292 520 292 500 309.5 c 128,-1,32
 480 327 480 327 419 327 c 2,33,-1
 274 327 l 1,34,-1
 274 -7 l 2,35,36
 274 -101 274 -101 230 -152.5 c 128,-1,37
 186 -204 186 -204 105 -204 c 0,38,39
 62 -204 62 -204 34 -184 c 128,-1,40
 6 -164 6 -164 6 -132 c 0,41,42
 6 -112 6 -112 20.5 -97 c 128,-1,43
 35 -82 35 -82 55 -82 c 0,0,1
EndSplineSet
Validated: 1
EndChar

StartChar: florin
Encoding: 402 402 341
Width: 460
Flags: W
LayerCount: 2
Fore
SplineSet
179 450 m 1,0,1
 181 563 181 563 221 623 c 128,-1,2
 261 683 261 683 356 683 c 0,3,4
 401 683 401 683 430.5 665.5 c 128,-1,5
 460 648 460 648 460 621 c 0,6,7
 460 604 460 604 447.5 592 c 128,-1,8
 435 580 435 580 418 580 c 0,9,10
 399 580 399 580 385.5 599 c 128,-1,11
 372 618 372 618 357.5 636.5 c 128,-1,12
 343 655 343 655 320 655 c 0,13,14
 263 655 263 655 263 566 c 2,15,-1
 263 450 l 1,16,-1
 385 450 l 1,17,-1
 385 418 l 1,18,-1
 263 418 l 1,19,-1
 263 0 l 2,20,21
 263 -106 263 -106 220 -162 c 128,-1,22
 177 -218 177 -218 94 -218 c 0,23,24
 53 -218 53 -218 26.5 -202.5 c 128,-1,25
 0 -187 0 -187 0 -163 c 0,26,27
 0 -147 0 -147 12 -135.5 c 128,-1,28
 24 -124 24 -124 41 -124 c 0,29,30
 62 -124 62 -124 87 -154 c 128,-1,31
 112 -184 112 -184 131 -184 c 0,32,33
 160 -184 160 -184 169.5 -154.5 c 128,-1,34
 179 -125 179 -125 179 -45 c 2,35,-1
 179 418 l 1,36,-1
 97 418 l 1,37,-1
 97 450 l 1,38,-1
 179 450 l 1,0,1
EndSplineSet
Validated: 1
EndChar

StartChar: Ghook
Encoding: 403 403 342
Width: 819
Flags: W
LayerCount: 2
Fore
SplineSet
545 247 m 2,0,1
 545 303 545 303 529.5 317.5 c 128,-1,2
 514 332 514 332 457 336 c 1,3,-1
 457 354 l 1,4,-1
 712 354 l 1,5,-1
 712 336 l 1,6,7
 668 332 668 332 655 317.5 c 128,-1,8
 642 303 642 303 642 259 c 2,9,-1
 642 56 l 1,10,11
 612 30 612 30 533.5 8 c 128,-1,12
 455 -14 455 -14 391 -14 c 0,13,14
 346 -14 346 -14 301 -5 c 128,-1,15
 256 4 256 4 207 28 c 128,-1,16
 158 52 158 52 121 88.5 c 128,-1,17
 84 125 84 125 59.5 186 c 128,-1,18
 35 247 35 247 35 325 c 0,19,20
 35 478 35 478 131.5 577 c 128,-1,21
 228 676 228 676 378 676 c 0,22,23
 436 676 436 676 492.5 659.5 c 128,-1,24
 549 643 549 643 558 643 c 0,25,26
 573 643 573 643 584.5 654 c 128,-1,27
 596 665 596 665 596 676 c 0,28,29
 596 822 596 822 725 822 c 0,30,31
 766 822 766 822 792.5 806.5 c 128,-1,32
 819 791 819 791 819 767 c 0,33,34
 819 751 819 751 807 739.5 c 128,-1,35
 795 728 795 728 778 728 c 0,36,37
 757 728 757 728 732 758 c 128,-1,38
 707 788 707 788 688 788 c 0,39,40
 668 788 668 788 650.5 762.5 c 128,-1,41
 633 737 633 737 633 701 c 2,42,-1
 633 465 l 1,43,-1
 610 465 l 1,44,45
 578 543 578 543 530 589.5 c 128,-1,46
 482 636 482 636 395 636 c 0,47,48
 338 636 338 636 294 615.5 c 128,-1,49
 250 595 250 595 223 563 c 128,-1,50
 196 531 196 531 179 488 c 128,-1,51
 162 445 162 445 155.5 405.5 c 128,-1,52
 149 366 149 366 149 326 c 0,53,54
 149 187 149 187 219.5 106.5 c 128,-1,55
 290 26 290 26 412 26 c 0,56,57
 466 26 466 26 505.5 43.5 c 128,-1,58
 545 61 545 61 545 85 c 2,59,-1
 545 247 l 2,0,1
EndSplineSet
Validated: 1
EndChar

StartChar: Gammalatin
Encoding: 404 404 343
Width: 650
Flags: W
LayerCount: 2
Fore
SplineSet
635 643 m 1,0,1
 586 633 586 633 517 542 c 2,2,-1
 372 350 l 1,3,4
 374 348 374 348 402.5 306 c 128,-1,5
 431 264 431 264 443 244 c 128,-1,6
 455 224 455 224 469.5 191 c 128,-1,7
 484 158 484 158 484 136 c 0,8,9
 484 65 484 65 441 25 c 128,-1,10
 398 -15 398 -15 326 -15 c 0,11,12
 265 -15 265 -15 228.5 23.5 c 128,-1,13
 192 62 192 62 192 124 c 0,14,15
 192 141 192 141 197 159.5 c 128,-1,16
 202 178 202 178 205.5 189.5 c 128,-1,17
 209 201 209 201 222.5 222 c 128,-1,18
 236 243 236 243 239.5 248 c 128,-1,19
 243 253 243 253 262 278 c 128,-1,20
 281 303 281 303 282 304 c 1,21,-1
 90 589 l 2,22,23
 59 635 59 635 15 643 c 1,24,-1
 15 662 l 1,25,-1
 281 662 l 1,26,-1
 281 643 l 1,27,28
 258 642 258 642 239.5 632 c 128,-1,29
 221 622 221 622 221 601 c 0,30,31
 221 574 221 574 236 551 c 2,32,-1
 345 389 l 1,33,-1
 468 550 l 2,34,35
 488 575 488 575 488 602 c 0,36,37
 488 641 488 641 427 643 c 1,38,-1
 427 662 l 1,39,-1
 635 662 l 1,40,-1
 635 643 l 1,0,1
396 101 m 0,41,42
 396 141 396 141 308 264 c 1,43,44
 305 260 305 260 288.5 238.5 c 128,-1,45
 272 217 272 217 267 209 c 128,-1,46
 262 201 262 201 252 183.5 c 128,-1,47
 242 166 242 166 238.5 150.5 c 128,-1,48
 235 135 235 135 235 118 c 0,49,50
 235 78 235 78 258 53 c 128,-1,51
 281 28 281 28 321 28 c 0,52,53
 396 28 396 28 396 101 c 0,41,42
EndSplineSet
Validated: 1
EndChar

StartChar: hv
Encoding: 405 405 344
Width: 735
Flags: W
LayerCount: 2
Fore
SplineSet
710 293 m 0,0,1
 710 241 710 241 697 189.5 c 128,-1,2
 684 138 684 138 659 92.5 c 128,-1,3
 634 47 634 47 590 19 c 128,-1,4
 546 -9 546 -9 490 -9 c 0,5,6
 452 -9 452 -9 424.5 1.5 c 128,-1,7
 397 12 397 12 381.5 28 c 128,-1,8
 366 44 366 44 357 69.5 c 128,-1,9
 348 95 348 95 345 119 c 128,-1,10
 342 143 342 143 342 175 c 0,11,12
 342 194 342 194 343.5 230 c 128,-1,13
 345 266 345 266 345 283 c 0,14,15
 345 343 345 343 329 374.5 c 128,-1,16
 313 406 313 406 267 406 c 0,17,18
 213 406 213 406 158 343 c 1,19,-1
 158 102 l 2,20,21
 158 53 158 53 170 36 c 128,-1,22
 182 19 182 19 226 15 c 1,23,-1
 226 0 l 1,24,-1
 10 0 l 1,25,-1
 10 15 l 1,26,27
 54 21 54 21 64 36.5 c 128,-1,28
 74 52 74 52 74 102 c 2,29,-1
 74 573 l 2,30,31
 74 600 74 600 64.5 613 c 128,-1,32
 55 626 55 626 34 626 c 0,33,34
 24 626 24 626 11 623 c 1,35,-1
 11 639 l 1,36,37
 116 670 116 670 153 683 c 1,38,-1
 158 680 l 1,39,-1
 158 378 l 1,40,-1
 160 378 l 1,41,42
 217 460 217 460 304 460 c 0,43,44
 336 460 336 460 359 450 c 128,-1,45
 382 440 382 440 395 425 c 128,-1,46
 408 410 408 410 416 385.5 c 128,-1,47
 424 361 424 361 426.5 338 c 128,-1,48
 429 315 429 315 429 284 c 0,49,50
 429 265 429 265 427.5 228 c 128,-1,51
 426 191 426 191 426 173 c 0,52,53
 426 140 426 140 429.5 117 c 128,-1,54
 433 94 433 94 441.5 72.5 c 128,-1,55
 450 51 450 51 468.5 40.5 c 128,-1,56
 487 30 487 30 515 30 c 0,57,58
 561 30 561 30 598 72 c 128,-1,59
 635 114 635 114 652.5 166 c 128,-1,60
 670 218 670 218 670 262 c 0,61,62
 670 289 670 289 660.5 309 c 128,-1,63
 651 329 651 329 637 341 c 128,-1,64
 623 353 623 353 609 363 c 128,-1,65
 595 373 595 373 585.5 385.5 c 128,-1,66
 576 398 576 398 576 413 c 0,67,68
 576 434 576 434 589 446 c 128,-1,69
 602 458 602 458 623 458 c 0,70,71
 649 458 649 458 667.5 440.5 c 128,-1,72
 686 423 686 423 694.5 395 c 128,-1,73
 703 367 703 367 706.5 342 c 128,-1,74
 710 317 710 317 710 293 c 0,0,1
EndSplineSet
Validated: 1
EndChar

StartChar: Iotalatin
Encoding: 406 406 345
Width: 333
Flags: W
LayerCount: 2
Fore
SplineSet
326 66 m 1,0,1
 283 -10 283 -10 199 -10 c 0,2,3
 139 -10 139 -10 118.5 24 c 128,-1,4
 98 58 98 58 98 117 c 2,5,-1
 98 514 l 2,6,7
 98 569 98 569 82 593.5 c 128,-1,8
 66 618 66 618 19 618 c 1,9,-1
 19 634 l 1,10,11
 128 661 128 661 196 683 c 1,12,-1
 200 681 l 1,13,-1
 200 132 l 2,14,15
 200 42 200 42 252 42 c 0,16,17
 285 42 285 42 313 77 c 1,18,-1
 326 66 l 1,0,1
EndSplineSet
Validated: 1
EndChar

StartChar: Ibar
Encoding: 407 407 346
Width: 336
Flags: W
LayerCount: 2
Fore
SplineSet
3 314 m 1,0,-1
 3 359 l 1,1,-1
 117 359 l 1,2,-1
 117 553 l 2,3,4
 117 608 117 608 100.5 623.5 c 128,-1,5
 84 639 84 639 20 643 c 1,6,-1
 20 662 l 1,7,-1
 317 662 l 1,8,-1
 317 643 l 1,9,10
 254 640 254 640 236.5 624 c 128,-1,11
 219 608 219 608 219 553 c 2,12,-1
 219 359 l 1,13,-1
 333 359 l 1,14,-1
 333 314 l 1,15,-1
 219 314 l 1,16,-1
 219 109 l 2,17,18
 219 54 219 54 237 37.5 c 128,-1,19
 255 21 255 21 317 19 c 1,20,-1
 317 0 l 1,21,-1
 20 0 l 1,22,-1
 20 19 l 1,23,24
 83 21 83 21 100 37 c 128,-1,25
 117 53 117 53 117 109 c 2,26,-1
 117 314 l 1,27,-1
 3 314 l 1,0,-1
EndSplineSet
Validated: 1
EndChar

